<mxfile host="app.diagrams.net" modified="2021-10-06T09:50:00.865Z" agent="5.0 (Windows)" etag="3zjG5G6yzn4XEB6IxuW7" version="15.4.2" type="github">
  <diagram id="kgpKYQtTHZ0yAKxKKP6v" name="Page-1">
    <mxGraphModel dx="1803" dy="598" grid="1" gridSize="10" guides="1" tooltips="1" connect="1" arrows="1" fold="1" page="1" pageScale="1" pageWidth="850" pageHeight="1100" math="0" shadow="0">
      <root>
        <mxCell id="0" />
        <mxCell id="1" parent="0" />
        <mxCell id="sfCNAD6d5CcduHhw_1o2-127" value="" style="edgeStyle=orthogonalEdgeStyle;rounded=0;jumpSize=5;orthogonalLoop=1;jettySize=auto;html=1;fontFamily=Times New Roman;startSize=9;endSize=6;entryX=0;entryY=0.25;entryDx=0;entryDy=0;" parent="1" source="sfCNAD6d5CcduHhw_1o2-76" target="sfCNAD6d5CcduHhw_1o2-92" edge="1">
          <mxGeometry relative="1" as="geometry">
            <mxPoint x="290" y="620" as="targetPoint" />
            <Array as="points">
              <mxPoint x="170" y="632" />
            </Array>
          </mxGeometry>
        </mxCell>
        <mxCell id="sfCNAD6d5CcduHhw_1o2-76" value="" style="shape=image;verticalLabelPosition=bottom;labelBackgroundColor=#ffffff;verticalAlign=top;aspect=fixed;imageAspect=0;image=data:image/png,iVBORw0KGgoAAAANSUhEUgAAAhUAAAF1CAYAAABf+Bi5AAAgAElEQVR4nOzdd5hUVbrv8dWhqhrHOTNOuscZ50y6E+4J85xz55y5Z86MASV0bugKjTomJEiSpuncFRtUVMwBEyBiTphGRTEAJkyYA0kQlIxA1V6V9/f+satQJpmQ2lX98jyff2awm+ree9ev3vWud6l4PI4QQgghxJelCv0PEEIIIURpkFAhhBBCiANCQoUQQgghDggJFUIIIYQ4ICRUCCGEEOKAkFAhhBBCiANCQoUQQgghDggJFUIIIYQ4ICRUCCGEEOKAkFAhhBBCiANCQoUQQgghDggJFUIIIYQ4ICRUCCGEEOKAkFAhhBBCiANCQoUQQgghDggJFUIIIYQ4ICRUCCGEEOKAkFAhxACktd7HMAwMwyAWi+0nGjM+1Z//N/mv9cmvX+jXKoQ4eCRUCFFCtNYfhwLDwNBx4skkqXSGdNbEzJqQSUM2C5h8tX9M6/tk0phZk3TWJJVOE08mMXScaC7I5ENIoX92QogvT0KFEEUmX1WIxgxiWmPoBDoeJ5FIkM1m939fTyeI79nFri0fsHn9GtatWcNbGzbz9Mo3eODx5dy06AGumH8jZ110OT0zZtHaG2Z8WzenjJ3AyJ4LqTv7JupnXE/9zAUfm3E9dWffxMieCzll7ATGt3UzrS9Mz4xZnHXR5Vwx/0ZuWvQADzy+nKdXvslbGzazbs0aPly/hl1bPiCxZxekE/v9M7PZLImE9ToMnSCm9b5KiGEYBf+ZCyE+GwkVQtiUYRhE/2wZwtBxMpnsJyoBKbIJg1TcYOeuXbzyyivcd999XH75FQSuvYMzLr2VEV3n87vTOvll/al8a8gpVLiDlI/sQzX1oBq6UHUdqNp2VM10VHUbavg01LBW1PDpqJqOv2349Nzfm2b9dzXTra9T12F93aYeykf2UeEO8q0hp/DLhlP53WmdjOiazRmX3krguju54ooruO+++3jllVfYtesjUnGDbMKAbGpfJSWTyVqVjf2WXiRsCGFHEiqEsJH88oVhaNKZbO5t9eNlikxKs37VWyx7bDE3LXmOyLW3c8LUPv79hGkcfvp5HObro7KuFXXMWNSQqajablRDL2pkEOWJUO7tp9IdoNIdxOGxOL0hnN4QLl94P1W+0Kf68/8m/7XyX7vSHaTSHaDcG0F5Ita/o6HX+ncNmYo6ZiyVda0c5uvj8NPP499PmMaJrX30X3c7Ny95jmWPPcKGVW+TScX3W1YxgVQmQ8ywfl6yfCKEPUioEKKA8ksZRiJBMpXCzGZy6wEZYts3s371uzy98g0um3cjo6dM5w/TLuDHJ/biOPpk1NBpudDQh2rsQzX1UjYyQIUnjLOlnypfGJc3iNMTxOkO4HD7cTT7c6Hi4HI0+3G4/TjdAZyeIC5vkCpfGEdLPxWeMGUjA6imXut1NPRZr2voNBxHn8yPT+zjD9Mu4PQz27l8/k08vfJN1q9+F2PHFjCtqo2ZzZBMpTASCVkyEaKAJFQIcZDkd1p8cikja1pViGzCwNizmzffWcXcefMZe/58fjcuyDePOwlV24Gq60JVT0fVdqGag1S0zLQqBZ6gFRbchQkLBzx8uP043AFcniBVvhAVLTOt6kb+9dd1oWo7+MaxJ/E/Z4Q448IbmDf/et56dxXGnt3W0gmQNc39lkykGVSIg0NChRAHQSwWw4gnciHC+nSdSmheeW45N9y7mMmz5vBr9xlUeUOoIZOsKkRTgDJvP5W5JQqXL0yVN4TTEyhYxaEQFQ6nJ0BV7vU7vSEqPUHKvDNQjQHUkGmoIZMY5Avxa+8ZTD73Km647xFeeW45qYTOt4FaISNuVTEKfS0IUcokVAjxFTAMg5hhEE8kyWTSVj9EMs4Hq99iydMr6Dj7Qn4z5QK+2TAFddQ4VF0vqsmPGtFHhS9MlTeM0xOgcoCEh88tHzZ8YSq8YdSIPuvnV9eLOmoc32yYwm+mXEDnORfx2NMr2LT6bTLJeK7xM008kSSWm6lR6GtFiFIioUKIA0LvNzAqk80CWZLR3axZt445C27GPeM6jqg5FXXsRFRdt7WU4Yng8vXj8gRKZgmjUBxuPy5PAJev32oKre2yfs7HTeSImtNw91/HVTfcwtp175GM7gZMMtnsfoO84nFZIhHiy5BQIcSXZBif7I/Igpnh7Vde5LJb7mXI2E4Obe60tlvWdFLmm0nVqH6qfMF9SxlSjTjAPrFkUuULUjWqn3LfTOvnXzOdQ5s7GTKmk8tvuY93Xn0JzMzHSyQ6LtULIb4ECRVCfAH5IJFK55Y2EppV777LpQtuY8iEAN9t6UENmYwaEaSsOYDDG6LKG8JR6DfcAcrhtkKGwxuirDmAGhFEDZnCd0f1MmRigEsX3MbqVavIJK0+jFQqLQFDiC9AQoUQn9End25kslnIpNixeSMLbrsLd/hqDh851Sq513dR5g7i9EVwypKGLTndfpy+MGXNuZ0ltV0c3tyKO3I1N999Hzu3bIJMar/lEQkYQnw6CRVCfAYxwyCdyViDl9IJnl/xHNMvvp6f1I/JTaPspNwT2TcUyukp/Bun+AzhwhPY9zsr90RQNZ2ounZ+Un860y9ZwAvPr8BMJwCTdCZjNd/a4HoUwq4kVAjxNxiGQTyRwMydp7F903puuv9Rhp/WyqGNbahh01HuCJWe/NKGVCWKmcPtp8obotITQrkjqGHT+XrTdIaPbuWm+x9l+6b1uUFbWXQiIZULIf4KCRVCfILWmphhoOMJTCCbirN27Tr6L7qSnx/fiRrehmropcwdxOUNDZh5EQONo9mPyxuizJ0bKz68jZ8f38mMi+ewdu06ssk4JqDjCet6kcFaQhCPS6gQYh/DMEgkk1apOx7j8aXLOSF4CYc0WgdllY0MUtUSluWNAWTf8khLmLKRQVRtB4c0TueE4KU8sewpMnEDMEkkklK5ECIuoUIIYrEYyZS1iyO6cxt33XMfx47rpqqxHVXXTaU3hMsrQWKgc3oCuLwhKr1hVF03VY0dHDuuh7vvvQ/jox0AJFNpmdopBjQJFWJAyp8GmkimANizfTO33nk3vz1pGmrweFRDH+Vu6+CrQr+ZCftxeYOU55dGBp/B705t57a7FrFn+2YAEsmknJ4qBiQJFWLAMXLjswFiu3cy/4aF/Ob4yaghEylr8uNs6ZemS/GZONx+nL5+ypr8qCET+c3xk7l+4Y3Edu8ETOLS0CkGGAkVYsCIxWIkk1aY2LtzK7fefge/++NUyo6bQNkIP46WCC6ZcCk+J0ez3zottiVC2Qg/ZcdN4H9ObuWOu+4mtmv7fpWLQt8DQnzVJFSIkmdNv9Rks1lSxl5uu+tu/vP4yaijx6JGBKn0RXLjsgv/BiWKWLPVd1Hpi6BGBFCDx/PbE6dy+12LSOu9ZLNZYrndRYW+J4T4qkioECUrf8BXJpvFTCd4ZMljVE8JUz50EqqxD+eoGbIlVHwlHM1+nC0zUI19lA+bTO2ZER5/cilmOrlvSqdULkQpklAhSpJhGKQzWcDklTfexNd7ARXDp6DqenD4+nF5grLMIb5S+5ZFfP3WLqLqqZwQvIRX33wLMEnJhE5RgiRUiJISi8X2NWFu/eB9gudfwmG1k1B1vVR6QrndHBImxMHkt647TwhV28thtZOIzL6M7Zs3ARCXGReihEioECUhf9hX1jRJR3cx99ZF/MQzDTVsGhXuIE6PbA0VhefyBKl0B1HDpvGzUe3Mve0e0rGPyGRNotGYhAtR9CRUiKJnGAbJVAoweX7Fc9SP70QNmUCFdwaDZPqlsBmnJ8AgX4hyTz9lQybQMKGbl1980dolkkpJsBBFTUKFKFpaawwdB+CjD9bTecE1DKqfimrokWPHhe1Zx69HUA09HNLQRu8lc/now/cBMHRcBmeJoiShQhSlaDQ3DTMV56Elj/Ovf+xAHTeFSl8/TncA6ZsQxcFvXa/eCOq4yfzbSZ0sfuwJSMVJJFNEo7JDRBQXCRWiqGit0VoDsGPzJiaGZ1Nx9KmUufupapHqhChOTrefqpYIZe5+Ko4+lUmRC9iZa+Q05BRUUUQkVIiiETMMUpkMZNMsXvIE/zJiLKqm6xPVCSGK276qRXUn/9o8jkcfXwrZtGw/FUVDQoWwPa01MUNjZrPs3rGdqf6ZVA6bjBoZxOkNybwJUVqa/Ti9Iev6rp5CW+hsdu/cjpnNEpOqhbA5CRXC1vIPUIDlTzzGr0/qRNV24vSFqZJtoqKEVXmCOH1hVG0nvz6pi6eWPm7NtYhLE6ewLwkVwrZisRiZrEkqtof+K6/H1dBGWVMvLl+44A98IQ4GhztAlS+MauqlqrGd8+bdStrYSyablTHfwpYkVAjb0dogZmjA5L1166g97UzUkDOp8IRxeqU6IQYepzdIhTuMGjKV+jGtrH/vPQBihkZr6bUQ9iGhQtiK1hodTwAmDz34ID85yY+q68LpCyPbRMXA5s8th3Txs5MDPPzQQ4CJjidkOUTYhoQKYRuGYVjLHQnN2VfOxXn0yZS5w3JehxD7WOeIlDWHcR59MufMmUc6ESeTyWLIcoiwAQkVwhaiMQOALRvW0NJxtrVV1BuWEdtC/BVOT4BKbxhV08WoznPYuvE9TCAqwUIUmIQKUVDaMNgbMwCTFa+9xS99U1HV03HJVlEh/r5mPy5vCFXbyb+NOJ2VL78EwN5YTJZDRMFIqBAFo7UmnkgAcOcDD3FYczeqKYjLFyr8A1uIouDH1RJB1XfzrZEd3PWnxQDSZyEKRkKFKIiYYZBMpSGtOeeCi3EMn0JZcxCXLHcI8fnkKhZlzSEcw6cw68JLIJMgmUrLFE5x0EmoEAddNBolnc6go3s4JXwZ6venUenrxyHNmEJ8YQ63n0pfP+rI0YyeeQU6uod0OkM0Gi34PS8GDgkV4qAyDKshc/PG9QxrOw9V38ug42fIQWBCHABOt5+q42egansYPv18tmzasO9QskLf+2JgkFAhDpr8Do/XXn6B/zipA9XQh8sblAqFEAeQI7ftVDX08ptTOnl95QsARGMSLMRXT0KFOAg0e6MxAJY9+hA/GHYyqikg0zGF+Ao5vUFUU4AfDDuFZUsetnaGRGPE49LAKb46EirEV0trDG0dCHb3o8v4xlHHU9Ycpkp2eAjxlavyhVDNIb559AksWrI8tzPEui8L/mwQJUlChfjKaK0x4gkgy/X3LMbR0E2ZJyIVCiEOIqc3SJkngqOhm+vvXQxkMWTLqfiKSKgQXwmtNTGdADJccdPdVNR3UNEcwGmDh6wQA43THaCiOUBFfSdzblkEZIlpOUJdHHgSKsQBZw21SoKZ5sL5t6AaunB6Qjg9UqEQolCc3iBOT4iyhi4uveF2IE08IRULcWBJqBAHlNYanUhAJsXMK+ahhrfh8IRwyFArIQrO4QngcIdQ1dM568r5kElhSLAQB5CECnHAaK0xdAKyKWZcPhc1vI0KTwiHDR6mQgiLwx2gwhNCDW9j5hVzIZvC0BIsxIEhoUIcEFaFIgmZJOdctQBV24HDJ6eMCmFHTk8AhzeMqutg1tU3QCaFTiQlWIgvTUKF+NK01uh4Asw05167EFU7Hac3LBUKIWzM4Q7g9IZRte2cf92NYKZlV4j40iRUiC9Ha2I6DtkUl9xwJ6q2g0pZ8hCiKDg8ASo9IVRtO5fdeBeYaWKGljkW4guTUCG+lKihgQxX3rIIVddBhTsogUKIIuJwB6hwBymr7+SaOx4AMyMjvcUXJqFCfGExQwMm8+99BFXXicMdlF0eQhQha1eIFSwW/ukxAKtiYYPnjCguEirEFxKNWWd53L34cSrruyhvDkhTphBFzOkJUjYygLOunXsXL8kdQhYr+LNGFBcJFeJz2xuNAvD0E0v4+tEnUNYckkAhRAlwegKUNQf5hyNH8cyTVsUiGpVgIT47CRXiczEM6/jyN199iR/VnIZyh3HJWR5ClAyXN4hyR/hx7Wjeem0lAIYhPRbis5FQIT4zwzDIZDJs3bSB/zy1G9Xol0AhRAlyeUOoRj//NbqXHR9uJJPJSLAQn4mECvGZ5M/z0NG91LbPRtX1SKAQooS5vEFUXQ8NXReio3ut+1+2mopPIaFCfLr8EebZJONDs1F1vQzySaAQotQN8gVRtT1MCM+GbBIjnpAZFuLvklAhPoXObR2Fi6+8GnXkaTh9ESrd/oI/8IQQXzU/Tl8/6sjTuPSqa2WrqfhUEirE35XfOnrPw0tw1JxJhW8GDgkUQgwYDrefCt8MnDVTufcR2REi/j4JFeJvisWsnR6vvfEmh3l6rJ0eNnjICSEOLpcngGoO821vD2+8+aZVsZCpm+KvkFAh/iqtNelMlh0fbuC/vGeg6nulMXMAcLj9OD3WICSXN4jLG6LK95dc3hAubxCnJ2ideCnVq5KXb9z871ET2bVlE6l0Rho3xV+QUCH+gtYaQ8fJplMc3zsbVd2Oyxcu+ENNHBiOZj8ud4AqbwiXL4zDY53XUuEJojwRVFMA1dCLqu1GDW9HDZv+l4a3W/9/Q6/19z0RKnJfx+EJ4vKFra+f+36Ffs3iwHD5wqiaDv7ovwAzncLQcQkWYj8SKsRfiOUGXF1w+VWomg5cLZGCP8zEl+do9lPlDeJomYEaGUTVdqKqp6PqOlEj/FTUtfHT2lP4w/gAjd0XctI582i95l66FjxE5/UP7tO14CFar7mHk86ZR0PXhfxhXICf1p5CRV0baoTf+nrV062vP9L6flXeoISLEuFqiaBqOrh4zjW5xk1ZBhEfk1Ah9hPLNWYuffJJDhl8KpWesJw6WqQcbms4mcMXsd7sG/tQNV2UHXkKPzuxi2ODcxkfOJc58xfy1Ctv8+76TWxc+y67t20msWcXZtIAsvz1P1nMpEFizy52b9vMxrXv8u76TTz1ytvMmb+Qcf5ZHBuYy89OsL6fqulCNfpRI/w4fBHr3yVLJkXJqmqF+Nqxp7F82bJcf4U0bgqLhAqxj2EYZLImG9et5ud/7EU1h3F6pI+imFhBIoTTG6LMHUbVdFIxfApHnOin/rTJXH7nYpY/9TSb1r6zf2DIZjAzadJZk0QyRTyRxIjHicaMv84wMOJx4okkiWSKdNbEzKQhm/n4a5oZNq15m+VPPc3ldy6m9tRJ/OCEPiqGT0HVdFLmDuP0Wv0ZEjCKi9MTRI0M8cuT/Xywfi3pbBYtFQsRl1Ah8nJ9FGZS0zK5EzW0VfooikWzVZEY5AtR6YugatpRDV381NvKmRcv5La77+XDje9DOgGm9aafyWaJGZpYLIZhGAdsXVxrjWEYxGIxYoYmk83uCxikE3y4cQO33XUPZ168kJ96W1ENXajadip9EQb5rObPSlkmKQouXxg1dConnNkNSU1MaxmMJSRUCEs0t330qtsfQNVMz/VRyMPd7hzNfpwt/ZSN8KOqO/haXSvDxnez8Pa72L5tG5mE9XtNp1LoeHxfkND64Hyq1PrjgKHjcdKplBVqEgbbt21j4W13MnRcF1+ra0VVd1I2wno9EiyKgT/XX9HO1Xf8KXdUulQrBjoJFWJfH8XKFU/zzeqJlHkiUo62OYcngNMbpszdjzpqHN/29tB++Y28/sabJGN7rTfudAZDW79f23yC1LnqiI6TSVtVk2RsL6+//gbtl93It73dqKPHU+bux+kL4/AU/mct/s516PajPBG+VTuJ115cIf0VQkLFQLfvoLDdOzlqQj+qrlvmUdiYwx1gUEsIhzuIGtrKEQ1jOeuiK9mw5l1rlcE00fF40ZwoaRgGOh7HNE0ANqx5l8iFl/ODujGoYa043MHc6y38z178ddb8im6OmTyTxN6P5OCxAU5CxQCX3z4aOe9C1HFTZNnDxhye3E6Ouh6+1dhKaNZsNm/cAGaWRCrN3mgst7RRXA90nate7I3GSKbTYGbY/P56QrNmc1jDVFRdLw5fPw5pGrap3DLIkCnMOP8i2WY6wEmoGMDyyx7LnnwSV0MbFV7ZPmpHDncApy+Mauih4phxnBK6iHdXrQYzQyqTJRYzDlqPxFfN6sEwSGWyYGZ4+91VnBK6iPJjxqIae6wlERv8TsRfXqMV3jCuhuksX7ZUxngPYBIqBqj8skd09y7+q2WiLHvYlCs3nVINn86vRwd54J67MbMpsiZFs8TxRRmGQdYEM5vivrvv5F9P9e+b7uqSqoXtWMsgXfz2+EnE9sgyyEAloWKAspY9TILnXYKq66HKF0aWPezF6Q2hGv04atvomDmb3Tu2AyZRQw+YT4GxmEHM0IDJR9u30T7jfBw1bahGP05vqOC/I/FJfqp8YVRdD6HZlwKmLIMMQBIqBiAj10fx3Asv8bWhYyn3SCOcnexb7qjv4f+4z+DRJ5ZCJk0qlR6wnfWxWIxUKg2ZNI88sZRfNZ+BqpflELtxuAOUuUN8bdg4nn95JVD6FTWxPwkVA45GJ5Ikdm/nuNO7UE0hnLJtzzacntzZCsNa+eOMOWzdtH7fg3mgl5Lzg7UAtrz/HqNCl1tD2loicg3biMsTQDUFGTa+l+SenehEsuDXjjh4JFQMMPndHhcvvBs1tJUqKSHbhtMToNwdpuLYsZx/8WVgZkimUuyNDszqxN+yNxojmUqBmeG8iy6lfPBYKjxhCRY2UuUNoYa1cunN98pukAFGQsUAYhgGpglrV7/L90dOQ3kiUjq2CZc3iGrs43uebhY98CcgSzyRkNLx37mW44kkYHLbnXfzreYOVJMfpzQb24LDHUC5wxzR3MZ7a9dgDoDGYmGRUDGAxHQcMglOntqLqumU3R424fKFUA29/OiUfla8+FJuuWNgL3V8VoahAXhmxQv800kRVGMvLp9U3+zA5Q2iajo5dZofMknrbBAbXDPiqyWhYoDIL3s8+MRyKmqm4vDKYWF24PKGUHVd/Pi0s3hr1RrAtJY75AH82WjN3mgMMHn9nXf50Wlnoeq6cMmyXsE53AEc3hCVta0sXvasLIMMEBIqBgKtSSRTxHbv5Pdj+lAjArL+bAMubxDV0Mf/8U5l1Zo1ue2i8tD9IqIxK1isWr2aX/naUA19UomzAacngGryc9T4IPG9u4knUxKYS5yEigEgmpuceemVV6OGnilHmtuAFSh6+dnp57DqvffBzA6Y2RNflVjMADPLqvc28LPRZ6MaeiVY2IDTF0YNm8qV186VSZsDgISKEmcYmkw6zfoNG/jBqB7UiD45+bHAqrwB1Ag/3z8pwpur1gASKA6UWMwAsrz2zioOPymCGhHA5S3873wgc3gCqBF9/LClm43vv086ncaQakXJklBR4qK5yZntF1yHqu2SJrYCc7oDqJEhvuft4YWVr1pLHhIoDuw1H7Ou+RUvreQ7zV2oZhnuVmguXwhV00HXxfMB5JovYRIqSlh+UNCrr6zkGw2tlHtk+mAhOdx+Krz9VA6bxAMPLZaH61fIqljAvQ88SOXQiVR4+3HIGPoCXvsBytxhDmts443XX5NJmyVMQkUJixka0glO7JiJqpUDwwqq2Y+rpR91zDjmXHOddMIflOvfChZXXHU16ugxVI2aQWWzBItCcXmDqNouTu6eZW0xlW3TJUlCRYnKH2v+5GOP4hg2kUpvpOAPlYHLb500WtfLuLOvgnScWDwhXfBfMa21NZslHWfMWXNQdb25JmUJFoWQPx7dOXwSy598Ite0KdNiS42EihKktUbHE5iJGA0TumXffoHlj4T+r+OnEt25jVQqLaXfg8QwDFLpNHt3bOU3o6bk7gWp2BXuXgihartomtwHCQMdTwz4M21KjYSKEpSvUjz00IOoY8bgkLJvwTjcfip8/QxqnM7zzy6XT2cFvB9WPLOMQQ1tVLTMkP6KQmn242iZgRo8hkcWL5b7oQRJqCgxVpUiTjZuMOz0Nmuvvkc+mRWKyxdBDZ7I+Vflut7lcLCCiEatYDHryrmowRNw+SLIMkiB7glPEFXfQ+24DsykxojHZSmwhEioKDH55rSHH34YdexYHPKprIAPz9w0wckzSOzeQTyZlFJvgWitrWmOH23nyIn9qCbr91Poa2Qgcrj9VPr6KT9uHEsefVSalkuMhIoSY+g42aSmdmw7qr5XHpyFenA2+6lomcEhQ8bw/LNPS5nXBvLLIM8+vZyq40ZT2TIDhywLFoTLE0DV99I0oRszFZdhWCVEQkUJyT80H3tkMY6hE6j0ytHmBXto+kKo4dPpPO8KICvzKGzCGgaXZfo5l6Kqp8swuAJxuAPW82nYRB5f8qiE7hIioaKEGPEEpDS+trA1PVN2fBSE02ON4f7RiX52bPmAVDotyx42obUmncmwdeMGfnh8D2qEX8bWF4jLG0LVdHJ8+wxIx63eClH0JFSUiPz0zBdWrMBVM4kKXz/SiFYYVb4QqrqTK2+7X6Zm2lA0N23zitseQNV0UyUH7BWInwpvhKraKbz0wgsyZbNESKgoETFDg5nh9PBFuSqF7PgoBKcniGry8x+jphDbvYt4Qvbh243Wmngiyd6PdvHrUWeiGntxyg6pgshP2RzXfwmQkSmbJUBCRQkwDANMk7feeYfDmjsoc8sBSoXhx9USQR09jgU33pqrUsg6sR1Fc/1H826+EzVkam7SZqGvn4HHOhMkxLfdnby7ajWmaUq1oshJqCgBsdxJpP6LrkXVdEqVokCsXoog//eUbvZs30wyJb0UdqW1JplKsXvHdn59ehg1wo9TeisKwuUNomo6CV1yHWDK9tIiJ6GiyGmtSabTbPtgIz8ZOUkejgV9OIZQ1e1cdPP9UqUoAvlqxYU33oOqbpfG5gJx5BqbfzriDLZ/uEnCeJGTUFHk8g/G6268FTV0Cs6W/oI/JAYih9uPcof4vreDzRs3kEql5MFoc1prUqk0H76/nsO97ShZNiwYZ0sENfRM5t10mwTyIiehoojlG86Sxl6OntiPapQqRaFU+cKoodOYdlau4UwCRVGIaavBuXXmxahhbVTJ3IqCcHoCqLdAtToAACAASURBVEY/gyf1kzT2Ek/I9NliJaGiiOW3kT725DLK6juolA72gsgfGlZVPZFnlj4ug3yKSH5g3PKlT+KqtrZiy1j7AvEEKa/v4PGlT8n20iImoaKI5Rs0T20PooZNkw72AnHmjjY/cmIEM5WQkcNFJj/a/vfjQ6i6LpzS6FwQLl8YNWwao7v6pWGziEmoKFKGYWCasGbVu3yvuQ3licgnrEI9DL1BVF0Pl867UQ5HKkL5Q/guvHYBqr5Hdk8ViNMdQLnD/KNnOmvXrCYr20uLkoSKIpWvUly64DZUdYc8CAvEkZsK+LXqM3hn1Wop2xah/DLi26tWc8jw8VR4JaAXissbRFV3cMXCO4GsDMMqQhIqipSOx8noGEedOh3V0CMTAQv5EGzoZWj7BcQ/2kY8Kbs+ik3+WHRj5xYGt56LaujDJfdTQTg9QVRDD8ec3kE2bmDowl8f4vORUFGEYrmzC5585jmcTR1UeGQrXKG4WiKo4ybhP/diaytcNFrw60N8ftGo1bDZffZs1LGTcLVECn5tDUQOd4ByTxhXUwfLn35Wmp6LkISKIhTTccgkaL/0BtTwTtkGV0AV7iAOdx9PLF0OyBpwsdq3k+qJJ6ls7qPCLZWKQqnyhVDDptN5yfWQTRKTakVRkVBRZLSOk0wm2f3RR/zy+HZUc0CqFAXicAdQzUH+ceRUdu36iFQqibbBNSK+wH0Vj5NKpdi1axf/a8SZqOag3FcFvq9+9cdO9uzeTTKZREuwKBoSKopMvlP9oYcepqyhS2ZTFJB11keAhgldJPfuIp5MFvz6EF9CMkly7y5qx7WjmgIySK6QPEHKGrtY/Mij0vxcZCRUFJlorp9i7NlzZDZFgVX5Qqih0zn75ocAk6g8+IpazNBAhv6bHpZlxQLLz6wYP+vq3NhuubeKhYSKImIYBumsyeb1a/j5qDaUO4xTtr4ViB/nqBmoI0dz8+13ynkFJSB/js4N9zyEGjwBl5yjUzBOdwDVHOaXJ3SwdcNa0lnpVyoWEiqKiLX0keXBpc+ihrfilFMVC8bhDlDmCfONpmmseGqZlGhLQL5Z87llT/CNhqmUecLSV1FATm8IVT2NxctX5GZWyP1VDCRUFJF8P8WY3nNQdd0y8KqQDzxPENXYyy/GzWLntq0kZT5F0dNak0ym2LF1Mz8fOwvV2CvzXwrImlTbzbjAuTKptohIqCgSWmsSyRQfbf2QX46ZiWrskwdeAeXP+/iPaZfJ5L8SYvVVZPmPaZfJOSCFvsdywf1XY89iz7bNJCS4FwUJFUUif5riw48vpWz4JBy+iJRmC/nAy32KahzbBtk0hoSKkmAYGrJp6se0ouq6JVQUkMMdoNIXoXz4ZBY/sUwGYRUJCRVFIqY1ZFP4r70TVdNFlTzsCsqVq1RMn3E+mBmpVJSImKHBzDAtfC6qrkuWGAusyhtEVXcRmrsIzJTcZ0VAQkWxSCaJ7/2I/+cdixoZxGmDG34gy4eKc6+9UUJFCcmHinOuvkFChQ043QHUiCC/P/4MEns/klkwRUBCRRHQWpPNZnjjjTf42ohOytwy7a/Q8qHiurselJ6KEpLvqbj2zj9JqLABhztAWXOAQ5u7ePvtt8hkMtJXYXMSKopAfv/8JdcusLaSysCrgsuHinuWPi+hooTkQ8Vdjz8rocImnL4wangrl89bKPNgioCECpvT8Y8PEDt+1gJUdSdVMp+i4FzeIKq2i6WvrZY99CUkPwtmyctvS6iwiSpvCFXdyR/PW5g7YEwCvJ1JqLA5rTXprMmW9Wv4lXsCyh2RKZo2kA8Vy15fI6GihORDxbLX16BqJVTYgdPtR7nD/ItvMlvfX0c6a8oSiI1JqLA5w9CAyVMvv46qnorDK0sfdiChojRJqLAnhzeMqm7l6ZVvAFnZwm1jEipsznrImZxz6VWoetk3bxcSKkqThAp7cnqDqPpuzrviWsCU+83GJFTYXH40d8OUIKqmHZf0U9jCvlDxxloJFSVEQoU9ubwhVE07Ta2R3BAsud/sSkKFjWmtSaUzbNu4nl+MPRvV5MfpKfwNLj7e/fHoi29JqCgh+VDx0HOvSaOmjTg9QVRTH78cP4sdH24kmUpLX4VNSaiwsfxo7iceW4Jj8GgqW2bgkCZNW8iHilseXipbSktIfkvpTQ89KaHCRhxuPxW+fpxDxrD0icdlZLeNSaiwsViuSfPKex5DDW+nyidLH3aRDxWX3XQ3IBM1S4V1z2W4dOGdEipspsoXQg1v56r7npS+ChuTUGFjRjwOSc2YwPmohl5csvRhG/lQEb70WhnTXULyY7qDF18jocJmXJ4Aqr6XcaELIKkxbHC9iL8kocLOEkkS0d38uuFkOe/DZvKhYmxbj5xSWkLyp5SObu2Wo89txukOoEYG+femU0lEdxNPyDkgdiShwqa01mQyadasXcthx4dQI/1y3oeNOHOh4ujxAempKCH5noqjxvslVNiMwx1AjfRz2PEh1q5bRyYtzZp2JKHCpvJNmvcsWkRl3TQqvWEJFTbi9Fj75v9t2hVkUwkMebiVBK3jZJMJ/m3aFdZcGI+ECrtwuANUeMNU1k3j3nvvlWZNm5JQYVPRaBSAmRdeijp6PK5R/QW/qcXHnJ4AamSAI04MsPbdd8hksxjSOFbUDMMgk82y+p23+MEJftTIgGzhthnXqH7U0eM458JLrMPFotGCXzdifxIqbMrIHSJ2yvkLUDVdVEkZ1lb2bXEbdgYP/+l++dRUAvLVwYceuB/H0DOo8PXLFm6byR8udtrs/OFihb9uxP4kVNiQ1ppkOsPurR/wu9FdVpOmfGKynUEtYdSxU7nq/mVyJHMJiMas6bVX3r8cNaSVQT45Z8dunJ4AakSQP4zpYc+2D2UIlg1JqLAhrTVZ02TD2tV8e8hJlPlk6JUdVXmDqNpuWi+5AdJWdanQ14744gwdh5RmygXzUHU9Uh20IYfbT5m3n+8OPYX3160ha8qJpXYjocKGDK0hm+H5N1ejmnpxSJXClpxuP6o5xG88YzE+2kEimSr4tSO+uEQyhfHRDv6jeQyqOYRTgrwtOTxBVFMvL7y1BrIZaZK2GQkVNpQ/mfSGu+5H1XdKB7pNOdwBypr9fN0XYMMHm8mkU/KpqUhprcmkU7y38QO+7vNT1ixbuO3K2nnVxU33PCiTNW1IQoUNxXJru72Rs1A103HKyaS25fCGUdXTmDdvvjRrFrF8k+Y1181FVbfi8Eo/hV05vSFUzXQCM2fJiaU2JKHChvINYyO7Z6Oq5bhzO6vyhVFDpjI6fIk84IpYvjp4cuhi1NBWqqRJ07Zc3hCqup3mngtyDdJyz9mJhAqb0Vqj4wky8Rh/6L4KVdct5w/YmNPtR7kj/MuJHWx7fx3prDSOFRttGKSzJls3rOFXx7eh3BHpp7Axa0R+N0f2XoOZMOQMEJuRUGEzWmvSmSwfrl/Lr04JokbIAB67c3rDqKFn8uhTKwBTzgEpMkauSvHQ0qdRQ8/EKVUKW7O2lfr559Ehtrz/Hql0RoK8jUiosBnrAQevPv8s366bQJk3Ig1jNpc/XGx8zwwpxxah/HLjmK6IVAaLgMMdQHkifKdhEq+99DyATLO1EQkVNpNvGFvyyGLU70/EMWomlVKKtTWnJ4hq6uPnp4bY8eFGUnLQUdHQWpNKZ9i2aQP/+xTr9yi7rezN0ezHcfxZlP2uhScW/0kapG1GQoXNRHOVitueeB41tI0qnzRpFoOqlgjquMnMu/shqVYUkXyV4tp7HpUGzSKSb5C+44kVcr/ZjIQKm4kZGswMF93yAKq2S0qxRcLlCaAa/VRPCpLRUbQNriXx6XQ8QUZHGTbBj2r045L+paKQn2Z76R0PAxli0sdkGxIqbMY6SCxJ+/lzZH23yFR4gjibOnj62edknbcI5PuXlj/9LM7GDipk2aNo5HeAdFxwNWSSMiLfRiRU2IwRj0MyzgltIVRDr3xyKiJVvhCquoOx58/f9+lJeivsSWtNTGsgzZhZ16FqOqiSeTBFw+UJoBp6ObE9DKm4bCu1EQkVNpOfUTGkZTSqyS/bSYuIw+2n3DeDfxhyGm+/uhJTqhW2ZRgGpmnyxhtvckj9mVR4w3JoXxFxegKoJj/DThhLNh5DxxMFv6aERUKFDaUSmn8+YXquE73wN7D47Kxpfx2MP38ekGWvdKXb0t5YDMgy7rzrUDWdMrW2yFihoo9/PqGdVEKqgXYiocJmEokE0WiUH46/ENXYg0PWeYuKwx2g3BPi6yO6eOWtd63tblKtsJVYrpdi5ZvvcGhTJ+XukMyCKTIOTxDV2MMPx1+IYcRI2OC6EhYJFTaitSadTvP+hg384x8jqBF+Ofa8CLm8QVRNF6eFLwMzLZ3pNmNoDWaKU0KXyA6rIuXwBFAj+jj8pH42bdxIKiUnBNuFhAobMbQmm83yxuuv860WP6o5IKGiWHnDVFafyaNLHpPhPDaSHy73yKNLqBh+pvV7KvS1Ij43hyeAGhngW6MCvPXmm2SzWQkVNiGhwkbyW9yefeYZDm3uoswdlLJskXLlpmwOPr2T5N5dJJLySarQtNYkkikSez/iyNN7ZHpmEXO4A5S5g3zd3c2K52QLt51IqLCRfKh45JHFuBraqPCEJVQUq2Y/rpZ+1DHjuXjezbmpf1KtKKRorkpx4dybUMdOxNUSobJZdnwUI4c7QIUnRFVDG0sefVRChY1IqLCRfGn2rrvupHz4ZCp9cphYMXO4/SjfDL5bP5l3XnkRE4jJOOGC3Vsm8PbKF/hO3STKfDNkC2kRc7gDVHojlFdPYdHdd8sSo41IqLCRfKi4ceFC1JAJOHz9Bb95xZdjTf7rpLb1LNLxKIlkUpZBDjKtNfFEkrSOUn3mDFRdpzRnlgCHrx81ZAI33XSjhAobkVBhI9FoFIDrrrsONXgczhYJFUWv2Y9rVD/q2Emcd/FlsgxSiPsqd2jYrEuuQB03BVdLP3Lyb/FztvSjBo9j7ty5cl/ZiIQKG8mHissvvRj1h9NwybHnJSG//ntI3Zk8/tSz8gA8mPdUrvq3ZOlyqmomU+GRmRSlwY9r1AzUUadzxRWXW/dUNFrw601IqLCVfKg49/JrUEeOpWrUDCRUlAaXJ4ByR/iRZxpb1q+Wcu1BkB9ytWnj+/zgeD+qOSRn6ZQMP67jZ6J+fyqzL7xQQoWNSKiwkb25Mm3oliWoodMZ5JPRwaXDj8sXRg1tpWlcB/G9H5FIp9FaGje/CtowSKYzGB/toH58V24Ut/RRlJJBLWHUcVOJLLgPQEbi24SEChvJh4rwLY9KqChF+W2mw9sZHTgfkgY6npDGzQNMa42OJzETBif3zkINa7O2j0rVr6QM8oVQQ6cTuvWxXKiQgG4HEipsRELFANCcq1jUdRK55lYggxGPS7A4QLTWGPE4kCZ89c2o2k6qfJHC/97FAWeFijbCNz8qocJGJFTYiISKgcHhDuD0hFD13cy+6X4gjaElWHxZWmsMbQWKcxfeg6rvxumRqbSlKl+pCN8iocJOJFTYiISKgcN6owuiajq44LYHgQwxCRZfmNaamI4DGS649UFUTQeVMua+pEmosCcJFTYioWLgcbqDqLouZi28FzIpYjou44Y/p1gsZgWKbJJzFt6LquvC6ZamzFInocKeJFTYiISKgcfhCeD0WFM3Zy24G7JpEqm0BIvPyDAMEqk0ZFOcNe8OVF2nteQhW0dL3r6eCgkVtiKhwkb2bSm99TEJFQNI/g1Q1XVx5qwrie/eQTqTkXNCPkUsZpDOZInt2sb4/otQdd37/TxFaRvkC6GGtRO69XEJFTYiocJG9uam/0UW3Ic6biqDWsIFv3HFweP0hlDV7Yyc3MPundutB2U0Jn0Wf0Zrzd6oda/s2bmdxjM6UcOn4/RICB9Iqkb1o44+g7PmLMgNv5I5FXYgocJG8hM1L7pYxnQPRA53gEEtEVRtJz8fcxZPP/8iADohsyzytNboRAKAp557nl+cPhNV28mgUf3SlDmgfDxR85KLZKKmnUiosJF8qJgz50rUUafjlDHdA5LTG0KNCPDNhlbmLLwdM520lkMGeJ9FzDBIZzKYmRRXLrydb9SfiRph/bzkPhlo/DhHzUAdPYarr75KQoWNSKiwkfzR59fPn486djwOOaV0wLL6AoKoIa14+i7iw3WrcgeR6dyZIQOlcmG93mhMA/DBulW4ey9CDW2j0i0NmQOZo6UfddwZLFhwvZylYyMSKmwkHypuueVm1NCJOGQS4IDm9OTON6jv4fu1pzP/tkWQTmACxoBYDtEYWmMCZirO3Fvu4vu1Y1D1PQxqCeOUQDFgOdwBHL4Iatgkbrv1VgkVNiKhwkbyoeL+++6jsnYqld6wrBMLnN4g5Z5+1HGT8Ezq4rVXX4VsmmQqRcwwSq7fQmtN1DBIplKQSfHKypdpntiJOnYi5Z5+nHIw2IDncAeo8IZx1E7lgQful1BhIxIqbMTIHdW89MknOaSpnXJPSEKFoNIdwOH24/CGUHU9HFo9gc5L5rF184dgZkkkU+yNxjCM4g4XhmHt6kgkU2Bm2br5Q9ovvJZBQ8eh6ntweMM4pHdCuK1QUe4OcciIDpYtWwogs11sQkKFjRiGgWmavPTii3zD00tZs4wZFh9zuANU+UJUevtRNZ18z9fNzLm3s33zhwBkstmirFxorYkZBplsFoCtH2xkxrW38r983aiaThy+fut12+B3IOzB4Q5Q1hzgm95eVr78MqZpSqiwCQkVNqK1JpPJsOrdd/nOCSHUSL80oom/4HD7cXqDlI0MoIa1ccQfA1xw4yI2vf8ekME0sZZGYvadcaG1JhazljhMEzAzbHr/PS5YuIjvn+BHDW2jbKS1s0OqE+LPOTwB1Eg/3z0xzJrVq8lkMra91gcaCRU2orUmmUyyfds2fnDa2aimPgkV4m9yuAO4vCHKmvpQw9s53NtJ+/lzeOXll0gZe6zqRSaDjieIGbqgIcMKETFihkbHE2QyGQBSxl5eefll2s+bw/e9najh7ZQ19eHyytKf+NscniCqqZcjRs9i544dJJNJCRU2IaHChhLxOD8adz6qsQenR5rSxN/n8gYZ1BKi3B1E1XfjOG4sw6dEuHTejbz12krIJMG03sTjySTRgzilU2ttTTpMJgGrIkE6yVuvvcIlcxcybEo/jqHjUfXdlLut1+GSRkzxKZyeIKqxl5+cfjbJROGf2eJjEipsRscTpOMxfusZg2ryy7Y58ZnlKxeVvghqRBA1eALf8vXSOKmPa+78Ey88vYzY7l3We7tpQjZNJpMlkUoR05pozCAWi2Hk+jI+LXjk/45hGLlZEgYxrUmkUmQyWchmrO8DxD7ayQtPLeWaO/5Ew6RevuXrQQ0+AzUiSKU3IpUJ8bk4PQFUk5//9pxOOh5DxxMFf3YLi4QKm9HxBNmEQeOYqajGPgkV4vNrtsKo0xex+i6a/Khh0zj02FP47+mXcnrPTObeeAuvrd3IpvfXE9u5FTIpPvnHNE3S6TSJxF9/WCcSCdLp9L7QsO9PJkVs51Y2vb+BV9ds5LqFNzO6eyb/Pf0SDh18CmrYNFST3+qX8EWs67tZeibE5+P0BFCNfYwY14aZ0GgbPLuFRUKFzRg6DqkEY/znoup7cMnyh/iSHG4/Ll+I8pYZqIYe1PA2yuo7KWsO8qOmCdRMCTP1qkXMuOF+rp83lyVLlvDyyy+zbt069uzZ8xfBIpFIsGfPHtauXcvLL7/MkiVLuH7eXGbccD9Tr1pE9ZQw/9Q0gbLmIGX1najh01ANvVS0zMTlk8ZL8eW5PEFUfQ/jgudBOoGhC//sFhYJFTZjaA3ZFOE5N6Jqu2R9WRwwjmY/Lm8Qly+MIxdWyzxhq5JR04kaMhU1ZAJVTe18w9vLd0+McMTps/jR2PP+whGjZ/HdEyN8w9tLVVM7asgE67+v6bQqER7rhF2Hx/p+Lm8Qh1QkxAHi8gZRtV30X30TZNPEpEnTNiRU2EzM0ECG6x58ClXbTZWECvEVcrj9ON3WQ7rKF8bhi1DuCaGaA6gRfajGnr9tRB+qOWANafNFqMqFB2fu6xb6tYnSVeUNomq7mbf4WSBLrMgHv5USCRU2kx/V/cCSJ1F/GI1LTioVQohP8OMaNQN15Gj+tORJGdFtMxIqbCYfKp5+bDFVR51IxaiZ8qlPCCFyHG4/FS0zOeSYk3j2iUclVNiMhAqbMQyDrAmr33qdH/raUc0h2QEihBA5Tk8A1Rzin1o6WPP2G2RNOffDTiRU2IzO7fPfvX0L/3fiLFRjrwzAEkKIHJcniGro5T8nn0905zYSyZRM07QRCRU2FDM0mGmODVyHqu20BhrZ4GYWQohCc3lDqJpOjgvOlSZNG5JQYUPRXF/FaR0hVPV0XHJCoxBCUOnOhYrq6Zze1Q9AVPopbEVChQ3FDAOA2ZdfhaptxymVCiGEoNJtnVyraju4aM61VpOm9FPYioQKGzIMDWaWB5Y+KyeVCiHEJzg8AVRTHw8/9TyYWQxZ/rAVCRU2ZE3VzPDW2vWU106lUioVQghh8YSoqG3lnXUbIJvBkCZNW5FQYUNaa9JZk83vreZntaegPP0yq0IIMeA53H6Up5+f15/GlvVrSGdN2flhMxIqbEhrTTyZJLFnJ7VdF6Ea/bhkCUQIMcC5PAFUQx/1PZeQ3PsR8URSQoXNSKiwqWjMatZsvWg+6ripVLWEC35DCyFEIVW1hFHHTaXt4utzOz+kSdNuJFTYVDQaBeCqOVeiBo/H2dJf8BtaCCEKydnSjzp2PNdePccKFdFowZ/VYn8SKmzKyG0rXfbU0wzy+Cl3B3HY4KYWJabZj6PZb51W6gng9ASt49H3CeHyhqjyfSz/v33y7zk9QZwea83b0eynUo45FweYwx2g3B3kEI+fp555BpDx3HYkocKmtNYkkyl2bN/G4e421MiAhArxJX0cHvJBwTWqn8qWmZR7Iyh3CDUygGrqRTX2ohp6LPXdqLquj9V3f/z/NfZaf39kAOUOUe6NUDlqJq5R/fsCSD5syGm74stwuAOokX6+75nOzh3bSSaln8KOJFTYmE4kyOgow/54BqopIAeLiU+Xqzq4PEGqfCGcvggVniBlI/tQzUHUiCCqrgc1vB01dDrqD2NQR55G+bCJDGqYxmHeHg4/KcIRp87kh6edxY/HzOKn487jFxMv3Oen487jx2Nm8cPTzuKIU2dy+EkRDvP2MKhhGuXDJqKOPNX6ukOnW9+nrsf6vs3Wv6PSE8Tpi1ihwxO0AodUNsSncHoCqCY/1SdPJKOj6ESi4M9o8ZckVNiYoeOQSdJ31a2ouh5cXjlYTOzP6Ql8YmkiiGvUDMq8/ajGPlRNB6p6GmUNXVR6I3ynYRK/HTUBd/dspl15GzPveJLZ1yxg/nXXsmjR3Tzx+GOsfOkl3lu3lg8/2MTWLZvZuWM70b17yKRTpFNJMukU0b172LljO1u3bObDDzbx3rq1rHzpJZ54/DEWLbqb+dddw+xrFjDzjieZduVtuLtn89tRE/hOwyQqvRHKGrpQ1dOsf19jH2XeflyjZlDlC+57LRKgxZ+r8lqBOHDt7ZBNEZMqhS1JqLCx/A6Q2x5+EjV4Iq6WSMFvbFF4ViUigKslQpkn/PHyRH0P6vcncXjdOP5n6mx8Z80jOHMWd9z7AG+t28DWLVuIbv+QrN4LZoa/9SeTyZBOp0mlUiSTSRJ/9okwkUiQTCZJpVKk02kymb/9tTAzZPVeots/ZOuWLby1dgN33Hs/gZnn4D1rHv8zdTaH141F/eFk69+fW14p84RxtURw7Vs6KfzPXRSWqyWCOnYidzyyTHZ+2JiEChvLN2u+uuJpvtM4BeWJSF/FQNTstxoifWHKmwOokUFUbQ9q8CQObWjlV2ecx8ltAebet4RnVjzP6ldfQu/eAZgfv7lnM5jZDKlMlkQyhaGt0BqNxYjlGIaB1no/f+/6/PO/axjGvq8VjcWIxgwMHSeRTJHKZDGzGch+MoCYGLt3sPrVl3hmxfPMvW8JJ7cF+NX4czm0YSpq8CTrdY4MUt4cwOULW9U6WSoZcBzuAMoT5nsjpvLGi89hSpOmbUmosDGtNToeJ6Vj/FfrRaj6blkCGQia/fstazhGnYVq6EMNa6WiuY9fuCcy8fy5XH33Yp5b+jjaiAEmpmnm3qohmUoTy73J2+3huy98GAbJdHpf9DHNLGCijSjPLX2Mq+9ezMTz5/IL90Qqmq3Xrxr6cIw6a/9lEgkZJc/lDaLquvnttIvJJAy0Da5j8ddJqLC5WG4JZEx7AFXTjkvOASlpDrffWtZwh6ylgNpOBh39R46adgFdly3gmRXPs2vnDtLammOSNc1PVB0+rjwUS1e81nq/yka+upHNBaS0jrJr5w6eWfE8XZfdwJHTZlN19MmoWmsnSpk7hKslIkskJc7lDaFq2hnfHbZOJpWlD9uSUGFzMUMDWRbe+zCqoRenRyoVpcbh9n+8tDEiiDpmAt/xdjFkTAdX3ngHr7yyEmPX9lyLQoZkMoWOx4nmlyxscJ0eSDpuVTOisRg6HieZTGHm+jZiu7bxyisrufLGOxgypoPveDtRx5yBGvHxEokEjNLj9ARRDb3c8sASIEtMTia1LQkVNmf1VZi8/c47HDp8LBVe+VRWChxuq6Rb1RKhwtOPqm5jkMfPUWfO4rL5N/HmyhcxzQyQxQQSyRSxmFE0FYgDzapoGCSSqdxySRbTzPDmyhe5bP5NHDnlHAZ5/KiaNiq8/VSNiuDyBnHILpKi53D7KfdG+Ifq8bz77iowTdst6YmPSaiwOa01iVSa2PYPOWpiP6opIIeLFbPm3LwRTwjV0IsaPIGfuifTfflCXn75JVLJOJgZMqZJ1LCWA4ppOeNg3A/7lkoMg4xpgpkhlYzz8ssv0XX5Qn7aPAl1zARUQy+VOe4bVQAAIABJREFUnnzfhQ1+9+ILcXkCqEY/g888G2PHFhKptNwPNiahogjkt5ZOvewm1JBWqnxyuFixcbj9OL1hq1eipptBde0cM2UG82++jW0b37OWNrJZEskkMUPLJ7HPyDAMYoYmmUxiZrMAbNv4HvNvvJVjJs9gUF07qqbb6r3wytJIMaryhVFDWmm9/JbcVtJYwa878bdJqCgCsVgMgEX33INq7KLSI82axcLpCeDyhSj3RFDD2zh0yGhO7p3F8pdeIxu3fq/pTHZAL20cKPklknTGChfZeIzlL73Gyb2zOHTIaNSwNso9EVwyXKu4eEKUNXZx3/33W301ErhtTUJFEdA6TiqVYuuWLXy/aRKqWQ4Xsz8/Tm+IiuYgqqaD7zVOYfrZF/P2669CJkXWJLdrw35bPotdvsnT2kUCZFK8/fqr/7+9+46Pqz7zPf6TNEVOyM2m7N7Npuze3U1yk929N3dTNrmXUFzUJcuaIgOmGWNjS7ZsdclT5Yrp2HRMhwRIANvEEBJ6tU0N7mCKDRh3rDnnTD+f+8eZkU3oMCozevx6vf/Ji9jSzJwz3/P7Pb/noW3RRfxtbTOqsoOShgAOTxCZRzKyWfM+/Hy7vpm9e/cQTyQKrjC50EioyBNGNEba6KexNYyq80ldxQjm8IYododQ5W38XX0LvedfzmuvbMdMxqxVCd2QI3FDRNOs7ZFkKo2ZiPHa9m30nHcZf1ffgipvo9gdwiHbiSNWtp7i5K5FmNEIRlTmfYx0EiryRLau4upVD6LGNVMqLbtHGB9Ojx+7x9rm+Gb1LLqXreDNV7dlGjuZ6J+iS6UYHIZhoBvGQIOwN1/ZSvey5XyjeiaqfB52Twinx3ofh/+zJAauqckLUL+exvV3rJJ6ijwhoSJPZFt2/+X5DXzd1YlyBWULZISwN/iwe0Oomh7sdZ2cEzyPTS8+B5gkkkk0uRGOKJqmkUgmAZONzz/LjOB52Ot7rPfPG8YuHTpHBLvLj3IF+Yark43PPyutufOEhIo8ohsGJOMcO3sxqroLh7TsHuabng+HJzNOfHwT4+Yu5qkNz0EqSTKVklMcI1j21EgqnYZUkqc2PM/YlsWocU2o+gAOT0BOigwzhyeAqu7iuDlLIZVAl4ZXeUFCRR7RMo2wLr7uVlSNjEIfTqWeADZPCFXdw49dM/nt3atJZVpn67qBIWEiLxi6jq4bAKT0fm6/azU/ds1EVfdg84TkGhtGTk8AVdPD8ht/C5hy6iNPSKjII9ktkBc3bWFMZRM2TxjZAx5aDref0sYQaqKfL1U1037RSvbvfhsAIxqVmok8ZQ3viwGwb/dbtF5wLV+qbEbVW++3HEEdWnaXD5snzJcqm3lp8zZroq2EirwgoSKPGIZBNJ4g/t4+xs9bhqrplSepIeTwBCh2hVBlczlu7vmsf/5FMJPEk0mrgEwCRX7LdOuMJ5NgJln//IscO2cZakILxa6QzN0ZQtYqRS8T2s4ncfgARiwugT1PSKjIM5GI1TBp2dU3ocrnyXG4IWB3WcdEVZ2Pvxl3OhdddR1Rrd/a6pATHQUne1IEwIgc5sIrruVvxp2OqpuPwysF0kPB4Q2hyudxwbW3WKc+IlLsnC8kVOQZwzBIp1Jsf+VVvuTupVhmGgwqpyeA0xtGjW/h180LefmlFzJbHTFZji1wuq5jxKwtkZdeeJZfzTkXVd6G05s9fioGS3GDny+5e3nl1R2kUjLrI59IqMhHsTgJvZ+quQulEdYgcniCqHofzpoOfBdeTkyLkEym6I/IgK/RwjAM+iMayWQSQ9eYf8HlOGs6UPW+TEfO4f+cFhqr4dV8aloXkzAiRGPS8CqfSKjIQ5HMLJArb7kDdeJMnI19SMFm7gxsd9T08MP66fz50cchnSIai8vqxCil6zrRWAzMFPc/+Aj/WnsWqqYHhzck2yE5lWl4dfw0rr3pVml4lYckVOQhwzBIplK8/cZr/OMpvdZTkxSR5YS13WHt53r9l/LOmzuOGmIkqxOjm5E51g1vv/Eqbt8lqPJWnN6wFEzniMPtR9X7+KcpPnbvfINEMiWrgnlGQkWesm5uaaZ2L5SeFTm8oRU3BLCPO4e+8y4inbAGufVLkZg4Sn9EI5FIkIpHCZ97ASVjp1PcEMAxAj7D+c7pCaCqe5jWuxhIS2+KPCShIk9lG2H98ckNqAo5BfLF+KzViZr5/IO3l9Vr7wfSst0hPpK1HRIH0qy6dy3fapyPqvVnrkPZivy8HN4QqnIef376OWl4lackVOQpwzCIJZJE9r/LL6f5ULXSs+LzcjZaQ8D+t2sGm7a/OrDdIcuu4uMYhoGW6cb58rZX+N+uGdZ2SGPfsH+m85HTE0DV9vJ/pwfQD+whlpBTH/lIQkUeyxZsnrfiSlR5q6xWfA4OTxBV2cnEpvkcevct0ib090eQ+gnx6Rj0RyKkMTnwzi6qZ3SiKjvkZMjnuRa9IVR5KxdcfrUUaOYxCRV5zDAMUskkb+56i697eihyBaQS/VOyu/zY3QFUZQdzz7uaeP9BEikTTZPlVvHZaZpOIm0SPbSfWYuWoyo7sMv1+JmuxyJXgG94e9j11tukkglZpchTEirynG5EIR1n5sLlqMpOSr3yhPRJHC4/dm8YVdXJwut/D4kosURS6ifEF6LrOvFkChJRFlz3O1R1F3ZvnxRwfgqlXmvFcNbiFZCKoxvD/36Kz0dCRZ7TMlsgjz3yMM7KZoo9cm7+49hdfko8fdh/PYXL7/iDVQxmRCVQiJzQdR3NiAFpLrtzLfZjp2Dz9MkY9U+4JovdIUqrZvP4Y49YNU2y9ZG3JFQUAN2Iko4blJ3RYs0nkA6bH8rh9lPs6cN53BTuvOO3UpApBsXRBZy33nITzuOmUOzpk+vyY65LVdtL5VnzMBNRWaXIcxIqCkD2eOnt9z+CqmjDKVsgH+B0+yny9HHM+KmsWXVPphBMVifE4IlkGmWtuedujhl3JkXePmmp/2HXpjeIqmzjzgcek2OkBUBCRQEwDIN4Msl7e3fzk7OCqInSYfN9Ny23n2LPAr46/iweuP8+qSwXQyZ7QuuB+9by1fFTKfYukGBxFIc7gJo4n/88O0T/vneJyzHSvCehokBkb16X3fgbVEWbHGnLsLv8FLn7+MrYM/jT/WsBpEOmGFL9Eeva/NP9a/nyCadR5O6TuqcMhyeIqmjjiptul7BfICRUFAjDMEgkU+zf/Rb/4pmLagjhGOXFYQ63nyLvQsYcewpr16ySm5YYNtnQf++quxlz7CkUexeO+hoLh8uHagjy/cZWDrz7NomkrFIUAgkVBSQ77GjRpVejyubhHMXNsBxuPw5vGNuvGrnzdqsoMxKJDPt7JEavSGbF4vbf3IbtV404vOFRvWLh9IZQZfNYvOLazIkPqaUoBBIqCog1vTTNG69s5R/qZqFcoVF5lM3u8mPzhFATZnP9dSutLY9+CRRi+PVHIgBcdd0NqLIWbKP0CLjd5Ue5gny3vomdO7aTTKVllaJASKgoMNnViuD5y1ETWkblaoXDE0RVd7HkplVHjS0f/vdGiGj0yDW68Ia7UVWdo7L+yekNoSbMpe/iK+QaLTASKgqMruukTHhz+xa+M7EJ5QqOnr3bBh+ljWFUZQdNi1dAKoYRjRKVJyAxghiGgRGNQSLKOX0Xo6o6KW0MY2sYHauKDre1SvG9hjnsenUrKdOU5nMFREJFAcru3fqWXoQqmztq+lY4MwOJ6mZ2E+8/SDSekJuVGJF0XScaTxDvP0T19A5UWeuoWVV0eoOosnkEz18uxdMFSEJFAcrWVrz1+qt8t27mqKitcLr9qDo//+WZyXvv7iKRkqcfMbLpuk4ybXJo905+7joHVecv+B4WdpcP5Qrxj/VNvP3mayRTKamlKDASKgqUpln7tktWXFPwJ0Gs5dQQX/P0snHbK1JJLvJG9jp9ecs2vubpQblCBb1dmT3xsezKG+Q6LVASKgqUYRjEE0n2vL2Tf5nchpoUKNhpiXZPiJJxM/jd6nuluZXIO9nmWHfcs5qSsTOwewrzAcDh8qMmBfj+SR3sfWeXdM8sUBIqClgk8xR02U13WKsVBVhl7vCGUONbOPeCi639WV2XwkyRXwxjYE7IkvMvQo1vsXqsjIDrK5ecHquW4spbfyezdwqYhIoCZhgGsXiC6KF9/PSchaj6QEHt2ZZ6g6jqHhqDKyCdxIjG5MlH5CXDMIjGYpBK4PZdgqrpobSACqydbj9qYoCfzVpM7PABovGEXKsFSkJFgdMy7YHvXr0GdfxU7JMXFsTRNYfbj5ro48cN57DnrTeIJ5NSmCnymq7rJJJJdu98jR/WT88MBhz+a+0La/Bhn7wQdfxUVt37h0wthWxRFioJFQXOMAyMWIyU0U/ljE5UdVdBbIPY3UFstR388eFH5ViaKBjZGSFr//QQtpp263M+Aq63L8KZaUZXO6uHtBGRFcUCJ6FiFNAz+7VPP/E4X6ppweYO5nVrYKcniCpvI3TRFYAp3fhEQdF0AzDxn7cCVd6W1w8BdpefEneQL9fOZf0zTwHIimKBk1AxSlg3qhQt512FqplPqScw7DeczxcoAqiJPn7dch5xQycWj8tTjygo2VqouKFx7JxlqIk+nHl6vZZ6gqjqXtouWgmk0HS5VgudhIpRQtcNUqkUO3e+yXcmzrKOmObZfq3d5afIHeIrY8/guQ3rrVUKqSAXBShbC/Xc+mc4ZtxUitzhvGtg53D7UfU+vlvfxFu7dpFMptDlAaDgSagYRbKNdq668VZUWUvete8u9YZQ4+ewZMXVMoRIFLzs4LEFl1yFmjAn7xrYOb0hVEUr19x8m9Q9jSISKkYR69hanJR+mLFzz0VNDFDqGf6bz6e6QWWOpP2yaZF1JC0m2x6isBmGQTQeJ3Z4P/81c1FeHQm3tj26qTi7g3RMx4hJceZoIaFilLGKNk3WPfs8X6qYSbE7NOKLNu0uHyXuEPaymTz8xNPS3leMGtnVxQcfexLbhBmUeEb+Noi1TRnkmMpZmW1KKc4cTSRUjEJW0WaS3ouvRVV1jfgmO6WeAKqqm9bzrwGSUuwlRhVNN8BMMnfZlajqnhFfZF3qDaKqugisuF6KM0chCRWjUHYuSP/+Pfz8pNmo+pE7HdHh8qEaQvywfgb739lFIilTDcXoYhgGiWSKfW+/yb/WTbOGjo3Q1Qqn2zqd9V+ntBA5uI94QjpnjjYSKkapbHX5Q489gb1q7gjtXeHD0RhGjWvmhtvukGIvMWplm2Jdd8tvUOOacDSGsY2wYGF3+bG5Aziq5/Lw409J58xRSkLFKJatLu8ILUaVt+NsHFlDjJzuAKqmh7HNfaS09zCkOFOMUlZn3DiJyCGOnxVC1fbidI+sbRBnYxhV3kZX31IZGDaKSagYxaxl1SSH9u/lp2f0oOp6cIyY/Vofdk+I4vpenly3QY6QilEvW7T5+NPrKKrvzYxIHxmrFQ5PAFXXzc+m9nLowD4SMtZ81JJQMcplt0GeePjPOKtaKPb2jYjqcqc3hCpv5czuhUBaAoUQ0ezqYprTOvtQ5a0joneF3eWjyNNHafVcnnrkIdn2GOUkVIiBJ6DgiutRY5uH/UZl3aTCfKV8Oi8/twFTjqQJQTR6ZI7PSxvWcUzZ2RSPgCOmTm8INa6ZvstvlG0PIaFCZGYNJBJED+3juObFqIn+YZ014PQGURVtzAmeK0fShPgr2Tk+swOLURVtw9oZ1+kJoOp8nNiylNjh/UTjctpjtJNQIYhGrdWKtGmycfMW/nv9XIom+bAPwzHT7HyPr1fPYtNLL8gqhRB/Rdd1TGDji8/ztaqZFLmGp4Gd3e1HTfLzrYZWNm3ZStpMS1M6IaFCHJGtr7j5lltRZXOwD8PSqtMTQFV2MG/BBdI5U4iPkN2ynB1chqroGPKVRbvLh80bRk1o4bbf/FbqKMQACRXifXTDAEyall2NquqkdAjrK+wuH0XeBXyzZhavbNlE2jRlqqEQH0LXDUzTZNvmjXy9aiZF3gVD+gBQ6g2hqrqYff61gFyn4ggJFeJ9rG6bCSIH9nDcqS2omh5KvUPzFOT0hlET5jA7uNQaay61FEJ8JKu2wqTJvxg1oQWnd2j6zJR6A6iabk48sxXt0F7pmineR0KF+IDsNshLL7/MN73zUQ2BQd+ztbv8lLgCfKm2g2fXyxAiIT5J9iTIs+vXMaa2g2LX4F+nDpcfNSnA3zb62bhpE5imbHuI95FQIT5Uti3wnavuRU1owjbI/SucngCqupvGwApIJ2Q5VYhPQTcMSCXw+C5FVfcMam2FVUfRh5rQxF1r7pO2+eJDSagQH8mqr4C+pctQx02ndHIftobcBwu7y4/dE0JVzuPBJ5+RAk0hPqVsweafn3gaVTkPuzc8OKsVDT5KJ/ehjp/BwvMutK5RCf7iQ0ioEB/JMAz0aIyU0U+j/1JUde+gnIl3eqw92gnNfcS1w+gj4HcXIj8Y6NEo8chhxjWFUTXdg7Ja4fQGUdW9NAaWkzIi6NGY1FGIDyWhQnwsXddJpFIc2PMOP5nSjqrz5TxYODxBVFUnoYuvBKBfVimE+NT6M6sVgQsvR1V14vTk9vp0eoOoOh//eVoHB/e8QyKZknon8ZEkVIhPlF1i/cvz6/nOhFMpnuTL6eAxu9tPcYOPL3v83PPIM4BpBQt5EhLioxlGJlCkufvhp/myx0dxQ26b1jk8AYom+fhu2WlsfGGDbE2KTyShQnwqkYhVuPmntWsoLZ9FkTuMI4dPQ3Z3gOJ6H876Xu780+OZs+9RCRZCfBjDQDOigMntf3wUR30PxfU+7Dkch+5w+SlyhxlTPos/r11jFWZGIsP/u4sRTUKF+NQimRWLq+78A6qyFbs3lNMTIQ53gOJJfsbU93DT6j+CmUIzorJ3K8RRDMNAN6Jgprhx1R8pre+huMG6fnIW8l0+q3i6qo1r77pfBoWJT01Chfj0DAMjGoV0nMCFV6AqWnE25vZEiMPtp6TBj622k2vuWAWkiOgGhiE3NCEMQyeiG2AmueK2u7DVdlLSYF03uboGbQ0+nI19qMpWQpdcZR3xjkaJRiXci08moUJ8JtkTISRjzOpdgJowB+fkBbkNFh4/dneQ4toullx+HSRjxOIJKQ4To5qu68TiCUjGWHTZSopqOrG7gzg8uQ0UjsYFqAktzPEvglRcTnqIz0RChfjMrJtbkrh2GPfUZtSJTZRODuc0WNhdfuzuEGr8HGb1hEnHdBLptHTvE6OSpmkk0mnSMY1Z3SHU+NnYPTmeTprtRXFiE+6pTST0fmLxBIaEefEZSKgQn4uu66TSaQ7vfYdjp3ajKrspzfFRU7sr89R04kxqzunk0MEDmGaaSESChRg9IpqGaaY5dHA/lS1h1Ann4GjM/QCxUm8IVdHJCVOaiezbTSqdltVB8ZlJqBCfm6ZpJJMp9rz7Lj9rPg9Vk/s2wXaXjzEn9aGquvhZ07m8un2rtAcWo0a2Xf6r27bys1lLUdU9jJmc+5b5Vpv8Hn4++zz2vLubRDIpq4Lic5FQIb4QTddJp1K88cbr/NvUMKqmN/cd/Rp8lHqDqLr5/HBKL089/pg1cMwwZK9XFCQj89kGePzRR/j+lB5U3XxKPcGct8q3Otr28L+mLWDXzjdJp5JoskIhPicJFeIL03Qd00yzfdtW/m1aX+bml/tWwQ5PANUQ5KvjzuTq62+GdJJoLC43QFFQNF0nGo9DKsmV19/MMSeejmoI5vTI6MCWhyeAqpvPv09bwKvbt2GaabmexBcioULkhJYZw7xl8yZ+cLp1oxrjzf1N0O4OUNIQQFW207z0coyDe0mZJv1SZyEKQH9EI2Wa6Af2MHPRClRVOzZXIKdNrbLGeK3r9IenB9i6ZbPVLVMChfiCJFSInBlo5/3Si3z/lF5U7fyctvM+Eiz8OL1hVEUbx57Rxiuvv5G5Icp2iMhPhmGg6dZ2x/bX3uD/nd6KKm/D6Q3ntO32+7c85vP9U+bz8l9ekuZWImckVIicyq5YbN60ke+f6kPVzs/5gKOB7RBvCFUzn++eHGDtA38GTGKJhDxtibyiaRqxRAKANffdz3dO8qNq5g/KRGArUARRNb384DQ/mzdtlBUKkVMSKkTOZVcstm3dzP88M5jZChmkYOH2UzQpQGl5M+FzL0Tvf49kKkV/RJNVCzGiGYZhbXek0kTeO0j38ptwljdRPCmQ2w6ZWQ0+xniDqLpe/n1aH9u3bZEBYSLnJFSIQZE9CvfK1s38x1l9qOru3J8KyQYLTwC7O4gaN4djz57Plsw0RV3mhogRamB+B7Dx2Wf4f9N6UWXt2D2hQSnItDX4cHpDqOoe/te0PjmaLQaNhAoxaPTMHvHbu97k57PORVX1UDo5t7NCsqxGWX2oynb+pm4uV99+D8QNktKFU4wwEU0jmU5D3OCq397NV6tnoyraceZ4QN/7AsVJC1AT5vGLWUt4+61dYJqy5SEGhYQKMag0XSedTrPvwEHKprWjxs6i9ORFg3PzdGUmnbrCqHFNnOy7gHfe2mU9kemG3ETFsNK0zDAw4O233uIk/8WocU2UuMODUtCcDdulJy1EjWum6tRzOLjvXdIm0ilTDBoJFWLQaZpGPJWmf/9uPGfPQU1owe4ND2Kw8OGcHEZVdfPDKd2suecuSCdJplJyMxXDwmprnyKdinPXPav4wZRuVFU3zslhHIN0HdhdPmyeEKpsLpNnzqN//x7iyZSs3IlBJaFCDAlN14mn0sS1w7SEzkVVtWH3BHM7EOl9fDi9QYom9mIbN4NT/Rfy2ps7IZ2ShlliyGi6TjQWBzPFa2/uZIrvAkrGzaRoYvZ0x2AFCj82dxBV1c68BeeR0PuJJ9PougQKMbgkVIghYxgG8UQCUnEWXnYdRdWd2BsXDloBp81l9bRwePtQVd38vaeLq264hWTMIJFM0h/RZOVCDApd1+mPaCSSSRJRnStvuJm/93ShqrtxDFLviSynJ4Ddu5Cimk6WXHkjpBPWtFEpWhZDQEKFGFK6rqMZUTCT3Lr2IasF8cT5OAapl0X2qW1MYxB7gw9V0U5Fy0I2v/gsAIlkUoKFyCld10kkkwBsen4DE5pDqIo27JkjnfaGwQsUDk8QNXE+x4w9nVvXPgxmEs2IymdcDBkJFWLIGYaBlhmW9Nif7uMfq6aian1WsdognAw5etXC7g2jKjv4am0LgctuZP++vQDE4gm58YovRNd1YnErTOzd8y7+y27kv9W0oCo7rBqiQVydsDf4rC6ZtfP5p5ppPPnwA9axaukyK4aYhAoxbLLdN1/Z/DK/mNqLqp6Pc/KCQStcO/ppzpof0s0PvPO4+dZbiRsRTEx03ZBwIT4TXdfRdQMTk5jezw033cT33S2oym5KGgKDugpnc/lxZI9TV/Xyy2nzeWXLy9IlUwwbCRViWEUiEVKpNP0H93Oq/0LUsWdia1wwaCdDBm7Ebj9jGkMU1/tQZS2cMDPIY089A6RIptISLMSnYp3qSAMpHnn8KY4/J4Aqm0PxJB9jGkOD0xnz6BUKlw+bdwHq11M5PXQJ/QcPWB06I5Fhf23E6CShQgw7XdeJJRKYMY1F51+MvayZooZg5glv8MOFwxtCTQoyZsJ0ZvmXsOWl58FMW+f5DVk+Fu9ndcM0SJuAmWbj8xs4J7AM54QZqPogDu/ghwmby4fDE6RoUhBHeTNLLroU4rps44lhJ6FCjAiGYRCNJ4A0ax54iG+f7ENVtlPaOHj9LP46XJS4Q6iyVr5afjazg0vZumkjJOMkkik0TZeb9Sin6zqappNIpiAZZ9uml2kOLOG/jZ+KKptHiXsowoS1OuH0hlCV7XznFD/3/ulhwCQaj0sAFsNOQoUYUbKtvV/duony6V2oqi7rCN4g36htLj+2Bh8OdxCbO4yqaOcbVTPoXHoJO7ZtAUwSyaQ0DhqlNE3LnOgw2bFtCx1LLuHrVTNQle3YPGHrczOIRcZHAoUfhyeMquqifHoXO7ZtHijIHO7XSIhoVEKFGIGysxEiB/Yy96LrKR43g6J6a5tiqG7cTk+QEk8fqqKVb02aTfiSq3l35+sAmKaJLsf0Cp6u6+hGFNM0Adj95g5Cl1zNt+pnoypaKfH04fQEh2Qlzdbgw+ENUVTvp3jcDOZdfAPagb3WdSJBV4wgEirEiKTremY7xOT++9byLyd3oyracDYOXlvjD4SLBh8OT4giVxBV3sb3vB3MDS9j68a/QDJOKp1GN6yZDrLsXBgMw7C2uowoqXQaMxlny8a/MDd0Lt/1tKPK2yhyBXF4QtiHIODaXNbpDmdjGFXRyr+e0s39963NbHdI/YQYeSRUiBFNz/SzeHPHdmrPbs0sN/dR6g0O2U09WxRXPMmPqmjnm+Vncday63js6XWk4waYaaKxOP0RTQJGHsoGif6IlmmpnSYdN3js6fWctew6vlk+FVXRTvEk/5AUDx8daku9QWyeMKqynYYZ83j79Vet46LyGRMjlIQKMeJpmkYybZIy+rnyd3/gq9VNqJpuHI19Q7P0nH1idPuteSKePlRZOyU1HYxvDnPXmrVEDu7PbI2k0aPW6sVwv27i03y2dIxoFNNMW9NsD+7nrjVrGd8cpqSmA1XWTrGnD6c3OCRFmAOBItt7oqabr1Y3c9Xv1pI2+kmk0lLXI0Y0CRUiL+i6TjQWs1ofv/AsJ85ehDrhHGzu0KCNjf64J0inJ0iJy+pgaBs3kx9NX0zPpdezfctmzLgx0AJc0w35EhhhNE1D042BVtpm3GDblk30XHo9P5q+mJJxM1G18ylxBaw5GkO2IpYJr56ANQzshJmcOGcRmzIt5aOxGIZsd4gRTkKFyCu6rmMCxuEDLL3kcr4yqRNV3c2YyWGc7qENFzaXtd9t84ZRNT2oyk6+UdOEt+8qblu1lv4DeyGdxAR0I0p/RCOi6RhGiLokAAAQ1ElEQVSGfDEMJcPQiWS2N3QjigmQTtK/fy+3rVqLJ3wVX6+eharsRNX2YPcOXd3OgAYfTrefMZPDqOouvjKpk3MvuRzj8EFM6Y4p8oiECpF3NE1Dj0YBk/Xr1nHcmW2oqi5KJvkGdeLpR65cuKx/d4w3iM3bh6rupqSui/84aS4Lrvsdjz/+BDEjApiASTyROZoq++KDy7BWieKJ5MBrHzM0Hn30MfpW/o7/mDyXkjprcqjN28cYb9BamRiGQOHwhChuCKCqujh+agfr168DzEwhsKx0ifwhoULkJcMw0HQd0zSJHD7ExStv5h8aWlHVPdg9IRzDsGqRDRil3gB2TxDVEEBVdDCmag4/bVrGuVffxIaXt3Joz9sApFNJ4onEwBeHFHjm4DOhWasR8XiCdMra3ji05202vLyVJVfeyH82LaO0shlV0UFRg/U+lQ5HkMhwZIfclc3j2xNnc8n1txE5/B6maaLpUvQr8o+ECpHXrKOncQC2v7qDU4OXYKuaS/HEXmv2wjB8Ufz1CkaJJ4yq6UbV9GAvn83PZy7Af8WtPPfiXzi4fx+pmDVYLRqPE9H0DA1dvlQ+kmFYg9+Ofr2yn4NUVOfggX08++JL+K+4hZ/PXIC9fLa1RVXTjc0bHp4ViaPDhMvPmMYwxRN7sNW0cUb3Ql7bummgdkKOiop8JaFC5D3DMOiPaFb75FSCu+76PT85cz6qvDNTyDk03Q4/OlxYzbTGeAM4GsOoiT5U2TxsLj//093E3AtXsvqeu9m7++2BEyQAqXR6oNBTwsWR9zpbaGkN8gLTTFnjxt95i1V338XcC1byI3cTNpcfVTYXNdGHozHMGG8g06xq+IKmtdURxOYKocra+T9n9HDP3XdDKkEimaI/Iu+1yG8SKkTB0HXreCDAewcPsOTa2/ha1SxUWRslnjDOITwS+LFPqZkhZkWTfKhJQVR5O7YTz+J7087lxGld9C2/hsefeoZ9O3dA2vrCxExjplNWPYZhFPxKxpGVCA3NMIgnkpjpFGQCF+kk+3bu4NENL9G3/BpOnNbF985aiu2Es1Bl7ahJQYoyXSiH8ijox3G6/daqVVkrX69uYuk1t3H4gHUU2YhKh1ZRGCRUiIJjFeclANj8lxeZ2hXGOXYaqtZ6SrSKOYdv5eJoA1sk3j5UXS+qugtV3YXtuDP4t9O6mbjgBhZfeiVPrn+OPXv2EHtv35EvViCVSmFEoxjRKJpuENF0q64gDwJHNjhomnUqRtONgd8llUoN/I6YaWKH9rFnz7s8sf45Fl1yBRMXXM+PT+2iZPwsVHW39brV9VLi7Rv2rY33s95fhyeIqvVROv5szu5ZyNaNLwEQTySkEFMUFAkVoiDphkG/ppNMpSAZ48l1G6juupCiqlZUbS92b2gEffEcCRel3iCl3iCOxgXWKkZVJ6qylSJXgL+ta6JsejftK1dz2a2/54E/rGHnzp2YiThmIgZmKnPKAdKmaX1hZbZPdF0f1qCRDRDZEKHp1upD2hxIDmAmMRMxzEScnbt2ct/qe7j0pjtpu3Y1E6Z3883aZopcAVRlq/W6NARxNIYHXrORFSas99TuDaFqeymqaqW660KefvZ5SMVJplL0azr6CA9+QnxWEipEQdN16wnYNE3iUZ07Vv2B/zrbT3H5XFS9H3tjeMQsj79Pgw+H20+pN4DTG8LuDlDsDqHqA6jKLtS4JsZUz+FbZy7hV2d2MqM7zMW3rWbNUy+x7olHeW3rRrSDezNB4+g/prWlkkqSNk2S6TSJZJJ4Ikk0FseIxqxhaUYU7X2FkB+kZQZu6UYUIxojGosTTyRJJFMk02nSpgmpZGYLx/yrHyNF5MBeXtuykXVPPMrqp17k4ttWM70rxC/P6ORbZy6htGo2auws6/edZP3+drf1epR6AyPzfXMddaKj3vqc/fJsP79bvZZEVCdtmmi6IVsdomBJqBCjwtGnROL9h/jt3Wv4P1NaUeOaUZMCOLyhTPOskfOk+0E+HC4/pR6r4LPIHUJN7M0s/3dbzZvGz8Nx3Cl8xz2PnzYtpTy0ktPmdOJbuJSrbr6dNQ8+zoZN29m+611e376V3W/s4MA7u4gc2Esi8h5mTINEFNKJDwaBD/wxrf8uEcWMaSQi7xE5sJcD7+xi9xs7eH37VrbvepcNm15hzYOPcdXNv8W3cCmnze6kPLSSn85aynfc83D8+hTUhHnWz5/9Xep6KfKEcTRa2xmOzO8//O/BR783Trf1OVKTAqjxzfznlFZuv2cN8f5DmVMdcQkTouBJqBCjilXMabX7PvDu26y45np+ckorqqzFGq/eGB5RS+ifht3ly5wwCVDqDWFrXIhyhVB1861tgrJ5qIpWVE0namIPJQ0+bA0+vnm8lx/WTeUXp7VRNrsPb2A5Zy65lukX3kzzitvpvm4NgVsf+Ejd162hecXtTL/wZs5cuhKv/1LKZvfxi9Pa+GHtVL55nAdbw3xKGnyoiT3Wv1/Rav08VZ3Wz+eyft5SbyizfeHPy9ff0RimqN6PKmvhJ1PauGzljRzc806mCFOOiIrRQ0KFGHWMzOmJWMJ6Gj+0ZzdX3nALP5rcYi23Z+c+jNDl9U/8kstsnTg9AUo9QZxe61itwxPEflRTsCLvApQ7bNVuTPShajOrHlVd1qpBeQeqrO2jlXdY/12V1ZVS1fZaf8+kIModpsi74MjP5A4M/AxOb8j6uTzWFsZQz9bIFafbPzD/RY1t4seT53LlDbdyaM9uwCQWTxCR48BilJFQIUY1TdeJZwZLHXhnF7+5azXHN4Wx13Sg6uZbe/jD3dtgsDT4rKdsV2YCq9saoJVV6gkOFEF+qEwwGOC2QoLDlVltyNOw8HGyPUfs7oD1+ajp4PimML+5ew0Hdu+ytteSSZnVIUYtCRVCRKPoevYYqklcO8yqPz7I+LlLKa7rQlVafS6yX6QFGTDExwaJbMAq8YRRlW0U13UxYd5SVj/wEAn9sPW5SSTQdTkeKkY3CRVCZBiGjqbpRGNxwCQR1dnw/Auc3dPHN2qbURXtqLpebJ4RemJE5JzD7cfmCVs9RCra+UZtM2f39LHh+RdIRHXAJBqLo8n0WSGIRiVUCPFBmWFl8XjmBEQywfZNL3Putb/hR2cvxjahCVXTS1GDH4cn07GxAJf6R6VMPYrDE6KowY+q6cU2oYkfnb2Yc6/9Da9s3gipzIpWPG5tc0jNhBADJFQI8TGspk2G1XMBE+29g9y1ajXV8xZSOqkbVT4PNdGP46SFlGbqCvLt9MJoZ88cBy31BHCctBBV50OVz6N0Ujc1rYu4a9VqtPcOAiZp00TXDSm+FOIjSKgQ4lPQdN0a9pQ5jpowImzd/gqLll/Dz84OUvzr0zKnH3qxe0J5e3JktHG6/dg9mX4ftb2UHHc6v5zZx+IV17B1+yskjMjAsdD+iCYFmEJ8AgkVQnxGmmb1ukilrFMj7+15m7X33c8ZgQv457MWYS+fg6rxUdTgxzZwekRWL0YCqx16EJs7gGrwo2p82Mvn8M9TF3Fm4ELuu/9++vfvtuaqJJMY0ZhVZzMCPndC5AMJFUJ8AdbwsiRmpvvkgXd2ccfaBzmlZxl/52qluLYLVdFOkXvkzqgoZH89U6XIHUZVtFNc28XfudqY0ruMO+97iAPv7Mr0CDWJyZAvIT43CRVCfEHZEd39mk4sbk1HTRkR9uzdy92r7+XURdfwT+65qKpOiqo6UNVdFLnDOL3BzCkSCRi5lWn+5Q1arcyru6zXvbKDf3LP5dTF13D36nvZu3cv6ai1vWE1qtKlWZUQX5CECiFyyMicHDFiMZKZplpmMs47b77Goy9sIbD0Qn42PcSXa1pQ41pQVT2ouvnWSRJvmFIp9PzM7G6fVWTpDVsnNurmW6/ruBaOqW3hZ9NDBJZeyKMvbGH3ztcxU1bwSyaTGLGY9X5JkBAiJyRUCDGI9Mwkz5RpAtbE0LgeYf2Tj3PtfU8ya8El/I+Tuiiu70GdOBNV0YVqCGFzBwdaW5d6gnJs1eU/Mrn16Jbj7iCqIWS9bifOpLi+h/9xUhezFlzCtfc9yYanniCu92cGoKVImaY1WVUKLoUYFBIqhBgC2lEjw41oNHNEFdIxnUMHD/LwI4+yZPlVeBeu5Pv1MyiqakXV9qAq26zZGpMC2CZbg7fyeV7GZ16FGBgBH8I2eaE1AbTK6nKqansoqmrlB5Nm4F10HUuXX80jjz7GoUMHScd06/U1TfRo9Mi4dim6FGJQSagQYhhommYFjFiMZDIBmZBhxqPs27mDF7ft4LbV99MeWMCv513A907uxX7sKajxc1E1mcFddb2oSX5K3CGcjeHMikbgyOyNERAKPjE0DMweyQw/awxT4g6hJvmt32+iz/p9x8/FfuwpfO/kXo5rvYB2/wJ+e+8DvPzqG+zduQMzEc1MYzdJJhIYsVgmREjBpRBDSUKFECOA1SJcw4jFBhptkTlRkoobvL51Ew//cS3Xrn6I2UtWcMLJM/juGQv42kkBbFVzUGObUBWdqJoe1KQARZ4F2NxB64s7s43i9IasCaHeI4PAHH81BCzrU2+1NPje9//LDidzHDWcrNR75N9+36RUd5AizwJr9aGmx/r5xzZhq5rD104K8N0zFnLiyecwZ8llrFz9IA8/sJbXt20iFTcy2xnWa5ROm1ZthKZJq2whhpmECiFGEMMwBlYxsnQjRiqdznyRpjETMZKGRn//YV7euJFVd/2eC1beSuvKe2kMLOeXZ3Tw7bGN2KvnWYWLtV2o6g5URavVAbSy0xpVXteLqvehGoIod4hibx8ljQuxTV6E/aTF1uqHN/ARU0oDOBvD2E9ajG3yIkoaF1Ls7UO5Q9bfV59ZSanuzoxRn2f9+9UdqNouihr82Kvn8e1xk/nVGR00BpbTet29XLDyVlbd9Xte3riJ/v5+koaGmYgB1u+fSls1EUe/Ppqc2BBixJBQIUQe0HXryzOSKfw0ojFisRjpgbABmGmS2nsc2P0WO1/dxpYdb/DI+he55ferOXf5VbTPDzKlNUDlgps4ofsyfj57Gf9+Vph/PqmLv6+fzdcqpvPlcWfgOO4Uin7RgBo7M1O/0I6q7DhKu/W/j51J0S8acBx3CseMO5OvVUzn7+tn888nd/HvZ4X5xexlnNh9GVULbmJKW4B2X4hzl1/FLXet5pENL7Jlx5vsfHUbB3a/RVI7DGZq4FdJp9PEYjGMaMwKEZnfXwoshRjZJFQIkces2SRWfwVNN4jG4sST1ikH0ikwjwodR/1Jx3QiB/ayd9cbvLF9M5tffI7nn3mSdY8/whMPPcBDa1ez9rF1rF6/hTXrNrJm3aajbGT1+i2sfWwdD61dzRMPPcC6xx/h+WeeZPOLz/HG9i3s3fUGkQN7BwomP/DHTEM6RSptEk+mrEmfukEkExxk5UGI/CShQogCZhjGQPDQNO3Iakc0SiyeIJEJIOaHf/V/5j8mkDJNEskUsXjCOnlx1L+dDQwSGoQoTBIqhBiFsl/s2cBxdOgYCB9H1S18lL/+/2T/rqP//uH+XYUQQ0dChRBCCCFyQkKFEEIIIXJCQoUQQgghckJChRBCCCFyQkKFEEIIIXJCQoUQQgghckJChRBCCCFyQkKFEEIIIXJCQoUQQgghckJChRBCCCFyQkKFEEIIIXJCQoUQQgghckJChRBCCCFyQkKFEEIIIXJCQoUQQgghckJChRBCCCFyQkKFEEIIIXJCQoUQQgghcuL/A+7KbEkQ1DJbAAAAAElFTkSuQmCC;" parent="1" vertex="1">
          <mxGeometry x="109.98" y="480" width="100.03" height="70" as="geometry" />
        </mxCell>
        <mxCell id="sfCNAD6d5CcduHhw_1o2-100" value="" style="endArrow=classic;html=1;rounded=0;startSize=9;endSize=6;edgeStyle=orthogonalEdgeStyle;jumpSize=5;entryX=0.238;entryY=-0.114;entryDx=0;entryDy=0;entryPerimeter=0;exitX=-0.03;exitY=0.614;exitDx=0;exitDy=0;exitPerimeter=0;" parent="1" source="sfCNAD6d5CcduHhw_1o2-76" edge="1" target="sfCNAD6d5CcduHhw_1o2-109">
          <mxGeometry width="50" height="50" relative="1" as="geometry">
            <mxPoint x="100" y="520" as="sourcePoint" />
            <mxPoint x="50" y="690" as="targetPoint" />
            <Array as="points">
              <mxPoint x="50" y="523" />
            </Array>
          </mxGeometry>
        </mxCell>
        <mxCell id="sfCNAD6d5CcduHhw_1o2-101" value="&lt;font face=&quot;Times New Roman&quot;&gt;2. Create file called athletesID.txt&lt;br&gt;&lt;br&gt;3. Fill with athlete &lt;br&gt;ID&#39;s from strava.com&lt;br&gt;&lt;/font&gt;" style="text;html=1;strokeColor=none;fillColor=none;align=center;verticalAlign=middle;whiteSpace=wrap;rounded=0;" parent="1" vertex="1">
          <mxGeometry x="-65" y="555" width="90" height="90" as="geometry" />
        </mxCell>
        <mxCell id="sfCNAD6d5CcduHhw_1o2-102" value="&lt;font face=&quot;Times New Roman&quot;&gt;4. Save to the same folder which contains&lt;br&gt;strava_scraper.exe&lt;/font&gt;" style="text;html=1;strokeColor=none;fillColor=none;align=center;verticalAlign=middle;whiteSpace=wrap;rounded=0;" parent="1" vertex="1">
          <mxGeometry x="-60" y="678.8100000000001" width="85" height="68.25" as="geometry" />
        </mxCell>
        <mxCell id="sfCNAD6d5CcduHhw_1o2-109" value="" style="aspect=fixed;html=1;points=[];align=center;image;fontSize=12;image=img/lib/azure2/general/Folder_Blank.svg;" parent="1" vertex="1">
          <mxGeometry x="40" y="683.88" width="42.04" height="34.12" as="geometry" />
        </mxCell>
        <mxCell id="sfCNAD6d5CcduHhw_1o2-110" value="" style="html=1;points=[];perimeter=orthogonalPerimeter;fontFamily=Times New Roman;" parent="1" vertex="1">
          <mxGeometry x="82.04" y="654.74" width="10" height="87.07" as="geometry" />
        </mxCell>
        <mxCell id="sfCNAD6d5CcduHhw_1o2-112" value="return athletsID.txt" style="html=1;verticalAlign=bottom;endArrow=open;dashed=1;endSize=8;exitX=1;exitY=0.95;rounded=0;fontFamily=Times New Roman;edgeStyle=orthogonalEdgeStyle;jumpSize=5;entryX=0;entryY=0.75;entryDx=0;entryDy=0;" parent="1" source="sfCNAD6d5CcduHhw_1o2-110" target="sfCNAD6d5CcduHhw_1o2-93" edge="1">
          <mxGeometry x="-0.0679" relative="1" as="geometry">
            <mxPoint x="152.04" y="744.07" as="targetPoint" />
            <mxPoint as="offset" />
          </mxGeometry>
        </mxCell>
        <mxCell id="rF6UAwLea4RSJ0UKlpxq-8" value="1. Configure" style="html=1;verticalAlign=bottom;endArrow=block;rounded=0;edgeStyle=orthogonalEdgeStyle;entryX=0.33;entryY=0.059;entryDx=0;entryDy=0;entryPerimeter=0;" edge="1" parent="1">
          <mxGeometry width="80" relative="1" as="geometry">
            <mxPoint x="210.00999999999976" y="488" as="sourcePoint" />
            <mxPoint x="314.14243194444407" y="509.6418197685184" as="targetPoint" />
            <Array as="points">
              <mxPoint x="314" y="488" />
            </Array>
          </mxGeometry>
        </mxCell>
        <mxCell id="rF6UAwLea4RSJ0UKlpxq-10" value="Use" style="endArrow=open;endSize=12;dashed=1;html=1;rounded=0;edgeStyle=orthogonalEdgeStyle;" edge="1" parent="1" target="sfCNAD6d5CcduHhw_1o2-92">
          <mxGeometry width="160" relative="1" as="geometry">
            <mxPoint x="376" y="540" as="sourcePoint" />
            <mxPoint x="400" y="557" as="targetPoint" />
            <Array as="points">
              <mxPoint x="376" y="600" />
              <mxPoint x="376" y="600" />
            </Array>
          </mxGeometry>
        </mxCell>
        <mxCell id="rF6UAwLea4RSJ0UKlpxq-11" value="" style="html=1;points=[];perimeter=orthogonalPerimeter;fontFamily=Times New Roman;" vertex="1" parent="1">
          <mxGeometry x="82.04" y="759.0900000000001" width="10" height="87.07" as="geometry" />
        </mxCell>
        <mxCell id="rF6UAwLea4RSJ0UKlpxq-13" value="return URL for each activity " style="html=1;verticalAlign=bottom;endArrow=open;dashed=1;endSize=8;exitX=1;exitY=0.95;rounded=0;fontFamily=Times New Roman;edgeStyle=orthogonalEdgeStyle;jumpSize=5;" edge="1" parent="1" source="rF6UAwLea4RSJ0UKlpxq-11" target="rF6UAwLea4RSJ0UKlpxq-72">
          <mxGeometry x="-0.238" relative="1" as="geometry">
            <mxPoint x="608" y="639" as="targetPoint" />
            <Array as="points">
              <mxPoint x="92" y="843" />
              <mxPoint x="236" y="843" />
              <mxPoint x="236" y="810" />
              <mxPoint x="400" y="810" />
              <mxPoint x="400" y="639" />
            </Array>
            <mxPoint as="offset" />
          </mxGeometry>
        </mxCell>
        <mxCell id="rF6UAwLea4RSJ0UKlpxq-18" value="" style="shape=image;verticalLabelPosition=bottom;labelBackgroundColor=#ffffff;verticalAlign=top;aspect=fixed;imageAspect=0;image=data:image/png,iVBORw0KGgoAAAANSUhEUgAAAIEAAAAlCAYAAABlLYqoAAAIAklEQVR4nO1abXCU1RV2QhKipZKUlnamYp2Og9jS0oqDMtaxtGIdm+wGyAeQClKSAAGJCVIaCGLBAoUwkEBEoFIIdChQ05RAGRSklQEMg0G0WD4SktB8bcjXLtkF5J7z9Me7u+9u7n3JLrwJP/o+M+fP3ueee849z3v2vXf3Plj4v8d99zoAC/celggsWCKwYInAAiwRWIAlAguwRGABlggsoC9E0NUBbq7p9WX6AnyyrM9yobJ1fbIO0Esi4M//CcofC8oZBTF5MIQ9GsLeHyJjKGh5EqgwHXS4xM+nwyWgnFF3ZeyoDY2bPxa0PAm8axn48qdh5UXZT4LWTdfzNFozIDdpbwzmcMU+nVOxD8IWFXZ8dwpTRcCOWlDu0xCJMRAJkSBbJERCP4j4CM0S+oFsURC2KAh7f1Du06AjO0AfbAPZIu/KuLkmJJ4WV5QmzMQY0PpMsKO25+QqyrX5tiidzwxaliivMXmwoRsqypD5EweBmy7rnEXPQ8RHgFYk321JQoJ5InB3gt54ESIhUi96T5YQCTHufohtC0OfY2DcXHNnc+3REBMG3F4I7k5QzlP+OVSU6R/i+guKvPqBdy+X3LCjFmLSN+TYS/IBZo1TUa49JPER3m5w1rQSGcE0EfCeFSB7dPjF2zgb9P7WeycCn80abpgblRfrhYmPgLD3BzvqvIMEKviV7C/tWzrH52fDzODOGB8BkRIHdDp0zuJfBI3T68+YVSJDmCYCWp6k3Fz6XTx4Wx5odRroN88Gj80ZAbQ3gT7Ydu9FkBAJrvlMTszdCTHjcXm91Wk6p71R2Q1owyw/hc8d074mu/vZvlDvAqcOaJ0pkGOLAp86YFaZlDBNBCJjqLo4H+0GbriB69eArk7wZ0dBqyZDpMSBzx3TNuDLG+CqymA7WaYW1ewfytyqSkMR0PyfgJuqNKuqBB8pgZj2iJq7v1jKi//xTnAX8FliDNByxUtiLSdFN/BxlOMpcUB7o38tWvKSYQ69CfNE8Ovvqp+w1K9BvDYKtCkbdHAzuPoM4HYCjZcAcUt3QCLIuLFKvSFzn5C4IGEsgrwxmtCYNe6XN8BvZ6kFu2tpcFLuTohZww27B62ZonOvXlF3g41zwF8c1959uq/3pwV6Fzh9UNkpRHwEhD0afPqgWaWSYN47QfEs41Zri4KYMACUGgeR9k1Q7mhwacHt/RkVde4T4fHzxkhcWvyCmnvo3WCfpQXqLuCz8Q+A6/7tdUqglakyZ8IAcN4Y+fPkWKC1XpvrdoIWPGe8TnwE6NUfh1+UEGHe6cBRC5Fl/NR0V7ZIjYOY9ghw/qTSnVkiEBlDwWXrNNu1FLTkJdD4BxStORZ0oUJ36HZCvPKdHnOhRWMDYris5qneBd59HWACANC/dht3gcBu8Mkh08oVCPNEwAS+8gVo3ujQhODbxBmPg+vOye7MEoE9GjRxEGjiIIiUWMPN5vUZwK2bur+ytaEddxNj9PiZQCuSe54z9WGgxXtycDtBv/1paPuV/aRp5QqEuTeGTEBrPfjoTu20kBLbc2IJkeDNObIrs0QQihBL8gHnVd2Z2wlSvONQ/gsQUx+WP1/8oj638VLPa/75TX8X4Pe3Kt8XaN00heD6g4+XmloywOwbw9Z68J4V2mmgvQlovAT+sAS0fSHEW+Nv/2R099VHIqD9xcC19mBf+4qUXYBPlIJK18h+xt0PPnPYO5nAa18xXnPKEP1iyu2EmDtSjin3KaDTATFliDw/c5iZJQNgpgg8LtDqNIhJXwdlDQfvXQl4XJogXG1AWwP4+HvqQmT9QHJnmgimDgG9Nc6wKLx2mpSHSH9UXnfR88ANN7irA2Kqoji5o3UfDReNRbfjDe2UAoDL12u/qXSP6dgebfzgJtmHLQp8osycmnlh3mXRO69CJH1VT3byYIis4aA5I8CF08GF00FLbeqNWTVJ8meaCOY/A1z9L+jvherxlFjw2Q91R/uLlScCrtRfyuivqxStOkb3QwK8cbaiCzwEbvb+RuBxqbvAwp8D17s0jtsJmvk92c/M75tSMx9MEQGXFkCkxBm3wKQHNRv/FfXTeHi77NPsI2JXJyjvZ2rOnB8BHhe4tQEi8zF5fKkduOnRF3O1QUx5SObNf1bnNFyUOLRnpd4FDrytPjV4u4A/r6M7ld2APt4Hs2COCE7+TbkpoRgXpAFdHbLPXrgn4OozEMkD1S12Sw64fIPcBZIHBnUBv6/yDcpuQB+XawQS4E1z9bEZwwBXqzbmcUFkDlPH6nEFL+RxQcxQcGePuLNiKWDO14HHBb78KWjnEoiXvx2aAJIHgrbkAr7Llm7olcsiEtrRTxVP6iBQpnz1zWte1t5ruuNauzrXwG5Qf97Pob1/0GM1uIrmj/6izu1EqbobVOzvuTYhwNzTQYcDqPoEtHclqCQfXJQOyh6pbUTSg6DMx0ALngNtfg04ewRoawy+Og705bwK8eYvJePC6eHx/zgvmOhqAxelSzyaNxoi/VHtV7zA+f85YZzvoS2yn99PADdc1AjiFmjXMlD2SG1vfPO2zpfjLErXrtNVuN6ljJl35BsXIwz0zt/LXK3gjmagpQ5ccxZ88ZS2mdWV4Lpz4NZ6w+L7IW6B6y9Ihqbq8PgtdTK3pU7m1n4OvnQaqD8f/PnN68YxdnWq1/S92AFAYxX4+HvB85qqQ4uzh5gN9yJMWH80tWCJwIIlAguwRGABlggswBKBBVgisABLBBYA/A+CREsq7a+s7gAAAABJRU5ErkJggg==;" vertex="1" parent="1">
          <mxGeometry x="-57.42000000000001" y="782.54" width="139.46" height="40" as="geometry" />
        </mxCell>
        <mxCell id="rF6UAwLea4RSJ0UKlpxq-34" value="" style="group" vertex="1" connectable="0" parent="1">
          <mxGeometry x="320" y="620" width="160" height="98" as="geometry" />
        </mxCell>
        <mxCell id="sfCNAD6d5CcduHhw_1o2-92" value="" style="shape=image;verticalLabelPosition=bottom;labelBackgroundColor=#ffffff;verticalAlign=top;aspect=fixed;imageAspect=0;image=data:image/png,iVBORw0KGgoAAAANSUhEUgAAAEoAAAAfCAYAAABAk1s1AAAEUklEQVRoge2Y208bRxTG8//RKCXkUpJWURMpb32qKrVVCVAK2BhDCLcsV2NicLyxA8amUbLpRU0V2karKNCEqtJKLa2dtXdndtaAg8B8fbBxba/XngQhGnU/6TyMPWc08/P5zox8Ao64dOK4N/C2yAHFKQcUpxxQnHJAccoBxSkLqLW15xDvxl4rJv0hXB/xwTs0BV9AREvnAGLL95DL5Y7jTEciC6iVn55g9flvWP31xSFiHXO3w9je3j6OMx2JqoIyzAxyub26sbe3i93dfOzt7RY/39nZQSB45/8Byhd+hJaRZVy7GUfrWBxtkzG0Ty/hy5koxsMPkM1uQ9PSSCQSSCQSYMzAH0mKK91RhL9b5QKlSAIEoSQk5cgOeljZgvL4v0Fj6y00dfhx1uXD+d4pNA9M4OKwgO7gIjIms4J6SXG1L4KFlad1QBHIohWMIssgxYEEQSwZH7MsoB6v/AKdMgyFvsflvtu4MjiPD4f8uHBjHO8NjaB5dBDdoQgyJgMhOlRVhaqqME0Tf6Z0fDQ1j6j8BP5AyB4UkSEKIuRaFP7roH58/DNSGsXE4iNcHZ5Hk0dAg3sA73j7cOpGLxqH3WgPBpExGRhjIISAEIKtrU1saBo+Ds0g9mwF0/75GhWlQBIE2DmtuiXzVSgp+VxBkKAABeglc0vgKpK1aoks/junRi43qIE7Ehq6BtHQcx0n+704NehB46gLZ8a70CHOIWMymIWqIkTH1tYm/qJpfLYk4N6LH+qAKmxYECDalZWlovKgRFEqq0Qil44rLG2zxsHXNXN5QbmCMTT09uPkgBfvDvfg9E0Xzk58hfO+dnRGZpExGQzDgKZp0DQNm5sZJAwV7Q/78eD3b+uCKuy0+ItagNmBqunXyjwFUqnFiQzxoBLr5pbLFlSPuJS32ogbTWNdODfZgeaZNlwMXEP3wgxMxmCaJigloJTANE2wDMN6ch0b2t98oEo3WHnr1amGUh1Up539DuASWaxuRQ772YLyRBZxetSFM2OdODfVgWZ/G96fa8Gl4OdwR6dhGBSE6Eil8s1c13UwxkApBTWM1wOV33F5g+cCVehXYo3bsjiuzOfI5QHlXbxbtNqF2VZ8MPcFLoU+xeXwJ/DEJ0Epga7rSKVSUNWXSKfTIIRA1zUQ+gagKhs8D6gqVipr1sV1RchKxVyuXA5QM/H76ArPwRUJwL1wC56oH70xH7zxaUzGItB1Hel0GslkEslkEqqqQtO0PDBKa4MiMsSqFijZuCKVj21BVfYgq30USYAoiuX9jTO3LqhXr7LImGZZmCYDYwYopWDMgFlo6JTS4jOBEAJqMK7nQVlvsDTZwi1keR6Ur1TWY0QZpJp9FAlClXcbV64dqKfP1hCJ3Uf064dvHIvLEmYDQWSzWRtQb58soHK5HFRVxcbGxqFC0zTs7+8fx5mORM4fd5xyQHHKAcUpBxSnHFCcckBxygHFKQcUp/4BKZNSDn+kv30AAAAASUVORK5CYII=;" parent="rF6UAwLea4RSJ0UKlpxq-34" vertex="1">
          <mxGeometry width="112.76190476190477" height="47.23809523809524" as="geometry" />
        </mxCell>
        <mxCell id="sfCNAD6d5CcduHhw_1o2-93" value="" style="shape=image;verticalLabelPosition=bottom;labelBackgroundColor=#ffffff;verticalAlign=top;aspect=fixed;imageAspect=0;image=data:image/png,iVBORw0KGgoAAAANSUhEUgAAAFoAAAAgCAYAAACSEW+lAAACAElEQVRoge2Y25HDMAhF038HqoEWqEElqAS1wH4o3vDSI5sZPJPlzvjLsoBjQNgPSoXocbcD/0UJOkgJOkgJOkgJOkgJOkgJOkgJOkgJOkgJOkgGdMNCpbAL2x1+3axOFQrtQhesoFJfrGWgx+YabKvrDb5NHN4KdK/A4PrsuF6geyUoQPU/UdVqSKUgNWqES9DO/Q0/ltG7za/9QLSWsf4qtbHHcPYyPi+vhoWgdrmnU4LSJg9mYlfZ0Jkms9HThkWvBMbW+hnRo6+AYPJaxn1moFeqDDQAijfaKxooPOirTF/27BoD5Tfr5nZl/KignvTfDWiz535fO3WwLJTAV8afAe/6jnLQyzZZgo3QlCMP6MSu2sPNRu+Zv4Ge+TIf7xrKqUNkktb8bepWo0FbxxiYywfnki1rGoWx0yscTFIRGS2eZdn1Nuhn39Rl/zboVfadgX7ZPVx/AvqTHr00uDxVnQCcEtX91m0dPIjtJPQOOKDaTtrGtX43dSi/Ni1Jjnfe6cweHofX/DBcjjtX79egRUAjQJ7lxiZ1qijn15NvqoaFAEBW0PRF7se3hsXM0auzwox3shdOxiUzavkBm7HNbR1tTBqLL1H9taqnlKOP14ZqNKSPQBu/Nk7c+q/D79HfqQQdpAQdpPxNGqQEHaQEHaQEHaQEHaQEHaQEHaQfy8PUxBAScoYAAAAASUVORK5CYII=;" parent="rF6UAwLea4RSJ0UKlpxq-34" vertex="1">
          <mxGeometry y="48.22222222222222" width="137.14285714285714" height="48.761904761904766" as="geometry" />
        </mxCell>
        <mxCell id="rF6UAwLea4RSJ0UKlpxq-45" value="" style="group" vertex="1" connectable="0" parent="1">
          <mxGeometry x="210.01" y="510" width="371.16" height="60" as="geometry" />
        </mxCell>
        <mxCell id="rF6UAwLea4RSJ0UKlpxq-41" value="" style="shape=image;verticalLabelPosition=bottom;labelBackgroundColor=#ffffff;verticalAlign=top;aspect=fixed;imageAspect=0;image=data:image/png,iVBORw0KGgoAAAANSUhEUgAAAlkAAAA1CAYAAAByUf5PAAANrklEQVR4nO2dT2gUWxaHC+PmNQEj6CKCuvAtBoKCIFi8Ft29TUI29kY3Q3aZxqeNCxGUKHEhRNxomghCBMFAWvMgZGFoXYxvMWQRSHjg4PTYzGTeNjHOIgwE45lF9a2+f6sqSdef2/X74C5SVX27uj3n1tf3niqdH3/8E2Wh/fBDAQ0NDQ0NDc3ylrZPZKk5BAAAAAAAOg4kCwAAAAAgBiBZAAAAAAAxAMkCAAAAAIgBSFaKvJ5bQJtboL/+9re0/ylADkg7zrPSAIibtGM8C40ByUqR13MLtLn5lba3t61plUql4w2SBZLApnyLI882N79CskAi5D3XIFkZ4fXcAm1vb6d9GruiUqnQ6uoqNZvNfbfV1VVIFkgMm/Itjjzb3t6GZIFEyHuuQbIygk2ByKhUKh0JRtYgWSApbMq3OPIMkgWSIu+5BsnKCDYFIgOSBWzFpnyDZAGbyXuuQbIygk2ByIBkAVuxKd8gWcBm8p5rkKyMYFMgMiBZwFZsyreoebaysgLJApkj77kGycoINgUiA5IFbMWmfIuSZx8+fKCjR4/SxMQEJAtkirznGiQrI9gUiAxIFrAVm/ItLM9mZmbo7Nmz5DgOHTt2jJ48eQLJApkh77kGycoINgUiI6r1Q7JA1rAp34LybGFhgS5evEiO4/jt9OnT9OrVK0gWyAR5zzVIVkawKRAZYZI1OztLhUKBLl++TI1GA5IFMoNN+WbKsw8fPtDQ0JAw6LN26dIlWlxchGSB1Ml7rgVK1katJHZ48gEtJ/qRN6hWcuhQqUZ/SHu2lsdp4FCJavIOS7EpEBlBknX//n06cuSIHzuDg4M0Pz+fmmR5sXyISgEB4x1zkh7EHuReXJ+M/406w9YyjQ8Ef3f76JyWxwe0OR4nNuWbKc9GRkb8/Orp6aHbt2/T0aNH/W3FYlH74yYJyaqXpYtRuR7bewWcBZUdhxy3So2wY5I4v3qZHKdMaXwTaZL3XDNIljfwiVK1RcuPbrWkxtu//4tEeD96mdqgWimuQT8dbApEhikg79y5Q319fYrxu65L09PTKUpWwA+FrWUaH3Bikayt5XEaEN63s5Kl9t9hIFmposuzu3fvCoP+5OQkNZtNevPmDRUKBX/f1atXE5asBlVdWVoaVC0z0fH2799povTTEijHfFyj6sYkgXUqOy5VebuDZGWeOHJNL1mhg2pykqW7IMV+UUkBmwKRoQvIyclJ6unp8QPy3r17dO7cOT8QC4UCvXz5MhXJOvRzmf48oJcoT+Zdcg379wMkK7Dz7pSs75/o6XnuR8bBX+h9yLEHilP0T81uq56T1aiSK8uFeEDCkuVSuewaJMrrw3VN+/cDJIuRhWvb56liOxdPXKf36/rjEnxOVsBFwP/Fz1p78BWXF8VBeaNWIufkA6q3jjl5q2rsR31LfjZLnsXyztW0pGk+Jza4v6D58YHQpaS4yUIg7hY5IGXBYsbfaDTo5s2bwr4HDx4kL1mtf2v1gt6KqRfzNK5IlhRf0kyXH5u/16jEjvFjtTUjzM3mee/N8us3Yb+Yb8Fx3Xp3Q//tz8zviyJ12nzxJet37pzUfNlaHqeBgHwW97PzkSWLfaZ4l23jzbfv9OnpT/TLe/7v80aJ2lkcJcfpEslqzR7pnaZKrjC73ZYQcXlRlJN62ZtpYseUq+Z+1HNxqVo3iF+9TI5bpXpVI1n1csByJ/uMrVk7ebZMfi0TKyZZwvfQ/dKV9rVt/d01Os6J1eepIjkXnlFTc2yiDyNlA6L+F6ZuBmqDauX2hUBe5mODt/iaqDNibbESf7XLMigP2EHnxAbzbCw7ph2Ie8GmRzh4klWjPzZqVJKXn9m2xrIoWa0fFMosKicAvjhIMcnnjWkmi489sV+NeFRfGGeq1P41y/2az6L7jhz+u9mYp6ovWaJgyscqy/obNSop35P43VZfqJKlnENMJJ5vO4s0eqBIU7JF7SzS6IGfqPwXs4TZJVntJThXaz66Gag6lbkNjaor1FH5clUP60emPZtUL6vnw7Y1JMnyzp+XH3kJlC1DtsVNfY1pJouvEdMtrXYf6V7bPtNU8QRd56eu1t/RtePSthbJP/Gdm7XatRxtiRcs/eAZfdnRu5CUqVySLkzyL3zdRVR7Trq6s/SAZCUkWUrMcX/rYlaJD/H1ijyQGpcmyRJ/wPA/GHa3HK/0LwmO8Thxp2YWj98njQHCEqKuRpL/DEE1lG3Jami+y7jIhmTt0OLoASpONQJnuiqVCq2urnYkx1ZXV5O5u5Cbrdm1HDWq5HLCUi/ritd3J1lyn/zfomQZZuKE13vHiNImS5VJsvK3hJjqtW39HV07foGeCdNW6/Tu2nG68Eydy4oj16I9wmGjtRTiD9CGi4CylLi7C1YwrV//XB/K3Y+6JR3jOaVTC2ICkpWUZEmywcuFRsJ18aH0JUm9vC1aTZa4zZ8hizCro5U63esCfoAE3q2rq8nityk5Ji1fGqSv1ZH3PbtuYoJFlHy+7SyOKnVZO4ujLbEKXk6sVCodb4k9woHN3vjWYpAjZSlRkiz1BbuTLOl4XqwEyTLWlPF96URM3haxJguSFS+fp6io1GAFS1anW/TnZAkDrSpH3kWBG4j3MCsQjHrR0/fJn3LQOdkoWWs0M9zLDURX6Nf/yofM0HBve7C6ohzQYmmM+s88pJX/KTtorL/9+jMPV0g5pIWtksXPrAjbNfGhi80kJIt/L7nWSiZ85szvLFiyAme5wiQrYNk9aHaZzSgfcskNWc7sJEkO/N8/PaXzzkGuRoukma0uliwiSVxUOfKW2jgh0c1k7VuyyK/BakjbVcnSSQ8ka69kVbJOXH9P8oJhupIlTPkHLLkwEpCs4GdlhZ2TfZK1NjNMI5w0rc0MU68gSp4g+WK1NkPDvWfooWBSnEQpkuVJnC9WLWEziZq9ksX+rtKj0v5+GMQtWbrzUnd3YLkwaLYpTLLC7pYMlDAuDzdqVEqoRjKpgd8rapcE6/snenr+YOTCeCuXCwXMM0paWYpLstjf1bKw/LjX5UJIVjSyKlnpLhduLdP4z+JgrCsaN88qqXcIBV2woomO7lhNbcvWMj26xRXRGs/JPslSWaKx/rZErc0MU++VX4lXoqWxfnL8bZxE6Way1mZouFecHdP1ybBZsvwlLqU4PELhe1DBd6RjwiRLvGEjUIC0/ZsK38MfyyK8Rih8D5IsfW3aRq1srsk0FL4rs88xEf/A74mT7tEN7G5CbdMUx1tV+N6okisZiljI3npsAmcfokSxO/aiSZa+uN7vWREdVpSvzKRFKHxvv1dUyZKOgWQlzx5qsjqda4GPcBCSX3dHlnCr9oZ4e7d0O7xxaU/px4RBigLqwILPqfska2msX13eMy0LdkiyOm39iUkWbdHyuKsRB0lm5PgKESr9tnYcio9wMEmW/GiGsFoluX/S9BFFXAzvG0GyiNQaSTm39I9TMfxgi/jIib0S98DfrreKQvhMljWSxT0A1G9y0br/iANx+c3fVo8yk6XrR3cu0r5GlVzpfGTJ8rdxn0Etcg+TLL4P6REOymeAZMWH6e5CWbw8kr+7ECTGngJxaYz6/bosb5ZKWdrbjWSRJGra5cY2caxf4/8uBEkQ68CvLAeGvqCLJAsAkbRv6vo8VRQeQPp5qqitxyKCZHU1uw5EpV4qQLJ0BfLGwnexuN5YOE+QLGAv8UuWfjnwoNa8IFmge0lbsoikJ74bHkRKBMnqanYViEtj1K8IUAdmspSZK6kQXsKm5UIAeLIw8EdFN/Dfvn3bv2gUCgWanZ2lZrNJ9XqdDh8+7O8bGRmBZIFUyXuuQbIyQtRAXJsZpl7dzBTtvyZLW3+lqdNi2FT4DgCP7QN/syn+x7WFQoEmJyfp1KlTgYM+JAskTd5zDZKVESIFonGJz8N0d6F2JkrTl3gnot8pJAt0Hd0w8DebTbpz5w719fUpy5I3btzAciHIBHnPNUhWRggPRMNyoHCIVKcVIEhaYVsao35HXS5UxKsFJAvYSrcM/M1mk+7fv09HjhyJNOhDskDS5D3XIFkZIapkaZ+tw0uQ8MR3852BgcuIpr4lIFnAVrpp4G82mzQ5OUk9PT3GZQtIFkiLvOcaJCsj2BSIDEgWsBWb8i1qni0sLETOM0gWSIq85xokKyPYFIgMSBawFZvyDY9wADaT91yDZGUEmwKRIQek6VbXZrNJjx8/pkKh4O8fHR2FZIHUsCnfIFnAZvKea5CsjGBTIDJ0ASnf6vr8+XMaGhryt/X09NDExARmskCq2JRvkCxgM3nPNUhWRrApEBmmgDTd6uq6Lk1PTwcGJCQLJIFN+RbHQ38hWSAp8p5rkKyMYFMgMoKsX77VdXBwkObn50OtH5IFksCmfIvjv6+CZIGkyHuuQbIygk2ByAibWmW3uhaLRVpZWYk0tQrJAknwem6BNje/0vb2di7b5uZXSBZIhDznmpxnkKwU+fj3f9C3b9/SPo1d8fbtW/ry5Utg+/jxI62vr4ce9+XLF3r79i3969//SftjgRzwem4BDZIFEiDtGM9CY0CyAAAAAABiAJIFAAAAABADkCwAAAAAgBiAZAEAAAAAxAAkCwAAAAAgBiBZAAAAAAAxAMkCAAAAAIgBSBYAAAAAQAxAsgAAAAAAYgCSBQAAAAAQA5AsAAAAAIAY+D+ihyusptNj0QAAAABJRU5ErkJggg==;" vertex="1" parent="rF6UAwLea4RSJ0UKlpxq-45">
          <mxGeometry width="315.5528240740741" height="27.82745370370371" as="geometry" />
        </mxCell>
        <mxCell id="rF6UAwLea4RSJ0UKlpxq-44" value="" style="shape=image;verticalLabelPosition=bottom;labelBackgroundColor=#ffffff;verticalAlign=top;aspect=fixed;imageAspect=0;image=data:image/png,iVBORw0KGgoAAAANSUhEUgAAAVoAAAA3CAYAAABNTIJGAAAIk0lEQVR4nO2dT2gTTxvHF+spJwULxUNgaW/BQy5WCfgH7Ekv8sOLt0IPpRDNpVCwB6U3T8H25ZdL8aRQ2oI0RELJpeLhBSH2Iqm+LAi5hBKIXkIJtN/3sMlmZ3Y2m22yu23y/cCCyexkp4/2s888M1k1EEIICRQt6gEQQsioQ9ESQkjAULSEEBIwFC0hCrZ38zx284zfkOJH0RKiYHs3j0bjD1qt1oU/MpnM0I9G48/AomX8KFpCerK9m0er1Yp6GH2RyWRweHgIwzAGPg4PD5HJZNBqtQYWLeNH0RLSk8smimFIonOMo2iDjh9FS4gCioKipWgJCRiKgqKlaAkJmFEUxffv3ylaBWHEj6IlRMGoieLg4ACTk5N4+/YtRSsRRvwoWkIUjJIoPn78iGQyCU3TcPPmTbx7946itRFG/ChaQhSMiijy+Tzu3bsHTdOs49atW/jw4QNF2yaM+FG0hCgYBVEcHBzgyZMngiQ6x/3791EsFilahBM/ipb0h5FDSvjHlkLOMJvqpTTi8TRK9WiHOExGQRTz8/PW39fExARWVlYwOTlpvZdKpfDr1y+KNoT4UbTEk3opjbhNrOZ7b/CmbVaKNlpUolhdXRUksbGxAcMwsLOzg1gsZrU9f/6cog0hfhQt8aCOUjqOeLoEN49StOfgtIhF2wzhSupf/E865exoHbPWOVeRLqk/aiz30XrF7+wI67PSlP9qGqoQhr6PdhgPUyCjh5FLQUvlYLi0q0Rr5FLKMkO7B0rpeLfd3rdeQjoeR7r0DblU95cklXO7ejAELYrT4pJNnKcoLmq4ajfpaRGLNrmeHa1j9koK/8o2xniK1jN+Z0dYv6OOl0wkoq1Wq2g2m76ParVK0Y4q9RLScUmIQrMoWlnMYrszQxbO71zLLuf2e2HKNuyp72lx0ZZxneFofVYUh0ombcZRtDJi/GDeqFxuTDKRiLbZbPb9w+3t7WFtbQ0nJydoNpu+RFvJJqFpc3hf7bvLBaaCbHIay18agV2hVljAlG0aNBd64GxZqJTdCiKtl5COyxmsgVwqjnSpbi6qycK293GRqldWPWyiEEV3+nuK4uIVpCRLiOd04dO7FLHxKdpQn97lR7Q/f/5EIpGArut49uyZT9GaYrpzZ+qcwqihsHDevkHgU7S1Aham/Nxkaij8ZwfW6ZUskpHdpIz2lN5l14Fjd4I4/TcX1lTtbRFbpQMxda6X0oiPqmjPjrA+a6vByq/b9BLtsI9LJVpVvKQartZDumHE71yiLZfLePr0KXRdRzKZxKdPn/yJtpJFcu49yoUFTM29h39fjJtoB7ze0BGn/07RyhmtrafXwtnYiNYsBSgl0EO0qgWd8RRtj/g5MEsxbuddSNEeHx/jxYsX0HUduq4jm80CgC/RVrJJU5K1AhamZGFUkE3KU2ObWGsFLEzZMyF7f7Nvt02UWSWbhCaJvSbIvnPtMgoLU9bnTC9/gag08Tpz7/cd4jNLI84xyiUAbXoZnW5iWw+RRprRmhi5lFq0LqK0dewpYrf+9uuFQfgZmW3l/BwZ7ViXDuT4uZ7jLMcAEZcOvn79ir9//zoGtbm5aUn28ePHODk5AeBDtEI2ZwpUFJmHaJWvYQnY/p4prq6Q+hWtSt7dMcqvO1KV+ix1r1MrLGDKJlRVRus4x02myptTkNRRSv8jilGSoXIxTMha6yi9eSMshon1VgO5JWkxzN7fS84BEPo+UEGu/mu0474Y5nZz6qKOKRDhYtjnz58xMzODBw8e4MePH1b7t2/fMDMzA13XkUgk8Pv3b6utX9HWpHKBQzDnFK1KovJ5/YpWzmDtY3SOt9Ovh/xksTpEq+qvKo9EUzIQt2rZ6qltnOUAafuWY3uWIWzdEj6vI/GtrfbuA+f1wiBaUbjtOohOFH65cKL1yGgjEe3a2pqVtSYSCWxvb+P4+Bi3b9+23t/b2xMG259o3TJRZwbpT7SqzLj9admk9X7/pYOq/CFItuWqFrpCgI4SRw/ROs7VlGUL+SY1kniVHkIiWFGcorhkr7WaYrVnq+aXFaR9tBFuuPdL1PET99m2a7QX6QsLndLB5uamlb3quo67d+9af15dXXUMti/R9iWU84tWtTgWhGjVNVu5DmsTr1dG22c5gKINj2BF0f7F9/PNMI9V8/ESrXf8TouLnvHtEPk+2q2tLTx8+NASrK7ryGQyaDScQuhHtK6iEOqRblNmbeDSger6Yj+1aO39lKUDQZRuWbtX6SCKvbEXkLEQ7XBRiWJlZcWSTCwWw9bWFgzDwP7+Pq5fv261zc/PX0LRDpcw4ue566BcLlslA7kua8dbtL1kIrZVsklhNb6zgt+zVOC2GOZYYLJljpUskprmEK1zmi9np86x2BfDRHl32ntnsPLCnfk5S+Ji2AXYbTAuXHZRGIb4YJRYLIaNjQ1MT0/3lARFG0z8+treVa1W8ejRI0dd1o6naD0kocosu9unys4ssSNJxxRdvXVKuE6n3bGXtyP8fen60qCF60xj+ct/pRqtffzTWN754NhlYI1DcUNx3VZG0YbGKIjCMAy8evUK165dc5TqXr58eYlLB8MljPgN9BVcO36/gnsx4RSemIyKKAzDwOvXr3Hjxo2+JEHRBhM/PlRGgKIlJqMkCsMwsLGxgYmJCdfpLkUbbPz4mEQBipaYjJooDMP8/6/6OY+iHX78+OBvQhSMoij6PSja4cePoiVEAUVB0VK0hAQMRUHRUrSEBMxlE8VYP71rQEJ/ehchxOSyiSLo56n6hfGjaAnxZHs3j0bjD1qt1lgejcafgUXL+FG0hPRkezfPY0DR8qBoCSEkNChaQggJGIqWEEIChqIlhJCAoWgJISRgKFpCCAkYipYQQgKGoiWEkIChaAkhJGAoWkIICRiKlhBCAoaiJYSQgKFoCSEkYChaQggJmP8DscPX8Kr3a0YAAAAASUVORK5CYII=;" vertex="1" parent="rF6UAwLea4RSJ0UKlpxq-45">
          <mxGeometry x="46.305452246256266" y="29.444444444444446" width="181.66601851851857" height="28.877546296296305" as="geometry" />
        </mxCell>
        <mxCell id="rF6UAwLea4RSJ0UKlpxq-27" value="6." style="text;html=1;strokeColor=none;fillColor=none;align=center;verticalAlign=middle;whiteSpace=wrap;rounded=0;" vertex="1" parent="1">
          <mxGeometry x="126.71" y="653.51" width="20" height="14.74" as="geometry" />
        </mxCell>
        <mxCell id="sfCNAD6d5CcduHhw_1o2-111" value="press &lt;br&gt;" style="html=1;verticalAlign=top;endArrow=block;rounded=0;fontFamily=Times New Roman;startSize=9;endSize=6;edgeStyle=orthogonalEdgeStyle;jumpSize=5;entryX=1.063;entryY=0.233;entryDx=0;entryDy=0;entryPerimeter=0;" parent="1" edge="1" target="sfCNAD6d5CcduHhw_1o2-110">
          <mxGeometry y="-3" as="geometry">
            <mxPoint x="310" y="675" as="sourcePoint" />
            <mxPoint x="92" y="678.9929100000002" as="targetPoint" />
            <Array as="points">
              <mxPoint x="310" y="675" />
            </Array>
            <mxPoint x="-11" y="-32" as="offset" />
          </mxGeometry>
        </mxCell>
        <mxCell id="sfCNAD6d5CcduHhw_1o2-113" value="" style="shape=image;verticalLabelPosition=bottom;labelBackgroundColor=#ffffff;verticalAlign=top;aspect=fixed;imageAspect=0;image=data:image/png,iVBORw0KGgoAAAANSUhEUgAAAhUAAAF1CAYAAABf+Bi5AAAgAElEQVR4nOzdd5hUVbrv8dWhqhrHOTNOuscZ50y6E+4J85xz55y5Z86MASV0bugKjTomJEiSpuncFRtUVMwBEyBiTphGRTEAJkyYA0kQlIxA1V6V9/f+satQJpmQ2lX98jyff2awm+ree9ev3vWud6l4PI4QQgghxJelCv0PEEIIIURpkFAhhBBCiANCQoUQQgghDggJFUIIIYQ4ICRUCCGEEOKAkFAhhBBCiANCQoUQQgghDggJFUIIIYQ4ICRUCCGEEOKAkFAhhBBCiANCQoUQQgghDggJFUIIIYQ4ICRUCCGEEOKAkFAhhBBCiANCQoUQQgghDggJFUIIIYQ4ICRUCCGEEOKAkFAhxACktd7HMAwMwyAWi+0nGjM+1Z//N/mv9cmvX+jXKoQ4eCRUCFFCtNYfhwLDwNBx4skkqXSGdNbEzJqQSUM2C5h8tX9M6/tk0phZk3TWJJVOE08mMXScaC7I5ENIoX92QogvT0KFEEUmX1WIxgxiWmPoBDoeJ5FIkM1m939fTyeI79nFri0fsHn9GtatWcNbGzbz9Mo3eODx5dy06AGumH8jZ110OT0zZtHaG2Z8WzenjJ3AyJ4LqTv7JupnXE/9zAUfm3E9dWffxMieCzll7ATGt3UzrS9Mz4xZnHXR5Vwx/0ZuWvQADzy+nKdXvslbGzazbs0aPly/hl1bPiCxZxekE/v9M7PZLImE9ToMnSCm9b5KiGEYBf+ZCyE+GwkVQtiUYRhE/2wZwtBxMpnsJyoBKbIJg1TcYOeuXbzyyivcd999XH75FQSuvYMzLr2VEV3n87vTOvll/al8a8gpVLiDlI/sQzX1oBq6UHUdqNp2VM10VHUbavg01LBW1PDpqJqOv2349Nzfm2b9dzXTra9T12F93aYeykf2UeEO8q0hp/DLhlP53WmdjOiazRmX3krguju54ooruO+++3jllVfYtesjUnGDbMKAbGpfJSWTyVqVjf2WXiRsCGFHEiqEsJH88oVhaNKZbO5t9eNlikxKs37VWyx7bDE3LXmOyLW3c8LUPv79hGkcfvp5HObro7KuFXXMWNSQqajablRDL2pkEOWJUO7tp9IdoNIdxOGxOL0hnN4QLl94P1W+0Kf68/8m/7XyX7vSHaTSHaDcG0F5Ita/o6HX+ncNmYo6ZiyVda0c5uvj8NPP499PmMaJrX30X3c7Ny95jmWPPcKGVW+TScX3W1YxgVQmQ8ywfl6yfCKEPUioEKKA8ksZRiJBMpXCzGZy6wEZYts3s371uzy98g0um3cjo6dM5w/TLuDHJ/biOPpk1NBpudDQh2rsQzX1UjYyQIUnjLOlnypfGJc3iNMTxOkO4HD7cTT7c6Hi4HI0+3G4/TjdAZyeIC5vkCpfGEdLPxWeMGUjA6imXut1NPRZr2voNBxHn8yPT+zjD9Mu4PQz27l8/k08vfJN1q9+F2PHFjCtqo2ZzZBMpTASCVkyEaKAJFQIcZDkd1p8cikja1pViGzCwNizmzffWcXcefMZe/58fjcuyDePOwlV24Gq60JVT0fVdqGag1S0zLQqBZ6gFRbchQkLBzx8uP043AFcniBVvhAVLTOt6kb+9dd1oWo7+MaxJ/E/Z4Q448IbmDf/et56dxXGnt3W0gmQNc39lkykGVSIg0NChRAHQSwWw4gnciHC+nSdSmheeW45N9y7mMmz5vBr9xlUeUOoIZOsKkRTgDJvP5W5JQqXL0yVN4TTEyhYxaEQFQ6nJ0BV7vU7vSEqPUHKvDNQjQHUkGmoIZMY5Avxa+8ZTD73Km647xFeeW45qYTOt4FaISNuVTEKfS0IUcokVAjxFTAMg5hhEE8kyWTSVj9EMs4Hq99iydMr6Dj7Qn4z5QK+2TAFddQ4VF0vqsmPGtFHhS9MlTeM0xOgcoCEh88tHzZ8YSq8YdSIPuvnV9eLOmoc32yYwm+mXEDnORfx2NMr2LT6bTLJeK7xM008kSSWm6lR6GtFiFIioUKIA0LvNzAqk80CWZLR3axZt445C27GPeM6jqg5FXXsRFRdt7WU4Yng8vXj8gRKZgmjUBxuPy5PAJev32oKre2yfs7HTeSImtNw91/HVTfcwtp175GM7gZMMtnsfoO84nFZIhHiy5BQIcSXZBif7I/Igpnh7Vde5LJb7mXI2E4Obe60tlvWdFLmm0nVqH6qfMF9SxlSjTjAPrFkUuULUjWqn3LfTOvnXzOdQ5s7GTKmk8tvuY93Xn0JzMzHSyQ6LtULIb4ECRVCfAH5IJFK55Y2EppV777LpQtuY8iEAN9t6UENmYwaEaSsOYDDG6LKG8JR6DfcAcrhtkKGwxuirDmAGhFEDZnCd0f1MmRigEsX3MbqVavIJK0+jFQqLQFDiC9AQoUQn9End25kslnIpNixeSMLbrsLd/hqDh851Sq513dR5g7i9EVwypKGLTndfpy+MGXNuZ0ltV0c3tyKO3I1N999Hzu3bIJMar/lEQkYQnw6CRVCfAYxwyCdyViDl9IJnl/xHNMvvp6f1I/JTaPspNwT2TcUyukp/Bun+AzhwhPY9zsr90RQNZ2ounZ+Un860y9ZwAvPr8BMJwCTdCZjNd/a4HoUwq4kVAjxNxiGQTyRwMydp7F903puuv9Rhp/WyqGNbahh01HuCJWe/NKGVCWKmcPtp8obotITQrkjqGHT+XrTdIaPbuWm+x9l+6b1uUFbWXQiIZULIf4KCRVCfILWmphhoOMJTCCbirN27Tr6L7qSnx/fiRrehmropcwdxOUNDZh5EQONo9mPyxuizJ0bKz68jZ8f38mMi+ewdu06ssk4JqDjCet6kcFaQhCPS6gQYh/DMEgkk1apOx7j8aXLOSF4CYc0WgdllY0MUtUSluWNAWTf8khLmLKRQVRtB4c0TueE4KU8sewpMnEDMEkkklK5ECIuoUIIYrEYyZS1iyO6cxt33XMfx47rpqqxHVXXTaU3hMsrQWKgc3oCuLwhKr1hVF03VY0dHDuuh7vvvQ/jox0AJFNpmdopBjQJFWJAyp8GmkimANizfTO33nk3vz1pGmrweFRDH+Vu6+CrQr+ZCftxeYOU55dGBp/B705t57a7FrFn+2YAEsmknJ4qBiQJFWLAMXLjswFiu3cy/4aF/Ob4yaghEylr8uNs6ZemS/GZONx+nL5+ypr8qCET+c3xk7l+4Y3Edu8ETOLS0CkGGAkVYsCIxWIkk1aY2LtzK7fefge/++NUyo6bQNkIP46WCC6ZcCk+J0ez3zottiVC2Qg/ZcdN4H9ObuWOu+4mtmv7fpWLQt8DQnzVJFSIkmdNv9Rks1lSxl5uu+tu/vP4yaijx6JGBKn0RXLjsgv/BiWKWLPVd1Hpi6BGBFCDx/PbE6dy+12LSOu9ZLNZYrndRYW+J4T4qkioECUrf8BXJpvFTCd4ZMljVE8JUz50EqqxD+eoGbIlVHwlHM1+nC0zUI19lA+bTO2ZER5/cilmOrlvSqdULkQpklAhSpJhGKQzWcDklTfexNd7ARXDp6DqenD4+nF5grLMIb5S+5ZFfP3WLqLqqZwQvIRX33wLMEnJhE5RgiRUiJISi8X2NWFu/eB9gudfwmG1k1B1vVR6QrndHBImxMHkt647TwhV28thtZOIzL6M7Zs3ARCXGReihEioECUhf9hX1jRJR3cx99ZF/MQzDTVsGhXuIE6PbA0VhefyBKl0B1HDpvGzUe3Mve0e0rGPyGRNotGYhAtR9CRUiKJnGAbJVAoweX7Fc9SP70QNmUCFdwaDZPqlsBmnJ8AgX4hyTz9lQybQMKGbl1980dolkkpJsBBFTUKFKFpaawwdB+CjD9bTecE1DKqfimrokWPHhe1Zx69HUA09HNLQRu8lc/now/cBMHRcBmeJoiShQhSlaDQ3DTMV56Elj/Ovf+xAHTeFSl8/TncA6ZsQxcFvXa/eCOq4yfzbSZ0sfuwJSMVJJFNEo7JDRBQXCRWiqGit0VoDsGPzJiaGZ1Nx9KmUufupapHqhChOTrefqpYIZe5+Ko4+lUmRC9iZa+Q05BRUUUQkVIiiETMMUpkMZNMsXvIE/zJiLKqm6xPVCSGK276qRXUn/9o8jkcfXwrZtGw/FUVDQoWwPa01MUNjZrPs3rGdqf6ZVA6bjBoZxOkNybwJUVqa/Ti9Iev6rp5CW+hsdu/cjpnNEpOqhbA5CRXC1vIPUIDlTzzGr0/qRNV24vSFqZJtoqKEVXmCOH1hVG0nvz6pi6eWPm7NtYhLE6ewLwkVwrZisRiZrEkqtof+K6/H1dBGWVMvLl+44A98IQ4GhztAlS+MauqlqrGd8+bdStrYSyablTHfwpYkVAjb0dogZmjA5L1166g97UzUkDOp8IRxeqU6IQYepzdIhTuMGjKV+jGtrH/vPQBihkZr6bUQ9iGhQtiK1hodTwAmDz34ID85yY+q68LpCyPbRMXA5s8th3Txs5MDPPzQQ4CJjidkOUTYhoQKYRuGYVjLHQnN2VfOxXn0yZS5w3JehxD7WOeIlDWHcR59MufMmUc6ESeTyWLIcoiwAQkVwhaiMQOALRvW0NJxtrVV1BuWEdtC/BVOT4BKbxhV08WoznPYuvE9TCAqwUIUmIQKUVDaMNgbMwCTFa+9xS99U1HV03HJVlEh/r5mPy5vCFXbyb+NOJ2VL78EwN5YTJZDRMFIqBAFo7UmnkgAcOcDD3FYczeqKYjLFyr8A1uIouDH1RJB1XfzrZEd3PWnxQDSZyEKRkKFKIiYYZBMpSGtOeeCi3EMn0JZcxCXLHcI8fnkKhZlzSEcw6cw68JLIJMgmUrLFE5x0EmoEAddNBolnc6go3s4JXwZ6venUenrxyHNmEJ8YQ63n0pfP+rI0YyeeQU6uod0OkM0Gi34PS8GDgkV4qAyDKshc/PG9QxrOw9V38ug42fIQWBCHABOt5+q42egansYPv18tmzasO9QskLf+2JgkFAhDpr8Do/XXn6B/zipA9XQh8sblAqFEAeQI7ftVDX08ptTOnl95QsARGMSLMRXT0KFOAg0e6MxAJY9+hA/GHYyqikg0zGF+Ao5vUFUU4AfDDuFZUsetnaGRGPE49LAKb46EirEV0trDG0dCHb3o8v4xlHHU9Ycpkp2eAjxlavyhVDNIb559AksWrI8tzPEui8L/mwQJUlChfjKaK0x4gkgy/X3LMbR0E2ZJyIVCiEOIqc3SJkngqOhm+vvXQxkMWTLqfiKSKgQXwmtNTGdADJccdPdVNR3UNEcwGmDh6wQA43THaCiOUBFfSdzblkEZIlpOUJdHHgSKsQBZw21SoKZ5sL5t6AaunB6Qjg9UqEQolCc3iBOT4iyhi4uveF2IE08IRULcWBJqBAHlNYanUhAJsXMK+ahhrfh8IRwyFArIQrO4QngcIdQ1dM568r5kElhSLAQB5CECnHAaK0xdAKyKWZcPhc1vI0KTwiHDR6mQgiLwx2gwhNCDW9j5hVzIZvC0BIsxIEhoUIcEFaFIgmZJOdctQBV24HDJ6eMCmFHTk8AhzeMqutg1tU3QCaFTiQlWIgvTUKF+NK01uh4Asw05167EFU7Hac3LBUKIWzM4Q7g9IZRte2cf92NYKZlV4j40iRUiC9Ha2I6DtkUl9xwJ6q2g0pZ8hCiKDg8ASo9IVRtO5fdeBeYaWKGljkW4guTUCG+lKihgQxX3rIIVddBhTsogUKIIuJwB6hwBymr7+SaOx4AMyMjvcUXJqFCfGExQwMm8+99BFXXicMdlF0eQhQha1eIFSwW/ukxAKtiYYPnjCguEirEFxKNWWd53L34cSrruyhvDkhTphBFzOkJUjYygLOunXsXL8kdQhYr+LNGFBcJFeJz2xuNAvD0E0v4+tEnUNYckkAhRAlwegKUNQf5hyNH8cyTVsUiGpVgIT47CRXiczEM6/jyN199iR/VnIZyh3HJWR5ClAyXN4hyR/hx7Wjeem0lAIYhPRbis5FQIT4zwzDIZDJs3bSB/zy1G9Xol0AhRAlyeUOoRj//NbqXHR9uJJPJSLAQn4mECvGZ5M/z0NG91LbPRtX1SKAQooS5vEFUXQ8NXReio3ut+1+2mopPIaFCfLr8EebZJONDs1F1vQzySaAQotQN8gVRtT1MCM+GbBIjnpAZFuLvklAhPoXObR2Fi6+8GnXkaTh9ESrd/oI/8IQQXzU/Tl8/6sjTuPSqa2WrqfhUEirE35XfOnrPw0tw1JxJhW8GDgkUQgwYDrefCt8MnDVTufcR2REi/j4JFeJvisWsnR6vvfEmh3l6rJ0eNnjICSEOLpcngGoO821vD2+8+aZVsZCpm+KvkFAh/iqtNelMlh0fbuC/vGeg6nulMXMAcLj9OD3WICSXN4jLG6LK95dc3hAubxCnJ2ideCnVq5KXb9z871ET2bVlE6l0Rho3xV+QUCH+gtYaQ8fJplMc3zsbVd2Oyxcu+ENNHBiOZj8ud4AqbwiXL4zDY53XUuEJojwRVFMA1dCLqu1GDW9HDZv+l4a3W/9/Q6/19z0RKnJfx+EJ4vKFra+f+36Ffs3iwHD5wqiaDv7ovwAzncLQcQkWYj8SKsRfiOUGXF1w+VWomg5cLZGCP8zEl+do9lPlDeJomYEaGUTVdqKqp6PqOlEj/FTUtfHT2lP4w/gAjd0XctI582i95l66FjxE5/UP7tO14CFar7mHk86ZR0PXhfxhXICf1p5CRV0baoTf+nrV062vP9L6flXeoISLEuFqiaBqOrh4zjW5xk1ZBhEfk1Ah9hPLNWYuffJJDhl8KpWesJw6WqQcbms4mcMXsd7sG/tQNV2UHXkKPzuxi2ODcxkfOJc58xfy1Ctv8+76TWxc+y67t20msWcXZtIAsvz1P1nMpEFizy52b9vMxrXv8u76TTz1ytvMmb+Qcf5ZHBuYy89OsL6fqulCNfpRI/w4fBHr3yVLJkXJqmqF+Nqxp7F82bJcf4U0bgqLhAqxj2EYZLImG9et5ud/7EU1h3F6pI+imFhBIoTTG6LMHUbVdFIxfApHnOin/rTJXH7nYpY/9TSb1r6zf2DIZjAzadJZk0QyRTyRxIjHicaMv84wMOJx4okkiWSKdNbEzKQhm/n4a5oZNq15m+VPPc3ldy6m9tRJ/OCEPiqGT0HVdFLmDuP0Wv0ZEjCKi9MTRI0M8cuT/Xywfi3pbBYtFQsRl1Ah8nJ9FGZS0zK5EzW0VfooikWzVZEY5AtR6YugatpRDV381NvKmRcv5La77+XDje9DOgGm9aafyWaJGZpYLIZhGAdsXVxrjWEYxGIxYoYmk83uCxikE3y4cQO33XUPZ168kJ96W1ENXajadip9EQb5rObPSlkmKQouXxg1dConnNkNSU1MaxmMJSRUCEs0t330qtsfQNVMz/VRyMPd7hzNfpwt/ZSN8KOqO/haXSvDxnez8Pa72L5tG5mE9XtNp1LoeHxfkND64Hyq1PrjgKHjcdKplBVqEgbbt21j4W13MnRcF1+ra0VVd1I2wno9EiyKgT/XX9HO1Xf8KXdUulQrBjoJFWJfH8XKFU/zzeqJlHkiUo62OYcngNMbpszdjzpqHN/29tB++Y28/sabJGN7rTfudAZDW79f23yC1LnqiI6TSVtVk2RsL6+//gbtl93It73dqKPHU+bux+kL4/AU/mct/s516PajPBG+VTuJ115cIf0VQkLFQLfvoLDdOzlqQj+qrlvmUdiYwx1gUEsIhzuIGtrKEQ1jOeuiK9mw5l1rlcE00fF40ZwoaRgGOh7HNE0ANqx5l8iFl/ODujGoYa043MHc6y38z178ddb8im6OmTyTxN6P5OCxAU5CxQCX3z4aOe9C1HFTZNnDxhye3E6Ouh6+1dhKaNZsNm/cAGaWRCrN3mgst7RRXA90nate7I3GSKbTYGbY/P56QrNmc1jDVFRdLw5fPw5pGrap3DLIkCnMOP8i2WY6wEmoGMDyyx7LnnwSV0MbFV7ZPmpHDncApy+Mauih4phxnBK6iHdXrQYzQyqTJRYzDlqPxFfN6sEwSGWyYGZ4+91VnBK6iPJjxqIae6wlERv8TsRfXqMV3jCuhuksX7ZUxngPYBIqBqj8skd09y7+q2WiLHvYlCs3nVINn86vRwd54J67MbMpsiZFs8TxRRmGQdYEM5vivrvv5F9P9e+b7uqSqoXtWMsgXfz2+EnE9sgyyEAloWKAspY9TILnXYKq66HKF0aWPezF6Q2hGv04atvomDmb3Tu2AyZRQw+YT4GxmEHM0IDJR9u30T7jfBw1bahGP05vqOC/I/FJfqp8YVRdD6HZlwKmLIMMQBIqBiAj10fx3Asv8bWhYyn3SCOcnexb7qjv4f+4z+DRJ5ZCJk0qlR6wnfWxWIxUKg2ZNI88sZRfNZ+BqpflELtxuAOUuUN8bdg4nn95JVD6FTWxPwkVA45GJ5Ikdm/nuNO7UE0hnLJtzzacntzZCsNa+eOMOWzdtH7fg3mgl5Lzg7UAtrz/HqNCl1tD2loicg3biMsTQDUFGTa+l+SenehEsuDXjjh4JFQMMPndHhcvvBs1tJUqKSHbhtMToNwdpuLYsZx/8WVgZkimUuyNDszqxN+yNxojmUqBmeG8iy6lfPBYKjxhCRY2UuUNoYa1cunN98pukAFGQsUAYhgGpglrV7/L90dOQ3kiUjq2CZc3iGrs43uebhY98CcgSzyRkNLx37mW44kkYHLbnXfzreYOVJMfpzQb24LDHUC5wxzR3MZ7a9dgDoDGYmGRUDGAxHQcMglOntqLqumU3R424fKFUA29/OiUfla8+FJuuWNgL3V8VoahAXhmxQv800kRVGMvLp9U3+zA5Q2iajo5dZofMknrbBAbXDPiqyWhYoDIL3s8+MRyKmqm4vDKYWF24PKGUHVd/Pi0s3hr1RrAtJY75AH82WjN3mgMMHn9nXf50Wlnoeq6cMmyXsE53AEc3hCVta0sXvasLIMMEBIqBgKtSSRTxHbv5Pdj+lAjArL+bAMubxDV0Mf/8U5l1Zo1ue2i8tD9IqIxK1isWr2aX/naUA19UomzAacngGryc9T4IPG9u4knUxKYS5yEigEgmpuceemVV6OGnilHmtuAFSh6+dnp57DqvffBzA6Y2RNflVjMADPLqvc28LPRZ6MaeiVY2IDTF0YNm8qV186VSZsDgISKEmcYmkw6zfoNG/jBqB7UiD45+bHAqrwB1Ag/3z8pwpur1gASKA6UWMwAsrz2zioOPymCGhHA5S3873wgc3gCqBF9/LClm43vv086ncaQakXJklBR4qK5yZntF1yHqu2SJrYCc7oDqJEhvuft4YWVr1pLHhIoDuw1H7Ou+RUvreQ7zV2oZhnuVmguXwhV00HXxfMB5JovYRIqSlh+UNCrr6zkGw2tlHtk+mAhOdx+Krz9VA6bxAMPLZaH61fIqljAvQ88SOXQiVR4+3HIGPoCXvsBytxhDmts443XX5NJmyVMQkUJixka0glO7JiJqpUDwwqq2Y+rpR91zDjmXHOddMIflOvfChZXXHU16ugxVI2aQWWzBItCcXmDqNouTu6eZW0xlW3TJUlCRYnKH2v+5GOP4hg2kUpvpOAPlYHLb500WtfLuLOvgnScWDwhXfBfMa21NZslHWfMWXNQdb25JmUJFoWQPx7dOXwSy598Ite0KdNiS42EihKktUbHE5iJGA0TumXffoHlj4T+r+OnEt25jVQqLaXfg8QwDFLpNHt3bOU3o6bk7gWp2BXuXgihartomtwHCQMdTwz4M21KjYSKEpSvUjz00IOoY8bgkLJvwTjcfip8/QxqnM7zzy6XT2cFvB9WPLOMQQ1tVLTMkP6KQmn242iZgRo8hkcWL5b7oQRJqCgxVpUiTjZuMOz0Nmuvvkc+mRWKyxdBDZ7I+Vflut7lcLCCiEatYDHryrmowRNw+SLIMkiB7glPEFXfQ+24DsykxojHZSmwhEioKDH55rSHH34YdexYHPKprIAPz9w0wckzSOzeQTyZlFJvgWitrWmOH23nyIn9qCbr91Poa2Qgcrj9VPr6KT9uHEsefVSalkuMhIoSY+g42aSmdmw7qr5XHpyFenA2+6lomcEhQ8bw/LNPS5nXBvLLIM8+vZyq40ZT2TIDhywLFoTLE0DV99I0oRszFZdhWCVEQkUJyT80H3tkMY6hE6j0ytHmBXto+kKo4dPpPO8KICvzKGzCGgaXZfo5l6Kqp8swuAJxuAPW82nYRB5f8qiE7hIioaKEGPEEpDS+trA1PVN2fBSE02ON4f7RiX52bPmAVDotyx42obUmncmwdeMGfnh8D2qEX8bWF4jLG0LVdHJ8+wxIx63eClH0JFSUiPz0zBdWrMBVM4kKXz/SiFYYVb4QqrqTK2+7X6Zm2lA0N23zitseQNV0UyUH7BWInwpvhKraKbz0wgsyZbNESKgoETFDg5nh9PBFuSqF7PgoBKcniGry8x+jphDbvYt4Qvbh243Wmngiyd6PdvHrUWeiGntxyg6pgshP2RzXfwmQkSmbJUBCRQkwDANMk7feeYfDmjsoc8sBSoXhx9USQR09jgU33pqrUsg6sR1Fc/1H826+EzVkam7SZqGvn4HHOhMkxLfdnby7ajWmaUq1oshJqCgBsdxJpP6LrkXVdEqVokCsXoog//eUbvZs30wyJb0UdqW1JplKsXvHdn59ehg1wo9TeisKwuUNomo6CV1yHWDK9tIiJ6GiyGmtSabTbPtgIz8ZOUkejgV9OIZQ1e1cdPP9UqUoAvlqxYU33oOqbpfG5gJx5BqbfzriDLZ/uEnCeJGTUFHk8g/G6268FTV0Cs6W/oI/JAYih9uPcof4vreDzRs3kEql5MFoc1prUqk0H76/nsO97ShZNiwYZ0sENfRM5t10mwTyIiehoojlG86Sxl6OntiPapQqRaFU+cKoodOYdlau4UwCRVGIaavBuXXmxahhbVTJ3IqCcHoCqLdAtToAACAASURBVEY/gyf1kzT2Ek/I9NliJaGiiOW3kT725DLK6juolA72gsgfGlZVPZFnlj4ug3yKSH5g3PKlT+KqtrZiy1j7AvEEKa/v4PGlT8n20iImoaKI5Rs0T20PooZNkw72AnHmjjY/cmIEM5WQkcNFJj/a/vfjQ6i6LpzS6FwQLl8YNWwao7v6pWGziEmoKFKGYWCasGbVu3yvuQ3licgnrEI9DL1BVF0Pl867UQ5HKkL5Q/guvHYBqr5Hdk8ViNMdQLnD/KNnOmvXrCYr20uLkoSKIpWvUly64DZUdYc8CAvEkZsK+LXqM3hn1Wop2xah/DLi26tWc8jw8VR4JaAXissbRFV3cMXCO4GsDMMqQhIqipSOx8noGEedOh3V0CMTAQv5EGzoZWj7BcQ/2kY8Kbs+ik3+WHRj5xYGt56LaujDJfdTQTg9QVRDD8ec3kE2bmDowl8f4vORUFGEYrmzC5585jmcTR1UeGQrXKG4WiKo4ybhP/diaytcNFrw60N8ftGo1bDZffZs1LGTcLVECn5tDUQOd4ByTxhXUwfLn35Wmp6LkISKIhTTccgkaL/0BtTwTtkGV0AV7iAOdx9PLF0OyBpwsdq3k+qJJ6ls7qPCLZWKQqnyhVDDptN5yfWQTRKTakVRkVBRZLSOk0wm2f3RR/zy+HZUc0CqFAXicAdQzUH+ceRUdu36iFQqibbBNSK+wH0Vj5NKpdi1axf/a8SZqOag3FcFvq9+9cdO9uzeTTKZREuwKBoSKopMvlP9oYcepqyhS2ZTFJB11keAhgldJPfuIp5MFvz6EF9CMkly7y5qx7WjmgIySK6QPEHKGrtY/Mij0vxcZCRUFJlorp9i7NlzZDZFgVX5Qqih0zn75ocAk6g8+IpazNBAhv6bHpZlxQLLz6wYP+vq3NhuubeKhYSKImIYBumsyeb1a/j5qDaUO4xTtr4ViB/nqBmoI0dz8+13ynkFJSB/js4N9zyEGjwBl5yjUzBOdwDVHOaXJ3SwdcNa0lnpVyoWEiqKiLX0keXBpc+ihrfilFMVC8bhDlDmCfONpmmseGqZlGhLQL5Z87llT/CNhqmUecLSV1FATm8IVT2NxctX5GZWyP1VDCRUFJF8P8WY3nNQdd0y8KqQDzxPENXYyy/GzWLntq0kZT5F0dNak0ym2LF1Mz8fOwvV2CvzXwrImlTbzbjAuTKptohIqCgSWmsSyRQfbf2QX46ZiWrskwdeAeXP+/iPaZfJ5L8SYvVVZPmPaZfJOSCFvsdywf1XY89iz7bNJCS4FwUJFUUif5riw48vpWz4JBy+iJRmC/nAy32KahzbBtk0hoSKkmAYGrJp6se0ouq6JVQUkMMdoNIXoXz4ZBY/sUwGYRUJCRVFIqY1ZFP4r70TVdNFlTzsCsqVq1RMn3E+mBmpVJSImKHBzDAtfC6qrkuWGAusyhtEVXcRmrsIzJTcZ0VAQkWxSCaJ7/2I/+cdixoZxGmDG34gy4eKc6+9UUJFCcmHinOuvkFChQ043QHUiCC/P/4MEns/klkwRUBCRRHQWpPNZnjjjTf42ohOytwy7a/Q8qHiurselJ6KEpLvqbj2zj9JqLABhztAWXOAQ5u7ePvtt8hkMtJXYXMSKopAfv/8JdcusLaSysCrgsuHinuWPi+hooTkQ8Vdjz8rocImnL4wangrl89bKPNgioCECpvT8Y8PEDt+1gJUdSdVMp+i4FzeIKq2i6WvrZY99CUkPwtmyctvS6iwiSpvCFXdyR/PW5g7YEwCvJ1JqLA5rTXprMmW9Wv4lXsCyh2RKZo2kA8Vy15fI6GihORDxbLX16BqJVTYgdPtR7nD/ItvMlvfX0c6a8oSiI1JqLA5w9CAyVMvv46qnorDK0sfdiChojRJqLAnhzeMqm7l6ZVvAFnZwm1jEipsznrImZxz6VWoetk3bxcSKkqThAp7cnqDqPpuzrviWsCU+83GJFTYXH40d8OUIKqmHZf0U9jCvlDxxloJFSVEQoU9ubwhVE07Ta2R3BAsud/sSkKFjWmtSaUzbNu4nl+MPRvV5MfpKfwNLj7e/fHoi29JqCgh+VDx0HOvSaOmjTg9QVRTH78cP4sdH24kmUpLX4VNSaiwsfxo7iceW4Jj8GgqW2bgkCZNW8iHilseXipbSktIfkvpTQ89KaHCRhxuPxW+fpxDxrD0icdlZLeNSaiwsViuSfPKex5DDW+nyidLH3aRDxWX3XQ3IBM1S4V1z2W4dOGdEipspsoXQg1v56r7npS+ChuTUGFjRjwOSc2YwPmohl5csvRhG/lQEb70WhnTXULyY7qDF18jocJmXJ4Aqr6XcaELIKkxbHC9iL8kocLOEkkS0d38uuFkOe/DZvKhYmxbj5xSWkLyp5SObu2Wo89txukOoEYG+femU0lEdxNPyDkgdiShwqa01mQyadasXcthx4dQI/1y3oeNOHOh4ujxAempKCH5noqjxvslVNiMwx1AjfRz2PEh1q5bRyYtzZp2JKHCpvJNmvcsWkRl3TQqvWEJFTbi9Fj75v9t2hVkUwkMebiVBK3jZJMJ/m3aFdZcGI+ECrtwuANUeMNU1k3j3nvvlWZNm5JQYVPRaBSAmRdeijp6PK5R/QW/qcXHnJ4AamSAI04MsPbdd8hksxjSOFbUDMMgk82y+p23+MEJftTIgGzhthnXqH7U0eM458JLrMPFotGCXzdifxIqbMrIHSJ2yvkLUDVdVEkZ1lb2bXEbdgYP/+l++dRUAvLVwYceuB/H0DOo8PXLFm6byR8udtrs/OFihb9uxP4kVNiQ1ppkOsPurR/wu9FdVpOmfGKynUEtYdSxU7nq/mVyJHMJiMas6bVX3r8cNaSVQT45Z8dunJ4AakSQP4zpYc+2D2UIlg1JqLAhrTVZ02TD2tV8e8hJlPlk6JUdVXmDqNpuWi+5AdJWdanQ14744gwdh5RmygXzUHU9Uh20IYfbT5m3n+8OPYX3160ha8qJpXYjocKGDK0hm+H5N1ejmnpxSJXClpxuP6o5xG88YzE+2kEimSr4tSO+uEQyhfHRDv6jeQyqOYRTgrwtOTxBVFMvL7y1BrIZaZK2GQkVNpQ/mfSGu+5H1XdKB7pNOdwBypr9fN0XYMMHm8mkU/KpqUhprcmkU7y38QO+7vNT1ixbuO3K2nnVxU33PCiTNW1IQoUNxXJru72Rs1A103HKyaS25fCGUdXTmDdvvjRrFrF8k+Y1181FVbfi8Eo/hV05vSFUzXQCM2fJiaU2JKHChvINYyO7Z6Oq5bhzO6vyhVFDpjI6fIk84IpYvjp4cuhi1NBWqqRJ07Zc3hCqup3mngtyDdJyz9mJhAqb0Vqj4wky8Rh/6L4KVdct5w/YmNPtR7kj/MuJHWx7fx3prDSOFRttGKSzJls3rOFXx7eh3BHpp7Axa0R+N0f2XoOZMOQMEJuRUGEzWmvSmSwfrl/Lr04JokbIAB67c3rDqKFn8uhTKwBTzgEpMkauSvHQ0qdRQ8/EKVUKW7O2lfr559Ehtrz/Hql0RoK8jUiosBnrAQevPv8s366bQJk3Ig1jNpc/XGx8zwwpxxah/HLjmK6IVAaLgMMdQHkifKdhEq+99DyATLO1EQkVNpNvGFvyyGLU70/EMWomlVKKtTWnJ4hq6uPnp4bY8eFGUnLQUdHQWpNKZ9i2aQP/+xTr9yi7rezN0ezHcfxZlP2uhScW/0kapG1GQoXNRHOVitueeB41tI0qnzRpFoOqlgjquMnMu/shqVYUkXyV4tp7HpUGzSKSb5C+44kVcr/ZjIQKm4kZGswMF93yAKq2S0qxRcLlCaAa/VRPCpLRUbQNriXx6XQ8QUZHGTbBj2r045L+paKQn2Z76R0PAxli0sdkGxIqbMY6SCxJ+/lzZH23yFR4gjibOnj62edknbcI5PuXlj/9LM7GDipk2aNo5HeAdFxwNWSSMiLfRiRU2IwRj0MyzgltIVRDr3xyKiJVvhCquoOx58/f9+lJeivsSWtNTGsgzZhZ16FqOqiSeTBFw+UJoBp6ObE9DKm4bCu1EQkVNpOfUTGkZTSqyS/bSYuIw+2n3DeDfxhyGm+/uhJTqhW2ZRgGpmnyxhtvckj9mVR4w3JoXxFxegKoJj/DThhLNh5DxxMFv6aERUKFDaUSmn8+YXquE73wN7D47Kxpfx2MP38ekGWvdKXb0t5YDMgy7rzrUDWdMrW2yFihoo9/PqGdVEKqgXYiocJmEokE0WiUH46/ENXYg0PWeYuKwx2g3BPi6yO6eOWtd63tblKtsJVYrpdi5ZvvcGhTJ+XukMyCKTIOTxDV2MMPx1+IYcRI2OC6EhYJFTaitSadTvP+hg384x8jqBF+Ofa8CLm8QVRNF6eFLwMzLZ3pNmNoDWaKU0KXyA6rIuXwBFAj+jj8pH42bdxIKiUnBNuFhAobMbQmm83yxuuv860WP6o5IKGiWHnDVFafyaNLHpPhPDaSHy73yKNLqBh+pvV7KvS1Ij43hyeAGhngW6MCvPXmm2SzWQkVNiGhwkbyW9yefeYZDm3uoswdlLJskXLlpmwOPr2T5N5dJJLySarQtNYkkikSez/iyNN7ZHpmEXO4A5S5g3zd3c2K52QLt51IqLCRfKh45JHFuBraqPCEJVQUq2Y/rpZ+1DHjuXjezbmpf1KtKKRorkpx4dybUMdOxNUSobJZdnwUI4c7QIUnRFVDG0sefVRChY1IqLCRfGn2rrvupHz4ZCp9cphYMXO4/SjfDL5bP5l3XnkRE4jJOOGC3Vsm8PbKF/hO3STKfDNkC2kRc7gDVHojlFdPYdHdd8sSo41IqLCRfKi4ceFC1JAJOHz9Bb95xZdjTf7rpLb1LNLxKIlkUpZBDjKtNfFEkrSOUn3mDFRdpzRnlgCHrx81ZAI33XSjhAobkVBhI9FoFIDrrrsONXgczhYJFUWv2Y9rVD/q2Emcd/FlsgxSiPsqd2jYrEuuQB03BVdLP3Lyb/FztvSjBo9j7ty5cl/ZiIQKG8mHissvvRj1h9NwybHnJSG//ntI3Zk8/tSz8gA8mPdUrvq3ZOlyqmomU+GRmRSlwY9r1AzUUadzxRWXW/dUNFrw601IqLCVfKg49/JrUEeOpWrUDCRUlAaXJ4ByR/iRZxpb1q+Wcu1BkB9ytWnj+/zgeD+qOSRn6ZQMP67jZ6J+fyqzL7xQQoWNSKiwkb25Mm3oliWoodMZ5JPRwaXDj8sXRg1tpWlcB/G9H5FIp9FaGje/CtowSKYzGB/toH58V24Ut/RRlJJBLWHUcVOJLLgPQEbi24SEChvJh4rwLY9KqChF+W2mw9sZHTgfkgY6npDGzQNMa42OJzETBif3zkINa7O2j0rVr6QM8oVQQ6cTuvWxXKiQgG4HEipsRELFANCcq1jUdRK55lYggxGPS7A4QLTWGPE4kCZ89c2o2k6qfJHC/97FAWeFijbCNz8qocJGJFTYiISKgcHhDuD0hFD13cy+6X4gjaElWHxZWmsMbQWKcxfeg6rvxumRqbSlKl+pCN8iocJOJFTYiISKgcN6owuiajq44LYHgQwxCRZfmNaamI4DGS649UFUTQeVMua+pEmosCcJFTYioWLgcbqDqLouZi28FzIpYjou44Y/p1gsZgWKbJJzFt6LquvC6ZamzFInocKeJFTYiISKgcfhCeD0WFM3Zy24G7JpEqm0BIvPyDAMEqk0ZFOcNe8OVF2nteQhW0dL3r6eCgkVtiKhwkb2bSm99TEJFQNI/g1Q1XVx5qwrie/eQTqTkXNCPkUsZpDOZInt2sb4/otQdd37/TxFaRvkC6GGtRO69XEJFTYiocJG9uam/0UW3Ic6biqDWsIFv3HFweP0hlDV7Yyc3MPundutB2U0Jn0Wf0Zrzd6oda/s2bmdxjM6UcOn4/RICB9Iqkb1o44+g7PmLMgNv5I5FXYgocJG8hM1L7pYxnQPRA53gEEtEVRtJz8fcxZPP/8iADohsyzytNboRAKAp557nl+cPhNV28mgUf3SlDmgfDxR85KLZKKmnUiosJF8qJgz50rUUafjlDHdA5LTG0KNCPDNhlbmLLwdM520lkMGeJ9FzDBIZzKYmRRXLrydb9SfiRph/bzkPhlo/DhHzUAdPYarr75KQoWNSKiwkfzR59fPn486djwOOaV0wLL6AoKoIa14+i7iw3WrcgeR6dyZIQOlcmG93mhMA/DBulW4ey9CDW2j0i0NmQOZo6UfddwZLFhwvZylYyMSKmwkHypuueVm1NCJOGQS4IDm9OTON6jv4fu1pzP/tkWQTmACxoBYDtEYWmMCZirO3Fvu4vu1Y1D1PQxqCeOUQDFgOdwBHL4Iatgkbrv1VgkVNiKhwkbyoeL+++6jsnYqld6wrBMLnN4g5Z5+1HGT8Ezq4rVXX4VsmmQqRcwwSq7fQmtN1DBIplKQSfHKypdpntiJOnYi5Z5+nHIw2IDncAeo8IZx1E7lgQful1BhIxIqbMTIHdW89MknOaSpnXJPSEKFoNIdwOH24/CGUHU9HFo9gc5L5rF184dgZkkkU+yNxjCM4g4XhmHt6kgkU2Bm2br5Q9ovvJZBQ8eh6ntweMM4pHdCuK1QUe4OcciIDpYtWwogs11sQkKFjRiGgWmavPTii3zD00tZs4wZFh9zuANU+UJUevtRNZ18z9fNzLm3s33zhwBkstmirFxorYkZBplsFoCtH2xkxrW38r983aiaThy+fut12+B3IOzB4Q5Q1hzgm95eVr78MqZpSqiwCQkVNqK1JpPJsOrdd/nOCSHUSL80oom/4HD7cXqDlI0MoIa1ccQfA1xw4yI2vf8ekME0sZZGYvadcaG1JhazljhMEzAzbHr/PS5YuIjvn+BHDW2jbKS1s0OqE+LPOTwB1Eg/3z0xzJrVq8lkMra91gcaCRU2orUmmUyyfds2fnDa2aimPgkV4m9yuAO4vCHKmvpQw9s53NtJ+/lzeOXll0gZe6zqRSaDjieIGbqgIcMKETFihkbHE2QyGQBSxl5eefll2s+bw/e9najh7ZQ19eHyytKf+NscniCqqZcjRs9i544dJJNJCRU2IaHChhLxOD8adz6qsQenR5rSxN/n8gYZ1BKi3B1E1XfjOG4sw6dEuHTejbz12krIJMG03sTjySTRgzilU2ttTTpMJgGrIkE6yVuvvcIlcxcybEo/jqHjUfXdlLut1+GSRkzxKZyeIKqxl5+cfjbJROGf2eJjEipsRscTpOMxfusZg2ryy7Y58ZnlKxeVvghqRBA1eALf8vXSOKmPa+78Ey88vYzY7l3We7tpQjZNJpMlkUoR05pozCAWi2Hk+jI+LXjk/45hGLlZEgYxrUmkUmQyWchmrO8DxD7ayQtPLeWaO/5Ew6RevuXrQQ0+AzUiSKU3IpUJ8bk4PQFUk5//9pxOOh5DxxMFf3YLi4QKm9HxBNmEQeOYqajGPgkV4vNrtsKo0xex+i6a/Khh0zj02FP47+mXcnrPTObeeAuvrd3IpvfXE9u5FTIpPvnHNE3S6TSJxF9/WCcSCdLp9L7QsO9PJkVs51Y2vb+BV9ds5LqFNzO6eyb/Pf0SDh18CmrYNFST3+qX8EWs67tZeibE5+P0BFCNfYwY14aZ0GgbPLuFRUKFzRg6DqkEY/znoup7cMnyh/iSHG4/Ll+I8pYZqIYe1PA2yuo7KWsO8qOmCdRMCTP1qkXMuOF+rp83lyVLlvDyyy+zbt069uzZ8xfBIpFIsGfPHtauXcvLL7/MkiVLuH7eXGbccD9Tr1pE9ZQw/9Q0gbLmIGX1najh01ANvVS0zMTlk8ZL8eW5PEFUfQ/jgudBOoGhC//sFhYJFTZjaA3ZFOE5N6Jqu2R9WRwwjmY/Lm8Qly+MIxdWyzxhq5JR04kaMhU1ZAJVTe18w9vLd0+McMTps/jR2PP+whGjZ/HdEyN8w9tLVVM7asgE67+v6bQqER7rhF2Hx/p+Lm8Qh1QkxAHi8gZRtV30X30TZNPEpEnTNiRU2EzM0ECG6x58ClXbTZWECvEVcrj9ON3WQ7rKF8bhi1DuCaGaA6gRfajGnr9tRB+qOWANafNFqMqFB2fu6xb6tYnSVeUNomq7mbf4WSBLrMgHv5USCRU2kx/V/cCSJ1F/GI1LTioVQohP8OMaNQN15Gj+tORJGdFtMxIqbCYfKp5+bDFVR51IxaiZ8qlPCCFyHG4/FS0zOeSYk3j2iUclVNiMhAqbMQyDrAmr33qdH/raUc0h2QEihBA5Tk8A1Rzin1o6WPP2G2RNOffDTiRU2IzO7fPfvX0L/3fiLFRjrwzAEkKIHJcniGro5T8nn0905zYSyZRM07QRCRU2FDM0mGmODVyHqu20BhrZ4GYWQohCc3lDqJpOjgvOlSZNG5JQYUPRXF/FaR0hVPV0XHJCoxBCUOnOhYrq6Zze1Q9AVPopbEVChQ3FDAOA2ZdfhaptxymVCiGEoNJtnVyraju4aM61VpOm9FPYioQKGzIMDWaWB5Y+KyeVCiHEJzg8AVRTHw8/9TyYWQxZ/rAVCRU2ZE3VzPDW2vWU106lUioVQghh8YSoqG3lnXUbIJvBkCZNW5FQYUNaa9JZk83vreZntaegPP0yq0IIMeA53H6Up5+f15/GlvVrSGdN2flhMxIqbEhrTTyZJLFnJ7VdF6Ea/bhkCUQIMcC5PAFUQx/1PZeQ3PsR8URSQoXNSKiwqWjMatZsvWg+6ripVLWEC35DCyFEIVW1hFHHTaXt4utzOz+kSdNuJFTYVDQaBeCqOVeiBo/H2dJf8BtaCCEKydnSjzp2PNdePccKFdFowZ/VYn8SKmzKyG0rXfbU0wzy+Cl3B3HY4KYWJabZj6PZb51W6gng9ASt49H3CeHyhqjyfSz/v33y7zk9QZwea83b0eynUo45FweYwx2g3B3kEI+fp555BpDx3HYkocKmtNYkkyl2bN/G4e421MiAhArxJX0cHvJBwTWqn8qWmZR7Iyh3CDUygGrqRTX2ohp6LPXdqLquj9V3f/z/NfZaf39kAOUOUe6NUDlqJq5R/fsCSD5syGm74stwuAOokX6+75nOzh3bSSaln8KOJFTYmE4kyOgow/54BqopIAeLiU+Xqzq4PEGqfCGcvggVniBlI/tQzUHUiCCqrgc1vB01dDrqD2NQR55G+bCJDGqYxmHeHg4/KcIRp87kh6edxY/HzOKn487jFxMv3Oen487jx2Nm8cPTzuKIU2dy+EkRDvP2MKhhGuXDJqKOPNX6ukOnW9+nrsf6vs3Wv6PSE8Tpi1ihwxO0AodUNsSncHoCqCY/1SdPJKOj6ESi4M9o8ZckVNiYoeOQSdJ31a2ouh5cXjlYTOzP6Ql8YmkiiGvUDMq8/ajGPlRNB6p6GmUNXVR6I3ynYRK/HTUBd/dspl15GzPveJLZ1yxg/nXXsmjR3Tzx+GOsfOkl3lu3lg8/2MTWLZvZuWM70b17yKRTpFNJMukU0b172LljO1u3bObDDzbx3rq1rHzpJZ54/DEWLbqb+dddw+xrFjDzjieZduVtuLtn89tRE/hOwyQqvRHKGrpQ1dOsf19jH2XeflyjZlDlC+57LRKgxZ+r8lqBOHDt7ZBNEZMqhS1JqLCx/A6Q2x5+EjV4Iq6WSMFvbFF4ViUigKslQpkn/PHyRH0P6vcncXjdOP5n6mx8Z80jOHMWd9z7AG+t28DWLVuIbv+QrN4LZoa/9SeTyZBOp0mlUiSTSRJ/9okwkUiQTCZJpVKk02kymb/9tTAzZPVeots/ZOuWLby1dgN33Hs/gZnn4D1rHv8zdTaH141F/eFk69+fW14p84RxtURw7Vs6KfzPXRSWqyWCOnYidzyyTHZ+2JiEChvLN2u+uuJpvtM4BeWJSF/FQNTstxoifWHKmwOokUFUbQ9q8CQObWjlV2ecx8ltAebet4RnVjzP6ldfQu/eAZgfv7lnM5jZDKlMlkQyhaGt0BqNxYjlGIaB1no/f+/6/PO/axjGvq8VjcWIxgwMHSeRTJHKZDGzGch+MoCYGLt3sPrVl3hmxfPMvW8JJ7cF+NX4czm0YSpq8CTrdY4MUt4cwOULW9U6WSoZcBzuAMoT5nsjpvLGi89hSpOmbUmosDGtNToeJ6Vj/FfrRaj6blkCGQia/fstazhGnYVq6EMNa6WiuY9fuCcy8fy5XH33Yp5b+jjaiAEmpmnm3qohmUoTy73J2+3huy98GAbJdHpf9DHNLGCijSjPLX2Mq+9ezMTz5/IL90Qqmq3Xrxr6cIw6a/9lEgkZJc/lDaLquvnttIvJJAy0Da5j8ddJqLC5WG4JZEx7AFXTjkvOASlpDrffWtZwh6ylgNpOBh39R46adgFdly3gmRXPs2vnDtLammOSNc1PVB0+rjwUS1e81nq/yka+upHNBaS0jrJr5w6eWfE8XZfdwJHTZlN19MmoWmsnSpk7hKslIkskJc7lDaFq2hnfHbZOJpWlD9uSUGFzMUMDWRbe+zCqoRenRyoVpcbh9n+8tDEiiDpmAt/xdjFkTAdX3ngHr7yyEmPX9lyLQoZkMoWOx4nmlyxscJ0eSDpuVTOisRg6HieZTGHm+jZiu7bxyisrufLGOxgypoPveDtRx5yBGvHxEokEjNLj9ARRDb3c8sASIEtMTia1LQkVNmf1VZi8/c47HDp8LBVe+VRWChxuq6Rb1RKhwtOPqm5jkMfPUWfO4rL5N/HmyhcxzQyQxQQSyRSxmFE0FYgDzapoGCSSqdxySRbTzPDmyhe5bP5NHDnlHAZ5/KiaNiq8/VSNiuDyBnHILpKi53D7KfdG+Ifq8bz77iowTdst6YmPSaiwOa01iVSa2PYPOWpiP6opIIeLFbPm3LwRTwjV0IsaPIGfuifTfflCXn75JVLJOJgZMqZJ1LCWA4ppOeNg3A/7lkoMg4xpgpkhlYzz8ssv0XX5Qn7aPAl1zARUQy+VOe4bVQAAIABJREFUnnzfhQ1+9+ILcXkCqEY/g888G2PHFhKptNwPNiahogjkt5ZOvewm1JBWqnxyuFixcbj9OL1hq1eipptBde0cM2UG82++jW0b37OWNrJZEskkMUPLJ7HPyDAMYoYmmUxiZrMAbNv4HvNvvJVjJs9gUF07qqbb6r3wytJIMaryhVFDWmm9/JbcVtJYwa878bdJqCgCsVgMgEX33INq7KLSI82axcLpCeDyhSj3RFDD2zh0yGhO7p3F8pdeIxu3fq/pTHZAL20cKPklknTGChfZeIzlL73Gyb2zOHTIaNSwNso9EVwyXKu4eEKUNXZx3/33W301ErhtTUJFEdA6TiqVYuuWLXy/aRKqWQ4Xsz8/Tm+IiuYgqqaD7zVOYfrZF/P2669CJkXWJLdrw35bPotdvsnT2kUCZFK8/fqr/7+9+46Pqz7zPf6TNEVOyM2m7N7Npuze3U1yk929N3dTNrmXUFzUJcuaIgOmGWNjS7ZsdclT5Yrp2HRMhwRIANvEEBJ6tU0N7mCKDRh3rDnnTD+f+8eZkU3oMCozevx6vf/Ji9jSzJwz3/P7Pb/noW3RRfxtbTOqsoOShgAOTxCZRzKyWfM+/Hy7vpm9e/cQTyQKrjC50EioyBNGNEba6KexNYyq80ldxQjm8IYododQ5W38XX0LvedfzmuvbMdMxqxVCd2QI3FDRNOs7ZFkKo2ZiPHa9m30nHcZf1ffgipvo9gdwiHbiSNWtp7i5K5FmNEIRlTmfYx0EiryRLau4upVD6LGNVMqLbtHGB9Ojx+7x9rm+Gb1LLqXreDNV7dlGjuZ6J+iS6UYHIZhoBvGQIOwN1/ZSvey5XyjeiaqfB52Twinx3ofh/+zJAauqckLUL+exvV3rJJ6ijwhoSJPZFt2/+X5DXzd1YlyBWULZISwN/iwe0Oomh7sdZ2cEzyPTS8+B5gkkkk0uRGOKJqmkUgmAZONzz/LjOB52Ot7rPfPG8YuHTpHBLvLj3IF+Yark43PPyutufOEhIo8ohsGJOMcO3sxqroLh7TsHuabng+HJzNOfHwT4+Yu5qkNz0EqSTKVklMcI1j21EgqnYZUkqc2PM/YlsWocU2o+gAOT0BOigwzhyeAqu7iuDlLIZVAl4ZXeUFCRR7RMo2wLr7uVlSNjEIfTqWeADZPCFXdw49dM/nt3atJZVpn67qBIWEiLxi6jq4bAKT0fm6/azU/ds1EVfdg84TkGhtGTk8AVdPD8ht/C5hy6iNPSKjII9ktkBc3bWFMZRM2TxjZAx5aDref0sYQaqKfL1U1037RSvbvfhsAIxqVmok8ZQ3viwGwb/dbtF5wLV+qbEbVW++3HEEdWnaXD5snzJcqm3lp8zZroq2EirwgoSKPGIZBNJ4g/t4+xs9bhqrplSepIeTwBCh2hVBlczlu7vmsf/5FMJPEk0mrgEwCRX7LdOuMJ5NgJln//IscO2cZakILxa6QzN0ZQtYqRS8T2s4ncfgARiwugT1PSKjIM5GI1TBp2dU3ocrnyXG4IWB3WcdEVZ2Pvxl3OhdddR1Rrd/a6pATHQUne1IEwIgc5sIrruVvxp2OqpuPwysF0kPB4Q2hyudxwbW3WKc+IlLsnC8kVOQZwzBIp1Jsf+VVvuTupVhmGgwqpyeA0xtGjW/h180LefmlFzJbHTFZji1wuq5jxKwtkZdeeJZfzTkXVd6G05s9fioGS3GDny+5e3nl1R2kUjLrI59IqMhHsTgJvZ+quQulEdYgcniCqHofzpoOfBdeTkyLkEym6I/IgK/RwjAM+iMayWQSQ9eYf8HlOGs6UPW+TEfO4f+cFhqr4dV8aloXkzAiRGPS8CqfSKjIQ5HMLJArb7kDdeJMnI19SMFm7gxsd9T08MP66fz50cchnSIai8vqxCil6zrRWAzMFPc/+Aj/WnsWqqYHhzck2yE5lWl4dfw0rr3pVml4lYckVOQhwzBIplK8/cZr/OMpvdZTkxSR5YS13WHt53r9l/LOmzuOGmIkqxOjm5E51g1vv/Eqbt8lqPJWnN6wFEzniMPtR9X7+KcpPnbvfINEMiWrgnlGQkWesm5uaaZ2L5SeFTm8oRU3BLCPO4e+8y4inbAGufVLkZg4Sn9EI5FIkIpHCZ97ASVjp1PcEMAxAj7D+c7pCaCqe5jWuxhIS2+KPCShIk9lG2H98ckNqAo5BfLF+KzViZr5/IO3l9Vr7wfSst0hPpK1HRIH0qy6dy3fapyPqvVnrkPZivy8HN4QqnIef376OWl4lackVOQpwzCIJZJE9r/LL6f5ULXSs+LzcjZaQ8D+t2sGm7a/OrDdIcuu4uMYhoGW6cb58rZX+N+uGdZ2SGPfsH+m85HTE0DV9vJ/pwfQD+whlpBTH/lIQkUeyxZsnrfiSlR5q6xWfA4OTxBV2cnEpvkcevct0ib090eQ+gnx6Rj0RyKkMTnwzi6qZ3SiKjvkZMjnuRa9IVR5KxdcfrUUaOYxCRV5zDAMUskkb+56i697eihyBaQS/VOyu/zY3QFUZQdzz7uaeP9BEikTTZPlVvHZaZpOIm0SPbSfWYuWoyo7sMv1+JmuxyJXgG94e9j11tukkglZpchTEirynG5EIR1n5sLlqMpOSr3yhPRJHC4/dm8YVdXJwut/D4kosURS6ifEF6LrOvFkChJRFlz3O1R1F3ZvnxRwfgqlXmvFcNbiFZCKoxvD/36Kz0dCRZ7TMlsgjz3yMM7KZoo9cm7+49hdfko8fdh/PYXL7/iDVQxmRCVQiJzQdR3NiAFpLrtzLfZjp2Dz9MkY9U+4JovdIUqrZvP4Y49YNU2y9ZG3JFQUAN2Iko4blJ3RYs0nkA6bH8rh9lPs6cN53BTuvOO3UpApBsXRBZy33nITzuOmUOzpk+vyY65LVdtL5VnzMBNRWaXIcxIqCkD2eOnt9z+CqmjDKVsgH+B0+yny9HHM+KmsWXVPphBMVifE4IlkGmWtuedujhl3JkXePmmp/2HXpjeIqmzjzgcek2OkBUBCRQEwDIN4Msl7e3fzk7OCqInSYfN9Ny23n2LPAr46/iweuP8+qSwXQyZ7QuuB+9by1fFTKfYukGBxFIc7gJo4n/88O0T/vneJyzHSvCehokBkb16X3fgbVEWbHGnLsLv8FLn7+MrYM/jT/WsBpEOmGFL9Eeva/NP9a/nyCadR5O6TuqcMhyeIqmjjiptul7BfICRUFAjDMEgkU+zf/Rb/4pmLagjhGOXFYQ63nyLvQsYcewpr16ySm5YYNtnQf++quxlz7CkUexeO+hoLh8uHagjy/cZWDrz7NomkrFIUAgkVBSQ77GjRpVejyubhHMXNsBxuPw5vGNuvGrnzdqsoMxKJDPt7JEavSGbF4vbf3IbtV404vOFRvWLh9IZQZfNYvOLazIkPqaUoBBIqCog1vTTNG69s5R/qZqFcoVF5lM3u8mPzhFATZnP9dSutLY9+CRRi+PVHIgBcdd0NqLIWbKP0CLjd5Ue5gny3vomdO7aTTKVllaJASKgoMNnViuD5y1ETWkblaoXDE0RVd7HkplVHjS0f/vdGiGj0yDW68Ia7UVWdo7L+yekNoSbMpe/iK+QaLTASKgqMruukTHhz+xa+M7EJ5QqOnr3bBh+ljWFUZQdNi1dAKoYRjRKVJyAxghiGgRGNQSLKOX0Xo6o6KW0MY2sYHauKDre1SvG9hjnsenUrKdOU5nMFREJFAcru3fqWXoQqmztq+lY4MwOJ6mZ2E+8/SDSekJuVGJF0XScaTxDvP0T19A5UWeuoWVV0eoOosnkEz18uxdMFSEJFAcrWVrz1+qt8t27mqKitcLr9qDo//+WZyXvv7iKRkqcfMbLpuk4ybXJo905+7joHVecv+B4WdpcP5Qrxj/VNvP3mayRTKamlKDASKgqUpln7tktWXFPwJ0Gs5dQQX/P0snHbK1JJLvJG9jp9ecs2vubpQblCBb1dmT3xsezKG+Q6LVASKgqUYRjEE0n2vL2Tf5nchpoUKNhpiXZPiJJxM/jd6nuluZXIO9nmWHfcs5qSsTOwewrzAcDh8qMmBfj+SR3sfWeXdM8sUBIqClgk8xR02U13WKsVBVhl7vCGUONbOPeCi639WV2XwkyRXwxjYE7IkvMvQo1vsXqsjIDrK5ecHquW4spbfyezdwqYhIoCZhgGsXiC6KF9/PSchaj6QEHt2ZZ6g6jqHhqDKyCdxIjG5MlH5CXDMIjGYpBK4PZdgqrpobSACqydbj9qYoCfzVpM7PABovGEXKsFSkJFgdMy7YHvXr0GdfxU7JMXFsTRNYfbj5ro48cN57DnrTeIJ5NSmCnymq7rJJJJdu98jR/WT88MBhz+a+0La/Bhn7wQdfxUVt37h0wthWxRFioJFQXOMAyMWIyU0U/ljE5UdVdBbIPY3UFstR388eFH5ViaKBjZGSFr//QQtpp263M+Aq63L8KZaUZXO6uHtBGRFcUCJ6FiFNAz+7VPP/E4X6ppweYO5nVrYKcniCpvI3TRFYAp3fhEQdF0AzDxn7cCVd6W1w8BdpefEneQL9fOZf0zTwHIimKBk1AxSlg3qhQt512FqplPqScw7DeczxcoAqiJPn7dch5xQycWj8tTjygo2VqouKFx7JxlqIk+nHl6vZZ6gqjqXtouWgmk0HS5VgudhIpRQtcNUqkUO3e+yXcmzrKOmObZfq3d5afIHeIrY8/guQ3rrVUKqSAXBShbC/Xc+mc4ZtxUitzhvGtg53D7UfU+vlvfxFu7dpFMptDlAaDgSagYRbKNdq668VZUWUvete8u9YZQ4+ewZMXVMoRIFLzs4LEFl1yFmjAn7xrYOb0hVEUr19x8m9Q9jSISKkYR69hanJR+mLFzz0VNDFDqGf6bz6e6QWWOpP2yaZF1JC0m2x6isBmGQTQeJ3Z4P/81c1FeHQm3tj26qTi7g3RMx4hJceZoIaFilLGKNk3WPfs8X6qYSbE7NOKLNu0uHyXuEPaymTz8xNPS3leMGtnVxQcfexLbhBmUeEb+Noi1TRnkmMpZmW1KKc4cTSRUjEJW0WaS3ouvRVV1jfgmO6WeAKqqm9bzrwGSUuwlRhVNN8BMMnfZlajqnhFfZF3qDaKqugisuF6KM0chCRWjUHYuSP/+Pfz8pNmo+pE7HdHh8qEaQvywfgb739lFIilTDcXoYhgGiWSKfW+/yb/WTbOGjo3Q1Qqn2zqd9V+ntBA5uI94QjpnjjYSKkapbHX5Q489gb1q7gjtXeHD0RhGjWvmhtvukGIvMWplm2Jdd8tvUOOacDSGsY2wYGF3+bG5Aziq5/Lw409J58xRSkLFKJatLu8ILUaVt+NsHFlDjJzuAKqmh7HNfaS09zCkOFOMUlZn3DiJyCGOnxVC1fbidI+sbRBnYxhV3kZX31IZGDaKSagYxaxl1SSH9u/lp2f0oOp6cIyY/Vofdk+I4vpenly3QY6QilEvW7T5+NPrKKrvzYxIHxmrFQ5PAFXXzc+m9nLowD4SMtZ81JJQMcplt0GeePjPOKtaKPb2jYjqcqc3hCpv5czuhUBaAoUQ0ezqYprTOvtQ5a0joneF3eWjyNNHafVcnnrkIdn2GOUkVIiBJ6DgiutRY5uH/UZl3aTCfKV8Oi8/twFTjqQJQTR6ZI7PSxvWcUzZ2RSPgCOmTm8INa6ZvstvlG0PIaFCZGYNJBJED+3juObFqIn+YZ014PQGURVtzAmeK0fShPgr2Tk+swOLURVtw9oZ1+kJoOp8nNiylNjh/UTjctpjtJNQIYhGrdWKtGmycfMW/nv9XIom+bAPwzHT7HyPr1fPYtNLL8gqhRB/Rdd1TGDji8/ztaqZFLmGp4Gd3e1HTfLzrYZWNm3ZStpMS1M6IaFCHJGtr7j5lltRZXOwD8PSqtMTQFV2MG/BBdI5U4iPkN2ynB1chqroGPKVRbvLh80bRk1o4bbf/FbqKMQACRXifXTDAEyall2NquqkdAjrK+wuH0XeBXyzZhavbNlE2jRlqqEQH0LXDUzTZNvmjXy9aiZF3gVD+gBQ6g2hqrqYff61gFyn4ggJFeJ9rG6bCSIH9nDcqS2omh5KvUPzFOT0hlET5jA7uNQaay61FEJ8JKu2wqTJvxg1oQWnd2j6zJR6A6iabk48sxXt0F7pmineR0KF+IDsNshLL7/MN73zUQ2BQd+ztbv8lLgCfKm2g2fXyxAiIT5J9iTIs+vXMaa2g2LX4F+nDpcfNSnA3zb62bhpE5imbHuI95FQIT5Uti3wnavuRU1owjbI/SucngCqupvGwApIJ2Q5VYhPQTcMSCXw+C5FVfcMam2FVUfRh5rQxF1r7pO2+eJDSagQH8mqr4C+pctQx02ndHIftobcBwu7y4/dE0JVzuPBJ5+RAk0hPqVsweafn3gaVTkPuzc8OKsVDT5KJ/ehjp/BwvMutK5RCf7iQ0ioEB/JMAz0aIyU0U+j/1JUde+gnIl3eqw92gnNfcS1w+gj4HcXIj8Y6NEo8chhxjWFUTXdg7Ja4fQGUdW9NAaWkzIi6NGY1FGIDyWhQnwsXddJpFIc2PMOP5nSjqrz5TxYODxBVFUnoYuvBKBfVimE+NT6M6sVgQsvR1V14vTk9vp0eoOoOh//eVoHB/e8QyKZknon8ZEkVIhPlF1i/cvz6/nOhFMpnuTL6eAxu9tPcYOPL3v83PPIM4BpBQt5EhLioxlGJlCkufvhp/myx0dxQ26b1jk8AYom+fhu2WlsfGGDbE2KTyShQnwqkYhVuPmntWsoLZ9FkTuMI4dPQ3Z3gOJ6H876Xu780+OZs+9RCRZCfBjDQDOigMntf3wUR30PxfU+7Dkch+5w+SlyhxlTPos/r11jFWZGIsP/u4sRTUKF+NQimRWLq+78A6qyFbs3lNMTIQ53gOJJfsbU93DT6j+CmUIzorJ3K8RRDMNAN6Jgprhx1R8pre+huMG6fnIW8l0+q3i6qo1r77pfBoWJT01Chfj0DAMjGoV0nMCFV6AqWnE25vZEiMPtp6TBj622k2vuWAWkiOgGhiE3NCEMQyeiG2AmueK2u7DVdlLSYF03uboGbQ0+nI19qMpWQpdcZR3xjkaJRiXci08moUJ8JtkTISRjzOpdgJowB+fkBbkNFh4/dneQ4toullx+HSRjxOIJKQ4To5qu68TiCUjGWHTZSopqOrG7gzg8uQ0UjsYFqAktzPEvglRcTnqIz0RChfjMrJtbkrh2GPfUZtSJTZRODuc0WNhdfuzuEGr8HGb1hEnHdBLptHTvE6OSpmkk0mnSMY1Z3SHU+NnYPTmeTprtRXFiE+6pTST0fmLxBIaEefEZSKgQn4uu66TSaQ7vfYdjp3ajKrspzfFRU7sr89R04kxqzunk0MEDmGaaSESChRg9IpqGaaY5dHA/lS1h1Ann4GjM/QCxUm8IVdHJCVOaiezbTSqdltVB8ZlJqBCfm6ZpJJMp9rz7Lj9rPg9Vk/s2wXaXjzEn9aGquvhZ07m8un2rtAcWo0a2Xf6r27bys1lLUdU9jJmc+5b5Vpv8Hn4++zz2vLubRDIpq4Lic5FQIb4QTddJp1K88cbr/NvUMKqmN/cd/Rp8lHqDqLr5/HBKL089/pg1cMwwZK9XFCQj89kGePzRR/j+lB5U3XxKPcGct8q3Otr28L+mLWDXzjdJp5JoskIhPicJFeIL03Qd00yzfdtW/m1aX+bml/tWwQ5PANUQ5KvjzuTq62+GdJJoLC43QFFQNF0nGo9DKsmV19/MMSeejmoI5vTI6MCWhyeAqpvPv09bwKvbt2GaabmexBcioULkhJYZw7xl8yZ+cLp1oxrjzf1N0O4OUNIQQFW207z0coyDe0mZJv1SZyEKQH9EI2Wa6Af2MHPRClRVOzZXIKdNrbLGeK3r9IenB9i6ZbPVLVMChfiCJFSInBlo5/3Si3z/lF5U7fyctvM+Eiz8OL1hVEUbx57Rxiuvv5G5Icp2iMhPhmGg6dZ2x/bX3uD/nd6KKm/D6Q3ntO32+7c85vP9U+bz8l9ekuZWImckVIicyq5YbN60ke+f6kPVzs/5gKOB7RBvCFUzn++eHGDtA38GTGKJhDxtibyiaRqxRAKANffdz3dO8qNq5g/KRGArUARRNb384DQ/mzdtlBUKkVMSKkTOZVcstm3dzP88M5jZChmkYOH2UzQpQGl5M+FzL0Tvf49kKkV/RJNVCzGiGYZhbXek0kTeO0j38ptwljdRPCmQ2w6ZWQ0+xniDqLpe/n1aH9u3bZEBYSLnJFSIQZE9CvfK1s38x1l9qOru3J8KyQYLTwC7O4gaN4djz57Plsw0RV3mhogRamB+B7Dx2Wf4f9N6UWXt2D2hQSnItDX4cHpDqOoe/te0PjmaLQaNhAoxaPTMHvHbu97k57PORVX1UDo5t7NCsqxGWX2oynb+pm4uV99+D8QNktKFU4wwEU0jmU5D3OCq397NV6tnoyraceZ4QN/7AsVJC1AT5vGLWUt4+61dYJqy5SEGhYQKMag0XSedTrPvwEHKprWjxs6i9ORFg3PzdGUmnbrCqHFNnOy7gHfe2mU9kemG3ETFsNK0zDAw4O233uIk/8WocU2UuMODUtCcDdulJy1EjWum6tRzOLjvXdIm0ilTDBoJFWLQaZpGPJWmf/9uPGfPQU1owe4ND2Kw8OGcHEZVdfPDKd2suecuSCdJplJyMxXDwmprnyKdinPXPav4wZRuVFU3zslhHIN0HdhdPmyeEKpsLpNnzqN//x7iyZSs3IlBJaFCDAlN14mn0sS1w7SEzkVVtWH3BHM7EOl9fDi9QYom9mIbN4NT/Rfy2ps7IZ2ShlliyGi6TjQWBzPFa2/uZIrvAkrGzaRoYvZ0x2AFCj82dxBV1c68BeeR0PuJJ9PougQKMbgkVIghYxgG8UQCUnEWXnYdRdWd2BsXDloBp81l9bRwePtQVd38vaeLq264hWTMIJFM0h/RZOVCDApd1+mPaCSSSRJRnStvuJm/93ShqrtxDFLviSynJ4Ddu5Cimk6WXHkjpBPWtFEpWhZDQEKFGFK6rqMZUTCT3Lr2IasF8cT5OAapl0X2qW1MYxB7gw9V0U5Fy0I2v/gsAIlkUoKFyCld10kkkwBsen4DE5pDqIo27JkjnfaGwQsUDk8QNXE+x4w9nVvXPgxmEs2IymdcDBkJFWLIGYaBlhmW9Nif7uMfq6aian1WsdognAw5etXC7g2jKjv4am0LgctuZP++vQDE4gm58YovRNd1YnErTOzd8y7+y27kv9W0oCo7rBqiQVydsDf4rC6ZtfP5p5ppPPnwA9axaukyK4aYhAoxbLLdN1/Z/DK/mNqLqp6Pc/KCQStcO/ppzpof0s0PvPO4+dZbiRsRTEx03ZBwIT4TXdfRdQMTk5jezw033cT33S2oym5KGgKDugpnc/lxZI9TV/Xyy2nzeWXLy9IlUwwbCRViWEUiEVKpNP0H93Oq/0LUsWdia1wwaCdDBm7Ebj9jGkMU1/tQZS2cMDPIY089A6RIptISLMSnYp3qSAMpHnn8KY4/J4Aqm0PxJB9jGkOD0xnz6BUKlw+bdwHq11M5PXQJ/QcPWB06I5Fhf23E6CShQgw7XdeJJRKYMY1F51+MvayZooZg5glv8MOFwxtCTQoyZsJ0ZvmXsOWl58FMW+f5DVk+Fu9ndcM0SJuAmWbj8xs4J7AM54QZqPogDu/ghwmby4fDE6RoUhBHeTNLLroU4rps44lhJ6FCjAiGYRCNJ4A0ax54iG+f7ENVtlPaOHj9LP46XJS4Q6iyVr5afjazg0vZumkjJOMkkik0TZeb9Sin6zqappNIpiAZZ9uml2kOLOG/jZ+KKptHiXsowoS1OuH0hlCV7XznFD/3/ulhwCQaj0sAFsNOQoUYUbKtvV/duony6V2oqi7rCN4g36htLj+2Bh8OdxCbO4yqaOcbVTPoXHoJO7ZtAUwSyaQ0DhqlNE3LnOgw2bFtCx1LLuHrVTNQle3YPGHrczOIRcZHAoUfhyeMquqifHoXO7ZtHijIHO7XSIhoVEKFGIGysxEiB/Yy96LrKR43g6J6a5tiqG7cTk+QEk8fqqKVb02aTfiSq3l35+sAmKaJLsf0Cp6u6+hGFNM0Adj95g5Cl1zNt+pnoypaKfH04fQEh2Qlzdbgw+ENUVTvp3jcDOZdfAPagb3WdSJBV4wgEirEiKTremY7xOT++9byLyd3oyracDYOXlvjD4SLBh8OT4giVxBV3sb3vB3MDS9j68a/QDJOKp1GN6yZDrLsXBgMw7C2uowoqXQaMxlny8a/MDd0Lt/1tKPK2yhyBXF4QtiHIODaXNbpDmdjGFXRyr+e0s39963NbHdI/YQYeSRUiBFNz/SzeHPHdmrPbs0sN/dR6g0O2U09WxRXPMmPqmjnm+Vncday63js6XWk4waYaaKxOP0RTQJGHsoGif6IlmmpnSYdN3js6fWctew6vlk+FVXRTvEk/5AUDx8daku9QWyeMKqynYYZ83j79Vet46LyGRMjlIQKMeJpmkYybZIy+rnyd3/gq9VNqJpuHI19Q7P0nH1idPuteSKePlRZOyU1HYxvDnPXmrVEDu7PbI2k0aPW6sVwv27i03y2dIxoFNNMW9NsD+7nrjVrGd8cpqSmA1XWTrGnD6c3OCRFmAOBItt7oqabr1Y3c9Xv1pI2+kmk0lLXI0Y0CRUiL+i6TjQWs1ofv/AsJ85ehDrhHGzu0KCNjf64J0inJ0iJy+pgaBs3kx9NX0zPpdezfctmzLgx0AJc0w35EhhhNE1D042BVtpm3GDblk30XHo9P5q+mJJxM1G18ylxBaw5GkO2IpYJr56ANQzshJmcOGcRmzIt5aOxGIZsd4gRTkKFyCu6rmMCxuEDLL3kcr4yqRNV3c2YyWGc7qENFzaXtd9t84ZRNT2oyk6+UdOEt+8qblu1lv4DeyGdxAR0I0p/RCOi6RhGiLokAAAQ1ElEQVSGfDEMJcPQiWS2N3QjigmQTtK/fy+3rVqLJ3wVX6+eharsRNX2YPcOXd3OgAYfTrefMZPDqOouvjKpk3MvuRzj8EFM6Y4p8oiECpF3NE1Dj0YBk/Xr1nHcmW2oqi5KJvkGdeLpR65cuKx/d4w3iM3bh6rupqSui/84aS4Lrvsdjz/+BDEjApiASTyROZoq++KDy7BWieKJ5MBrHzM0Hn30MfpW/o7/mDyXkjprcqjN28cYb9BamRiGQOHwhChuCKCqujh+agfr168DzEwhsKx0ifwhoULkJcMw0HQd0zSJHD7ExStv5h8aWlHVPdg9IRzDsGqRDRil3gB2TxDVEEBVdDCmag4/bVrGuVffxIaXt3Joz9sApFNJ4onEwBeHFHjm4DOhWasR8XiCdMra3ji05202vLyVJVfeyH82LaO0shlV0UFRg/U+lQ5HkMhwZIfclc3j2xNnc8n1txE5/B6maaLpUvQr8o+ECpHXrKOncQC2v7qDU4OXYKuaS/HEXmv2wjB8Ufz1CkaJJ4yq6UbV9GAvn83PZy7Af8WtPPfiXzi4fx+pmDVYLRqPE9H0DA1dvlQ+kmFYg9+Ofr2yn4NUVOfggX08++JL+K+4hZ/PXIC9fLa1RVXTjc0bHp4ViaPDhMvPmMYwxRN7sNW0cUb3Ql7bummgdkKOiop8JaFC5D3DMOiPaFb75FSCu+76PT85cz6qvDNTyDk03Q4/OlxYzbTGeAM4GsOoiT5U2TxsLj//093E3AtXsvqeu9m7++2BEyQAqXR6oNBTwsWR9zpbaGkN8gLTTFnjxt95i1V338XcC1byI3cTNpcfVTYXNdGHozHMGG8g06xq+IKmtdURxOYKocra+T9n9HDP3XdDKkEimaI/Iu+1yG8SKkTB0HXreCDAewcPsOTa2/ha1SxUWRslnjDOITwS+LFPqZkhZkWTfKhJQVR5O7YTz+J7087lxGld9C2/hsefeoZ9O3dA2vrCxExjplNWPYZhFPxKxpGVCA3NMIgnkpjpFGQCF+kk+3bu4NENL9G3/BpOnNbF985aiu2Es1Bl7ahJQYoyXSiH8ijox3G6/daqVVkrX69uYuk1t3H4gHUU2YhKh1ZRGCRUiIJjFeclANj8lxeZ2hXGOXYaqtZ6SrSKOYdv5eJoA1sk3j5UXS+qugtV3YXtuDP4t9O6mbjgBhZfeiVPrn+OPXv2EHtv35EvViCVSmFEoxjRKJpuENF0q64gDwJHNjhomnUqRtONgd8llUoN/I6YaWKH9rFnz7s8sf45Fl1yBRMXXM+PT+2iZPwsVHW39brV9VLi7Rv2rY33s95fhyeIqvVROv5szu5ZyNaNLwEQTySkEFMUFAkVoiDphkG/ppNMpSAZ48l1G6juupCiqlZUbS92b2gEffEcCRel3iCl3iCOxgXWKkZVJ6qylSJXgL+ta6JsejftK1dz2a2/54E/rGHnzp2YiThmIgZmKnPKAdKmaX1hZbZPdF0f1qCRDRDZEKHp1upD2hxIDmAmMRMxzEScnbt2ct/qe7j0pjtpu3Y1E6Z3883aZopcAVRlq/W6NARxNIYHXrORFSas99TuDaFqeymqaqW660KefvZ5SMVJplL0azr6CA9+QnxWEipEQdN16wnYNE3iUZ07Vv2B/zrbT3H5XFS9H3tjeMQsj79Pgw+H20+pN4DTG8LuDlDsDqHqA6jKLtS4JsZUz+FbZy7hV2d2MqM7zMW3rWbNUy+x7olHeW3rRrSDezNB4+g/prWlkkqSNk2S6TSJZJJ4Ikk0FseIxqxhaUYU7X2FkB+kZQZu6UYUIxojGosTTyRJJFMk02nSpgmpZGYLx/yrHyNF5MBeXtuykXVPPMrqp17k4ttWM70rxC/P6ORbZy6htGo2auws6/edZP3+drf1epR6AyPzfXMddaKj3vqc/fJsP79bvZZEVCdtmmi6IVsdomBJqBCjwtGnROL9h/jt3Wv4P1NaUeOaUZMCOLyhTPOskfOk+0E+HC4/pR6r4LPIHUJN7M0s/3dbzZvGz8Nx3Cl8xz2PnzYtpTy0ktPmdOJbuJSrbr6dNQ8+zoZN29m+611e376V3W/s4MA7u4gc2Esi8h5mTINEFNKJDwaBD/wxrf8uEcWMaSQi7xE5sJcD7+xi9xs7eH37VrbvepcNm15hzYOPcdXNv8W3cCmnze6kPLSSn85aynfc83D8+hTUhHnWz5/9Xep6KfKEcTRa2xmOzO8//O/BR783Trf1OVKTAqjxzfznlFZuv2cN8f5DmVMdcQkTouBJqBCjilXMabX7PvDu26y45np+ckorqqzFGq/eGB5RS+ifht3ly5wwCVDqDWFrXIhyhVB1861tgrJ5qIpWVE0namIPJQ0+bA0+vnm8lx/WTeUXp7VRNrsPb2A5Zy65lukX3kzzitvpvm4NgVsf+Ejd162hecXtTL/wZs5cuhKv/1LKZvfxi9Pa+GHtVL55nAdbw3xKGnyoiT3Wv1/Rav08VZ3Wz+eyft5SbyizfeHPy9ff0RimqN6PKmvhJ1PauGzljRzc806mCFOOiIrRQ0KFGHWMzOmJWMJ6Gj+0ZzdX3nALP5rcYi23Z+c+jNDl9U/8kstsnTg9AUo9QZxe61itwxPEflRTsCLvApQ7bNVuTPShajOrHlVd1qpBeQeqrO2jlXdY/12V1ZVS1fZaf8+kIModpsi74MjP5A4M/AxOb8j6uTzWFsZQz9bIFafbPzD/RY1t4seT53LlDbdyaM9uwCQWTxCR48BilJFQIUY1TdeJZwZLHXhnF7+5azXHN4Wx13Sg6uZbe/jD3dtgsDT4rKdsV2YCq9saoJVV6gkOFEF+qEwwGOC2QoLDlVltyNOw8HGyPUfs7oD1+ajp4PimML+5ew0Hdu+ytteSSZnVIUYtCRVCRKPoevYYqklcO8yqPz7I+LlLKa7rQlVafS6yX6QFGTDExwaJbMAq8YRRlW0U13UxYd5SVj/wEAn9sPW5SSTQdTkeKkY3CRVCZBiGjqbpRGNxwCQR1dnw/Auc3dPHN2qbURXtqLpebJ4RemJE5JzD7cfmCVs9RCra+UZtM2f39LHh+RdIRHXAJBqLo8n0WSGIRiVUCPFBmWFl8XjmBEQywfZNL3Putb/hR2cvxjahCVXTS1GDH4cn07GxAJf6R6VMPYrDE6KowY+q6cU2oYkfnb2Yc6/9Da9s3gipzIpWPG5tc0jNhBADJFQI8TGspk2G1XMBE+29g9y1ajXV8xZSOqkbVT4PNdGP46SFlGbqCvLt9MJoZ88cBy31BHCctBBV50OVz6N0Ujc1rYu4a9VqtPcOAiZp00TXDSm+FOIjSKgQ4lPQdN0a9pQ5jpowImzd/gqLll/Dz84OUvzr0zKnH3qxe0J5e3JktHG6/dg9mX4ftb2UHHc6v5zZx+IV17B1+yskjMjAsdD+iCYFmEJ8AgkVQnxGmmb1ukilrFMj7+15m7X33c8ZgQv457MWYS+fg6rxUdTgxzZwekRWL0YCqx16EJs7gGrwo2p82Mvn8M9TF3Fm4ELuu/9++vfvtuaqJJMY0ZhVZzMCPndC5AMJFUJ8AdbwsiRmpvvkgXd2ccfaBzmlZxl/52qluLYLVdFOkXvkzqgoZH89U6XIHUZVtFNc28XfudqY0ruMO+97iAPv7Mr0CDWJyZAvIT43CRVCfEHZEd39mk4sbk1HTRkR9uzdy92r7+XURdfwT+65qKpOiqo6UNVdFLnDOL3BzCkSCRi5lWn+5Q1arcyru6zXvbKDf3LP5dTF13D36nvZu3cv6ai1vWE1qtKlWZUQX5CECiFyyMicHDFiMZKZplpmMs47b77Goy9sIbD0Qn42PcSXa1pQ41pQVT2ouvnWSRJvmFIp9PzM7G6fVWTpDVsnNurmW6/ruBaOqW3hZ9NDBJZeyKMvbGH3ztcxU1bwSyaTGLGY9X5JkBAiJyRUCDGI9Mwkz5RpAtbE0LgeYf2Tj3PtfU8ya8El/I+Tuiiu70GdOBNV0YVqCGFzBwdaW5d6gnJs1eU/Mrn16Jbj7iCqIWS9bifOpLi+h/9xUhezFlzCtfc9yYanniCu92cGoKVImaY1WVUKLoUYFBIqhBgC2lEjw41oNHNEFdIxnUMHD/LwI4+yZPlVeBeu5Pv1MyiqakXV9qAq26zZGpMC2CZbg7fyeV7GZ16FGBgBH8I2eaE1AbTK6nKqansoqmrlB5Nm4F10HUuXX80jjz7GoUMHScd06/U1TfRo9Mi4dim6FGJQSagQYhhommYFjFiMZDIBmZBhxqPs27mDF7ft4LbV99MeWMCv513A907uxX7sKajxc1E1mcFddb2oSX5K3CGcjeHMikbgyOyNERAKPjE0DMweyQw/awxT4g6hJvmt32+iz/p9x8/FfuwpfO/kXo5rvYB2/wJ+e+8DvPzqG+zduQMzEc1MYzdJJhIYsVgmREjBpRBDSUKFECOA1SJcw4jFBhptkTlRkoobvL51Ew//cS3Xrn6I2UtWcMLJM/juGQv42kkBbFVzUGObUBWdqJoe1KQARZ4F2NxB64s7s43i9IasCaHeI4PAHH81BCzrU2+1NPje9//LDidzHDWcrNR75N9+36RUd5AizwJr9aGmx/r5xzZhq5rD104K8N0zFnLiyecwZ8llrFz9IA8/sJbXt20iFTcy2xnWa5ROm1ZthKZJq2whhpmECiFGEMMwBlYxsnQjRiqdznyRpjETMZKGRn//YV7euJFVd/2eC1beSuvKe2kMLOeXZ3Tw7bGN2KvnWYWLtV2o6g5URavVAbSy0xpVXteLqvehGoIod4hibx8ljQuxTV6E/aTF1uqHN/ARU0oDOBvD2E9ajG3yIkoaF1Ls7UO5Q9bfV59ZSanuzoxRn2f9+9UdqNouihr82Kvn8e1xk/nVGR00BpbTet29XLDyVlbd9Xte3riJ/v5+koaGmYgB1u+fSls1EUe/Ppqc2BBixJBQIUQe0HXryzOSKfw0ojFisRjpgbABmGmS2nsc2P0WO1/dxpYdb/DI+he55ferOXf5VbTPDzKlNUDlgps4ofsyfj57Gf9+Vph/PqmLv6+fzdcqpvPlcWfgOO4Uin7RgBo7M1O/0I6q7DhKu/W/j51J0S8acBx3CseMO5OvVUzn7+tn888nd/HvZ4X5xexlnNh9GVULbmJKW4B2X4hzl1/FLXet5pENL7Jlx5vsfHUbB3a/RVI7DGZq4FdJp9PEYjGMaMwKEZnfXwoshRjZJFQIkces2SRWfwVNN4jG4sST1ikH0ikwjwodR/1Jx3QiB/ayd9cbvLF9M5tffI7nn3mSdY8/whMPPcBDa1ez9rF1rF6/hTXrNrJm3aajbGT1+i2sfWwdD61dzRMPPcC6xx/h+WeeZPOLz/HG9i3s3fUGkQN7BwomP/DHTEM6RSptEk+mrEmfukEkExxk5UGI/CShQogCZhjGQPDQNO3Iakc0SiyeIJEJIOaHf/V/5j8mkDJNEskUsXjCOnlx1L+dDQwSGoQoTBIqhBiFsl/s2cBxdOgYCB9H1S18lL/+/2T/rqP//uH+XYUQQ0dChRBCCCFyQkKFEEIIIXJCQoUQQgghckJChRBCCCFyQkKFEEIIIXJCQoUQQgghckJChRBCCCFyQkKFEEIIIXJCQoUQQgghckJChRBCCCFyQkKFEEIIIXJCQoUQQgghckJChRBCCCFyQkKFEEIIIXJCQoUQQgghckJChRBCCCFyQkKFEEIIIXJCQoUQQgghcuL/A+7KbEkQ1DJbAAAAAElFTkSuQmCC;" parent="1" vertex="1">
          <mxGeometry x="145.70999999999995" y="649.88" width="28.58" height="20" as="geometry" />
        </mxCell>
        <mxCell id="rF6UAwLea4RSJ0UKlpxq-64" value="" style="shape=image;verticalLabelPosition=bottom;labelBackgroundColor=#ffffff;verticalAlign=top;aspect=fixed;imageAspect=0;image=data:image/png,iVBORw0KGgoAAAANSUhEUgAAAF0AAAAzCAYAAAD1jwTpAAAB20lEQVR4nO3cPbKCMBQFYFpalsEu2EEW8LpX0tjRvN7KBWTG2so2G3AFzKRIxVrOKxAh/KmggN6TmVPF0dzPy4VGA3AtvoK1DyBxEX2FRfQV1ij6brdjXpSn0PM8R1EUzMTkef48+tqH/oYQnegyQnSiywjRiS4jRCe6jBCd6DJCdKLLCNGJLiNE/z50C61CJIfLYgU5kyGOUpzH9oMAQTNhgsOl2qvO62CyGGFywIXoL0Af2a9DdKK/Dr0srL7Uu6+1Wo3ue+MiTLA/zkC3GiqIkJ6H0C20aoylh768TaGXBXhFWQ3lwVron7owZzLE1/lbg1dIBQpnkMXjGNPRy/NG6Xn2lbAaehuw2dmDhTiDLK5Q2ggPoLavjGtunzeC3vu+VkP11LBZdKtVb0d2iqu694Z0RXEGWTwwbt7Q6f6Y6znPp6D3dXQTxX+Ea3W61/ULoU+c4ZtBvz9eyqK98fHAeLmHMxV96LwfhT58I6271wesnnRa+00Iq6HuPFXMvZF653UGf7+bvJF252C7kOH52NwPkeyPnZHizdooxelN46W+0ubN8wXQGaJvJEQnuowQnegyQnSiywjRiS4jRCe6jBCd6DJC9E9A58/U52XSz9SZhf+Qges96x/Zuw/88Rf5rgAAAABJRU5ErkJggg==;" vertex="1" parent="1">
          <mxGeometry x="210.01" y="642.2900000000001" width="56.86" height="31.18" as="geometry" />
        </mxCell>
        <mxCell id="rF6UAwLea4RSJ0UKlpxq-59" value="" style="shape=image;verticalLabelPosition=bottom;labelBackgroundColor=#ffffff;verticalAlign=top;aspect=fixed;imageAspect=0;image=data:image/png,iVBORw0KGgoAAAANSUhEUgAAAhUAAAF1CAYAAABf+Bi5AAAgAElEQVR4nOzdd5hUVbrv8dWhqhrHOTNOuscZ50y6E+4J85xz55y5Z86MASV0bugKjTomJEiSpuncFRtUVMwBEyBiTphGRTEAJkyYA0kQlIxA1V6V9/f+satQJpmQ2lX98jyff2awm+ree9ev3vWud6l4PI4QQgghxJelCv0PEEIIIURpkFAhhBBCiANCQoUQQgghDggJFUIIIYQ4ICRUCCGEEOKAkFAhhBBCiANCQoUQQgghDggJFUIIIYQ4ICRUCCGEEOKAkFAhhBBCiANCQoUQQgghDggJFUIIIYQ4ICRUCCGEEOKAkFAhhBBCiANCQoUQQgghDggJFUIIIYQ4ICRUCCGEEOKAkFAhxACktd7HMAwMwyAWi+0nGjM+1Z//N/mv9cmvX+jXKoQ4eCRUCFFCtNYfhwLDwNBx4skkqXSGdNbEzJqQSUM2C5h8tX9M6/tk0phZk3TWJJVOE08mMXScaC7I5ENIoX92QogvT0KFEEUmX1WIxgxiWmPoBDoeJ5FIkM1m939fTyeI79nFri0fsHn9GtatWcNbGzbz9Mo3eODx5dy06AGumH8jZ110OT0zZtHaG2Z8WzenjJ3AyJ4LqTv7JupnXE/9zAUfm3E9dWffxMieCzll7ATGt3UzrS9Mz4xZnHXR5Vwx/0ZuWvQADzy+nKdXvslbGzazbs0aPly/hl1bPiCxZxekE/v9M7PZLImE9ToMnSCm9b5KiGEYBf+ZCyE+GwkVQtiUYRhE/2wZwtBxMpnsJyoBKbIJg1TcYOeuXbzyyivcd999XH75FQSuvYMzLr2VEV3n87vTOvll/al8a8gpVLiDlI/sQzX1oBq6UHUdqNp2VM10VHUbavg01LBW1PDpqJqOv2349Nzfm2b9dzXTra9T12F93aYeykf2UeEO8q0hp/DLhlP53WmdjOiazRmX3krguju54ooruO+++3jllVfYtesjUnGDbMKAbGpfJSWTyVqVjf2WXiRsCGFHEiqEsJH88oVhaNKZbO5t9eNlikxKs37VWyx7bDE3LXmOyLW3c8LUPv79hGkcfvp5HObro7KuFXXMWNSQqajablRDL2pkEOWJUO7tp9IdoNIdxOGxOL0hnN4QLl94P1W+0Kf68/8m/7XyX7vSHaTSHaDcG0F5Ita/o6HX+ncNmYo6ZiyVda0c5uvj8NPP499PmMaJrX30X3c7Ny95jmWPPcKGVW+TScX3W1YxgVQmQ8ywfl6yfCKEPUioEKKA8ksZRiJBMpXCzGZy6wEZYts3s371uzy98g0um3cjo6dM5w/TLuDHJ/biOPpk1NBpudDQh2rsQzX1UjYyQIUnjLOlnypfGJc3iNMTxOkO4HD7cTT7c6Hi4HI0+3G4/TjdAZyeIC5vkCpfGEdLPxWeMGUjA6imXut1NPRZr2voNBxHn8yPT+zjD9Mu4PQz27l8/k08vfJN1q9+F2PHFjCtqo2ZzZBMpTASCVkyEaKAJFQIcZDkd1p8cikja1pViGzCwNizmzffWcXcefMZe/58fjcuyDePOwlV24Gq60JVT0fVdqGag1S0zLQqBZ6gFRbchQkLBzx8uP043AFcniBVvhAVLTOt6kb+9dd1oWo7+MaxJ/E/Z4Q448IbmDf/et56dxXGnt3W0gmQNc39lkykGVSIg0NChRAHQSwWw4gnciHC+nSdSmheeW45N9y7mMmz5vBr9xlUeUOoIZOsKkRTgDJvP5W5JQqXL0yVN4TTEyhYxaEQFQ6nJ0BV7vU7vSEqPUHKvDNQjQHUkGmoIZMY5Avxa+8ZTD73Km647xFeeW45qYTOt4FaISNuVTEKfS0IUcokVAjxFTAMg5hhEE8kyWTSVj9EMs4Hq99iydMr6Dj7Qn4z5QK+2TAFddQ4VF0vqsmPGtFHhS9MlTeM0xOgcoCEh88tHzZ8YSq8YdSIPuvnV9eLOmoc32yYwm+mXEDnORfx2NMr2LT6bTLJeK7xM008kSSWm6lR6GtFiFIioUKIA0LvNzAqk80CWZLR3axZt445C27GPeM6jqg5FXXsRFRdt7WU4Yng8vXj8gRKZgmjUBxuPy5PAJev32oKre2yfs7HTeSImtNw91/HVTfcwtp175GM7gZMMtnsfoO84nFZIhHiy5BQIcSXZBif7I/Igpnh7Vde5LJb7mXI2E4Obe60tlvWdFLmm0nVqH6qfMF9SxlSjTjAPrFkUuULUjWqn3LfTOvnXzOdQ5s7GTKmk8tvuY93Xn0JzMzHSyQ6LtULIb4ECRVCfAH5IJFK55Y2EppV777LpQtuY8iEAN9t6UENmYwaEaSsOYDDG6LKG8JR6DfcAcrhtkKGwxuirDmAGhFEDZnCd0f1MmRigEsX3MbqVavIJK0+jFQqLQFDiC9AQoUQn9End25kslnIpNixeSMLbrsLd/hqDh851Sq513dR5g7i9EVwypKGLTndfpy+MGXNuZ0ltV0c3tyKO3I1N999Hzu3bIJMar/lEQkYQnw6CRVCfAYxwyCdyViDl9IJnl/xHNMvvp6f1I/JTaPspNwT2TcUyukp/Bun+AzhwhPY9zsr90RQNZ2ounZ+Un860y9ZwAvPr8BMJwCTdCZjNd/a4HoUwq4kVAjxNxiGQTyRwMydp7F903puuv9Rhp/WyqGNbahh01HuCJWe/NKGVCWKmcPtp8obotITQrkjqGHT+XrTdIaPbuWm+x9l+6b1uUFbWXQiIZULIf4KCRVCfILWmphhoOMJTCCbirN27Tr6L7qSnx/fiRrehmropcwdxOUNDZh5EQONo9mPyxuizJ0bKz68jZ8f38mMi+ewdu06ssk4JqDjCet6kcFaQhCPS6gQYh/DMEgkk1apOx7j8aXLOSF4CYc0WgdllY0MUtUSluWNAWTf8khLmLKRQVRtB4c0TueE4KU8sewpMnEDMEkkklK5ECIuoUIIYrEYyZS1iyO6cxt33XMfx47rpqqxHVXXTaU3hMsrQWKgc3oCuLwhKr1hVF03VY0dHDuuh7vvvQ/jox0AJFNpmdopBjQJFWJAyp8GmkimANizfTO33nk3vz1pGmrweFRDH+Vu6+CrQr+ZCftxeYOU55dGBp/B705t57a7FrFn+2YAEsmknJ4qBiQJFWLAMXLjswFiu3cy/4aF/Ob4yaghEylr8uNs6ZemS/GZONx+nL5+ypr8qCET+c3xk7l+4Y3Edu8ETOLS0CkGGAkVYsCIxWIkk1aY2LtzK7fefge/++NUyo6bQNkIP46WCC6ZcCk+J0ez3zottiVC2Qg/ZcdN4H9ObuWOu+4mtmv7fpWLQt8DQnzVJFSIkmdNv9Rks1lSxl5uu+tu/vP4yaijx6JGBKn0RXLjsgv/BiWKWLPVd1Hpi6BGBFCDx/PbE6dy+12LSOu9ZLNZYrndRYW+J4T4qkioECUrf8BXJpvFTCd4ZMljVE8JUz50EqqxD+eoGbIlVHwlHM1+nC0zUI19lA+bTO2ZER5/cilmOrlvSqdULkQpklAhSpJhGKQzWcDklTfexNd7ARXDp6DqenD4+nF5grLMIb5S+5ZFfP3WLqLqqZwQvIRX33wLMEnJhE5RgiRUiJISi8X2NWFu/eB9gudfwmG1k1B1vVR6QrndHBImxMHkt647TwhV28thtZOIzL6M7Zs3ARCXGReihEioECUhf9hX1jRJR3cx99ZF/MQzDTVsGhXuIE6PbA0VhefyBKl0B1HDpvGzUe3Mve0e0rGPyGRNotGYhAtR9CRUiKJnGAbJVAoweX7Fc9SP70QNmUCFdwaDZPqlsBmnJ8AgX4hyTz9lQybQMKGbl1980dolkkpJsBBFTUKFKFpaawwdB+CjD9bTecE1DKqfimrokWPHhe1Zx69HUA09HNLQRu8lc/now/cBMHRcBmeJoiShQhSlaDQ3DTMV56Elj/Ovf+xAHTeFSl8/TncA6ZsQxcFvXa/eCOq4yfzbSZ0sfuwJSMVJJFNEo7JDRBQXCRWiqGit0VoDsGPzJiaGZ1Nx9KmUufupapHqhChOTrefqpYIZe5+Ko4+lUmRC9iZa+Q05BRUUUQkVIiiETMMUpkMZNMsXvIE/zJiLKqm6xPVCSGK276qRXUn/9o8jkcfXwrZtGw/FUVDQoWwPa01MUNjZrPs3rGdqf6ZVA6bjBoZxOkNybwJUVqa/Ti9Iev6rp5CW+hsdu/cjpnNEpOqhbA5CRXC1vIPUIDlTzzGr0/qRNV24vSFqZJtoqKEVXmCOH1hVG0nvz6pi6eWPm7NtYhLE6ewLwkVwrZisRiZrEkqtof+K6/H1dBGWVMvLl+44A98IQ4GhztAlS+MauqlqrGd8+bdStrYSyablTHfwpYkVAjb0dogZmjA5L1166g97UzUkDOp8IRxeqU6IQYepzdIhTuMGjKV+jGtrH/vPQBihkZr6bUQ9iGhQtiK1hodTwAmDz34ID85yY+q68LpCyPbRMXA5s8th3Txs5MDPPzQQ4CJjidkOUTYhoQKYRuGYVjLHQnN2VfOxXn0yZS5w3JehxD7WOeIlDWHcR59MufMmUc6ESeTyWLIcoiwAQkVwhaiMQOALRvW0NJxtrVV1BuWEdtC/BVOT4BKbxhV08WoznPYuvE9TCAqwUIUmIQKUVDaMNgbMwCTFa+9xS99U1HV03HJVlEh/r5mPy5vCFXbyb+NOJ2VL78EwN5YTJZDRMFIqBAFo7UmnkgAcOcDD3FYczeqKYjLFyr8A1uIouDH1RJB1XfzrZEd3PWnxQDSZyEKRkKFKIiYYZBMpSGtOeeCi3EMn0JZcxCXLHcI8fnkKhZlzSEcw6cw68JLIJMgmUrLFE5x0EmoEAddNBolnc6go3s4JXwZ6venUenrxyHNmEJ8YQ63n0pfP+rI0YyeeQU6uod0OkM0Gi34PS8GDgkV4qAyDKshc/PG9QxrOw9V38ug42fIQWBCHABOt5+q42egansYPv18tmzasO9QskLf+2JgkFAhDpr8Do/XXn6B/zipA9XQh8sblAqFEAeQI7ftVDX08ptTOnl95QsARGMSLMRXT0KFOAg0e6MxAJY9+hA/GHYyqikg0zGF+Ao5vUFUU4AfDDuFZUsetnaGRGPE49LAKb46EirEV0trDG0dCHb3o8v4xlHHU9Ycpkp2eAjxlavyhVDNIb559AksWrI8tzPEui8L/mwQJUlChfjKaK0x4gkgy/X3LMbR0E2ZJyIVCiEOIqc3SJkngqOhm+vvXQxkMWTLqfiKSKgQXwmtNTGdADJccdPdVNR3UNEcwGmDh6wQA43THaCiOUBFfSdzblkEZIlpOUJdHHgSKsQBZw21SoKZ5sL5t6AaunB6Qjg9UqEQolCc3iBOT4iyhi4uveF2IE08IRULcWBJqBAHlNYanUhAJsXMK+ahhrfh8IRwyFArIQrO4QngcIdQ1dM568r5kElhSLAQB5CECnHAaK0xdAKyKWZcPhc1vI0KTwiHDR6mQgiLwx2gwhNCDW9j5hVzIZvC0BIsxIEhoUIcEFaFIgmZJOdctQBV24HDJ6eMCmFHTk8AhzeMqutg1tU3QCaFTiQlWIgvTUKF+NK01uh4Asw05167EFU7Hac3LBUKIWzM4Q7g9IZRte2cf92NYKZlV4j40iRUiC9Ha2I6DtkUl9xwJ6q2g0pZ8hCiKDg8ASo9IVRtO5fdeBeYaWKGljkW4guTUCG+lKihgQxX3rIIVddBhTsogUKIIuJwB6hwBymr7+SaOx4AMyMjvcUXJqFCfGExQwMm8+99BFXXicMdlF0eQhQha1eIFSwW/ukxAKtiYYPnjCguEirEFxKNWWd53L34cSrruyhvDkhTphBFzOkJUjYygLOunXsXL8kdQhYr+LNGFBcJFeJz2xuNAvD0E0v4+tEnUNYckkAhRAlwegKUNQf5hyNH8cyTVsUiGpVgIT47CRXiczEM6/jyN199iR/VnIZyh3HJWR5ClAyXN4hyR/hx7Wjeem0lAIYhPRbis5FQIT4zwzDIZDJs3bSB/zy1G9Xol0AhRAlyeUOoRj//NbqXHR9uJJPJSLAQn4mECvGZ5M/z0NG91LbPRtX1SKAQooS5vEFUXQ8NXReio3ut+1+2mopPIaFCfLr8EebZJONDs1F1vQzySaAQotQN8gVRtT1MCM+GbBIjnpAZFuLvklAhPoXObR2Fi6+8GnXkaTh9ESrd/oI/8IQQXzU/Tl8/6sjTuPSqa2WrqfhUEirE35XfOnrPw0tw1JxJhW8GDgkUQgwYDrefCt8MnDVTufcR2REi/j4JFeJvisWsnR6vvfEmh3l6rJ0eNnjICSEOLpcngGoO821vD2+8+aZVsZCpm+KvkFAh/iqtNelMlh0fbuC/vGeg6nulMXMAcLj9OD3WICSXN4jLG6LK95dc3hAubxCnJ2ideCnVq5KXb9z871ET2bVlE6l0Rho3xV+QUCH+gtYaQ8fJplMc3zsbVd2Oyxcu+ENNHBiOZj8ud4AqbwiXL4zDY53XUuEJojwRVFMA1dCLqu1GDW9HDZv+l4a3W/9/Q6/19z0RKnJfx+EJ4vKFra+f+36Ffs3iwHD5wqiaDv7ovwAzncLQcQkWYj8SKsRfiOUGXF1w+VWomg5cLZGCP8zEl+do9lPlDeJomYEaGUTVdqKqp6PqOlEj/FTUtfHT2lP4w/gAjd0XctI582i95l66FjxE5/UP7tO14CFar7mHk86ZR0PXhfxhXICf1p5CRV0baoTf+nrV062vP9L6flXeoISLEuFqiaBqOrh4zjW5xk1ZBhEfk1Ah9hPLNWYuffJJDhl8KpWesJw6WqQcbms4mcMXsd7sG/tQNV2UHXkKPzuxi2ODcxkfOJc58xfy1Ctv8+76TWxc+y67t20msWcXZtIAsvz1P1nMpEFizy52b9vMxrXv8u76TTz1ytvMmb+Qcf5ZHBuYy89OsL6fqulCNfpRI/w4fBHr3yVLJkXJqmqF+Nqxp7F82bJcf4U0bgqLhAqxj2EYZLImG9et5ud/7EU1h3F6pI+imFhBIoTTG6LMHUbVdFIxfApHnOin/rTJXH7nYpY/9TSb1r6zf2DIZjAzadJZk0QyRTyRxIjHicaMv84wMOJx4okkiWSKdNbEzKQhm/n4a5oZNq15m+VPPc3ldy6m9tRJ/OCEPiqGT0HVdFLmDuP0Wv0ZEjCKi9MTRI0M8cuT/Xywfi3pbBYtFQsRl1Ah8nJ9FGZS0zK5EzW0VfooikWzVZEY5AtR6YugatpRDV381NvKmRcv5La77+XDje9DOgGm9aafyWaJGZpYLIZhGAdsXVxrjWEYxGIxYoYmk83uCxikE3y4cQO33XUPZ168kJ96W1ENXajadip9EQb5rObPSlkmKQouXxg1dConnNkNSU1MaxmMJSRUCEs0t330qtsfQNVMz/VRyMPd7hzNfpwt/ZSN8KOqO/haXSvDxnez8Pa72L5tG5mE9XtNp1LoeHxfkND64Hyq1PrjgKHjcdKplBVqEgbbt21j4W13MnRcF1+ra0VVd1I2wno9EiyKgT/XX9HO1Xf8KXdUulQrBjoJFWJfH8XKFU/zzeqJlHkiUo62OYcngNMbpszdjzpqHN/29tB++Y28/sabJGN7rTfudAZDW79f23yC1LnqiI6TSVtVk2RsL6+//gbtl93It73dqKPHU+bux+kL4/AU/mct/s516PajPBG+VTuJ115cIf0VQkLFQLfvoLDdOzlqQj+qrlvmUdiYwx1gUEsIhzuIGtrKEQ1jOeuiK9mw5l1rlcE00fF40ZwoaRgGOh7HNE0ANqx5l8iFl/ODujGoYa043MHc6y38z178ddb8im6OmTyTxN6P5OCxAU5CxQCX3z4aOe9C1HFTZNnDxhye3E6Ouh6+1dhKaNZsNm/cAGaWRCrN3mgst7RRXA90nate7I3GSKbTYGbY/P56QrNmc1jDVFRdLw5fPw5pGrap3DLIkCnMOP8i2WY6wEmoGMDyyx7LnnwSV0MbFV7ZPmpHDncApy+Mauih4phxnBK6iHdXrQYzQyqTJRYzDlqPxFfN6sEwSGWyYGZ4+91VnBK6iPJjxqIae6wlERv8TsRfXqMV3jCuhuksX7ZUxngPYBIqBqj8skd09y7+q2WiLHvYlCs3nVINn86vRwd54J67MbMpsiZFs8TxRRmGQdYEM5vivrvv5F9P9e+b7uqSqoXtWMsgXfz2+EnE9sgyyEAloWKAspY9TILnXYKq66HKF0aWPezF6Q2hGv04atvomDmb3Tu2AyZRQw+YT4GxmEHM0IDJR9u30T7jfBw1bahGP05vqOC/I/FJfqp8YVRdD6HZlwKmLIMMQBIqBiAj10fx3Asv8bWhYyn3SCOcnexb7qjv4f+4z+DRJ5ZCJk0qlR6wnfWxWIxUKg2ZNI88sZRfNZ+BqpflELtxuAOUuUN8bdg4nn95JVD6FTWxPwkVA45GJ5Ikdm/nuNO7UE0hnLJtzzacntzZCsNa+eOMOWzdtH7fg3mgl5Lzg7UAtrz/HqNCl1tD2loicg3biMsTQDUFGTa+l+SenehEsuDXjjh4JFQMMPndHhcvvBs1tJUqKSHbhtMToNwdpuLYsZx/8WVgZkimUuyNDszqxN+yNxojmUqBmeG8iy6lfPBYKjxhCRY2UuUNoYa1cunN98pukAFGQsUAYhgGpglrV7/L90dOQ3kiUjq2CZc3iGrs43uebhY98CcgSzyRkNLx37mW44kkYHLbnXfzreYOVJMfpzQb24LDHUC5wxzR3MZ7a9dgDoDGYmGRUDGAxHQcMglOntqLqumU3R424fKFUA29/OiUfla8+FJuuWNgL3V8VoahAXhmxQv800kRVGMvLp9U3+zA5Q2iajo5dZofMknrbBAbXDPiqyWhYoDIL3s8+MRyKmqm4vDKYWF24PKGUHVd/Pi0s3hr1RrAtJY75AH82WjN3mgMMHn9nXf50Wlnoeq6cMmyXsE53AEc3hCVta0sXvasLIMMEBIqBgKtSSRTxHbv5Pdj+lAjArL+bAMubxDV0Mf/8U5l1Zo1ue2i8tD9IqIxK1isWr2aX/naUA19UomzAacngGryc9T4IPG9u4knUxKYS5yEigEgmpuceemVV6OGnilHmtuAFSh6+dnp57DqvffBzA6Y2RNflVjMADPLqvc28LPRZ6MaeiVY2IDTF0YNm8qV186VSZsDgISKEmcYmkw6zfoNG/jBqB7UiD45+bHAqrwB1Ag/3z8pwpur1gASKA6UWMwAsrz2zioOPymCGhHA5S3873wgc3gCqBF9/LClm43vv086ncaQakXJklBR4qK5yZntF1yHqu2SJrYCc7oDqJEhvuft4YWVr1pLHhIoDuw1H7Ou+RUvreQ7zV2oZhnuVmguXwhV00HXxfMB5JovYRIqSlh+UNCrr6zkGw2tlHtk+mAhOdx+Krz9VA6bxAMPLZaH61fIqljAvQ88SOXQiVR4+3HIGPoCXvsBytxhDmts443XX5NJmyVMQkUJixka0glO7JiJqpUDwwqq2Y+rpR91zDjmXHOddMIflOvfChZXXHU16ugxVI2aQWWzBItCcXmDqNouTu6eZW0xlW3TJUlCRYnKH2v+5GOP4hg2kUpvpOAPlYHLb500WtfLuLOvgnScWDwhXfBfMa21NZslHWfMWXNQdb25JmUJFoWQPx7dOXwSy598Ite0KdNiS42EihKktUbHE5iJGA0TumXffoHlj4T+r+OnEt25jVQqLaXfg8QwDFLpNHt3bOU3o6bk7gWp2BXuXgihartomtwHCQMdTwz4M21KjYSKEpSvUjz00IOoY8bgkLJvwTjcfip8/QxqnM7zzy6XT2cFvB9WPLOMQQ1tVLTMkP6KQmn242iZgRo8hkcWL5b7oQRJqCgxVpUiTjZuMOz0Nmuvvkc+mRWKyxdBDZ7I+Vflut7lcLCCiEatYDHryrmowRNw+SLIMkiB7glPEFXfQ+24DsykxojHZSmwhEioKDH55rSHH34YdexYHPKprIAPz9w0wckzSOzeQTyZlFJvgWitrWmOH23nyIn9qCbr91Poa2Qgcrj9VPr6KT9uHEsefVSalkuMhIoSY+g42aSmdmw7qr5XHpyFenA2+6lomcEhQ8bw/LNPS5nXBvLLIM8+vZyq40ZT2TIDhywLFoTLE0DV99I0oRszFZdhWCVEQkUJyT80H3tkMY6hE6j0ytHmBXto+kKo4dPpPO8KICvzKGzCGgaXZfo5l6Kqp8swuAJxuAPW82nYRB5f8qiE7hIioaKEGPEEpDS+trA1PVN2fBSE02ON4f7RiX52bPmAVDotyx42obUmncmwdeMGfnh8D2qEX8bWF4jLG0LVdHJ8+wxIx63eClH0JFSUiPz0zBdWrMBVM4kKXz/SiFYYVb4QqrqTK2+7X6Zm2lA0N23zitseQNV0UyUH7BWInwpvhKraKbz0wgsyZbNESKgoETFDg5nh9PBFuSqF7PgoBKcniGry8x+jphDbvYt4Qvbh243Wmngiyd6PdvHrUWeiGntxyg6pgshP2RzXfwmQkSmbJUBCRQkwDANMk7feeYfDmjsoc8sBSoXhx9USQR09jgU33pqrUsg6sR1Fc/1H826+EzVkam7SZqGvn4HHOhMkxLfdnby7ajWmaUq1oshJqCgBsdxJpP6LrkXVdEqVokCsXoog//eUbvZs30wyJb0UdqW1JplKsXvHdn59ehg1wo9TeisKwuUNomo6CV1yHWDK9tIiJ6GiyGmtSabTbPtgIz8ZOUkejgV9OIZQ1e1cdPP9UqUoAvlqxYU33oOqbpfG5gJx5BqbfzriDLZ/uEnCeJGTUFHk8g/G6268FTV0Cs6W/oI/JAYih9uPcof4vreDzRs3kEql5MFoc1prUqk0H76/nsO97ShZNiwYZ0sENfRM5t10mwTyIiehoojlG86Sxl6OntiPapQqRaFU+cKoodOYdlau4UwCRVGIaavBuXXmxahhbVTJ3IqCcHoCqLdAtToAACAASURBVEY/gyf1kzT2Ek/I9NliJaGiiOW3kT725DLK6juolA72gsgfGlZVPZFnlj4ug3yKSH5g3PKlT+KqtrZiy1j7AvEEKa/v4PGlT8n20iImoaKI5Rs0T20PooZNkw72AnHmjjY/cmIEM5WQkcNFJj/a/vfjQ6i6LpzS6FwQLl8YNWwao7v6pWGziEmoKFKGYWCasGbVu3yvuQ3licgnrEI9DL1BVF0Pl867UQ5HKkL5Q/guvHYBqr5Hdk8ViNMdQLnD/KNnOmvXrCYr20uLkoSKIpWvUly64DZUdYc8CAvEkZsK+LXqM3hn1Wop2xah/DLi26tWc8jw8VR4JaAXissbRFV3cMXCO4GsDMMqQhIqipSOx8noGEedOh3V0CMTAQv5EGzoZWj7BcQ/2kY8Kbs+ik3+WHRj5xYGt56LaujDJfdTQTg9QVRDD8ec3kE2bmDowl8f4vORUFGEYrmzC5585jmcTR1UeGQrXKG4WiKo4ybhP/diaytcNFrw60N8ftGo1bDZffZs1LGTcLVECn5tDUQOd4ByTxhXUwfLn35Wmp6LkISKIhTTccgkaL/0BtTwTtkGV0AV7iAOdx9PLF0OyBpwsdq3k+qJJ6ls7qPCLZWKQqnyhVDDptN5yfWQTRKTakVRkVBRZLSOk0wm2f3RR/zy+HZUc0CqFAXicAdQzUH+ceRUdu36iFQqibbBNSK+wH0Vj5NKpdi1axf/a8SZqOag3FcFvq9+9cdO9uzeTTKZREuwKBoSKopMvlP9oYcepqyhS2ZTFJB11keAhgldJPfuIp5MFvz6EF9CMkly7y5qx7WjmgIySK6QPEHKGrtY/Mij0vxcZCRUFJlorp9i7NlzZDZFgVX5Qqih0zn75ocAk6g8+IpazNBAhv6bHpZlxQLLz6wYP+vq3NhuubeKhYSKImIYBumsyeb1a/j5qDaUO4xTtr4ViB/nqBmoI0dz8+13ynkFJSB/js4N9zyEGjwBl5yjUzBOdwDVHOaXJ3SwdcNa0lnpVyoWEiqKiLX0keXBpc+ihrfilFMVC8bhDlDmCfONpmmseGqZlGhLQL5Z87llT/CNhqmUecLSV1FATm8IVT2NxctX5GZWyP1VDCRUFJF8P8WY3nNQdd0y8KqQDzxPENXYyy/GzWLntq0kZT5F0dNak0ym2LF1Mz8fOwvV2CvzXwrImlTbzbjAuTKptohIqCgSWmsSyRQfbf2QX46ZiWrskwdeAeXP+/iPaZfJ5L8SYvVVZPmPaZfJOSCFvsdywf1XY89iz7bNJCS4FwUJFUUif5riw48vpWz4JBy+iJRmC/nAy32KahzbBtk0hoSKkmAYGrJp6se0ouq6JVQUkMMdoNIXoXz4ZBY/sUwGYRUJCRVFIqY1ZFP4r70TVdNFlTzsCsqVq1RMn3E+mBmpVJSImKHBzDAtfC6qrkuWGAusyhtEVXcRmrsIzJTcZ0VAQkWxSCaJ7/2I/+cdixoZxGmDG34gy4eKc6+9UUJFCcmHinOuvkFChQ043QHUiCC/P/4MEns/klkwRUBCRRHQWpPNZnjjjTf42ohOytwy7a/Q8qHiurselJ6KEpLvqbj2zj9JqLABhztAWXOAQ5u7ePvtt8hkMtJXYXMSKopAfv/8JdcusLaSysCrgsuHinuWPi+hooTkQ8Vdjz8rocImnL4wangrl89bKPNgioCECpvT8Y8PEDt+1gJUdSdVMp+i4FzeIKq2i6WvrZY99CUkPwtmyctvS6iwiSpvCFXdyR/PW5g7YEwCvJ1JqLA5rTXprMmW9Wv4lXsCyh2RKZo2kA8Vy15fI6GihORDxbLX16BqJVTYgdPtR7nD/ItvMlvfX0c6a8oSiI1JqLA5w9CAyVMvv46qnorDK0sfdiChojRJqLAnhzeMqm7l6ZVvAFnZwm1jEipsznrImZxz6VWoetk3bxcSKkqThAp7cnqDqPpuzrviWsCU+83GJFTYXH40d8OUIKqmHZf0U9jCvlDxxloJFSVEQoU9ubwhVE07Ta2R3BAsud/sSkKFjWmtSaUzbNu4nl+MPRvV5MfpKfwNLj7e/fHoi29JqCgh+VDx0HOvSaOmjTg9QVRTH78cP4sdH24kmUpLX4VNSaiwsfxo7iceW4Jj8GgqW2bgkCZNW8iHilseXipbSktIfkvpTQ89KaHCRhxuPxW+fpxDxrD0icdlZLeNSaiwsViuSfPKex5DDW+nyidLH3aRDxWX3XQ3IBM1S4V1z2W4dOGdEipspsoXQg1v56r7npS+ChuTUGFjRjwOSc2YwPmohl5csvRhG/lQEb70WhnTXULyY7qDF18jocJmXJ4Aqr6XcaELIKkxbHC9iL8kocLOEkkS0d38uuFkOe/DZvKhYmxbj5xSWkLyp5SObu2Wo89txukOoEYG+femU0lEdxNPyDkgdiShwqa01mQyadasXcthx4dQI/1y3oeNOHOh4ujxAempKCH5noqjxvslVNiMwx1AjfRz2PEh1q5bRyYtzZp2JKHCpvJNmvcsWkRl3TQqvWEJFTbi9Fj75v9t2hVkUwkMebiVBK3jZJMJ/m3aFdZcGI+ECrtwuANUeMNU1k3j3nvvlWZNm5JQYVPRaBSAmRdeijp6PK5R/QW/qcXHnJ4AamSAI04MsPbdd8hksxjSOFbUDMMgk82y+p23+MEJftTIgGzhthnXqH7U0eM458JLrMPFotGCXzdifxIqbMrIHSJ2yvkLUDVdVEkZ1lb2bXEbdgYP/+l++dRUAvLVwYceuB/H0DOo8PXLFm6byR8udtrs/OFihb9uxP4kVNiQ1ppkOsPurR/wu9FdVpOmfGKynUEtYdSxU7nq/mVyJHMJiMas6bVX3r8cNaSVQT45Z8dunJ4AakSQP4zpYc+2D2UIlg1JqLAhrTVZ02TD2tV8e8hJlPlk6JUdVXmDqNpuWi+5AdJWdanQ14744gwdh5RmygXzUHU9Uh20IYfbT5m3n+8OPYX3160ha8qJpXYjocKGDK0hm+H5N1ejmnpxSJXClpxuP6o5xG88YzE+2kEimSr4tSO+uEQyhfHRDv6jeQyqOYRTgrwtOTxBVFMvL7y1BrIZaZK2GQkVNpQ/mfSGu+5H1XdKB7pNOdwBypr9fN0XYMMHm8mkU/KpqUhprcmkU7y38QO+7vNT1ixbuO3K2nnVxU33PCiTNW1IQoUNxXJru72Rs1A103HKyaS25fCGUdXTmDdvvjRrFrF8k+Y1181FVbfi8Eo/hV05vSFUzXQCM2fJiaU2JKHChvINYyO7Z6Oq5bhzO6vyhVFDpjI6fIk84IpYvjp4cuhi1NBWqqRJ07Zc3hCqup3mngtyDdJyz9mJhAqb0Vqj4wky8Rh/6L4KVdct5w/YmNPtR7kj/MuJHWx7fx3prDSOFRttGKSzJls3rOFXx7eh3BHpp7Axa0R+N0f2XoOZMOQMEJuRUGEzWmvSmSwfrl/Lr04JokbIAB67c3rDqKFn8uhTKwBTzgEpMkauSvHQ0qdRQ8/EKVUKW7O2lfr559Ehtrz/Hql0RoK8jUiosBnrAQevPv8s366bQJk3Ig1jNpc/XGx8zwwpxxah/HLjmK6IVAaLgMMdQHkifKdhEq+99DyATLO1EQkVNpNvGFvyyGLU70/EMWomlVKKtTWnJ4hq6uPnp4bY8eFGUnLQUdHQWpNKZ9i2aQP/+xTr9yi7rezN0ezHcfxZlP2uhScW/0kapG1GQoXNRHOVitueeB41tI0qnzRpFoOqlgjquMnMu/shqVYUkXyV4tp7HpUGzSKSb5C+44kVcr/ZjIQKm4kZGswMF93yAKq2S0qxRcLlCaAa/VRPCpLRUbQNriXx6XQ8QUZHGTbBj2r045L+paKQn2Z76R0PAxli0sdkGxIqbMY6SCxJ+/lzZH23yFR4gjibOnj62edknbcI5PuXlj/9LM7GDipk2aNo5HeAdFxwNWSSMiLfRiRU2IwRj0MyzgltIVRDr3xyKiJVvhCquoOx58/f9+lJeivsSWtNTGsgzZhZ16FqOqiSeTBFw+UJoBp6ObE9DKm4bCu1EQkVNpOfUTGkZTSqyS/bSYuIw+2n3DeDfxhyGm+/uhJTqhW2ZRgGpmnyxhtvckj9mVR4w3JoXxFxegKoJj/DThhLNh5DxxMFv6aERUKFDaUSmn8+YXquE73wN7D47Kxpfx2MP38ekGWvdKXb0t5YDMgy7rzrUDWdMrW2yFihoo9/PqGdVEKqgXYiocJmEokE0WiUH46/ENXYg0PWeYuKwx2g3BPi6yO6eOWtd63tblKtsJVYrpdi5ZvvcGhTJ+XukMyCKTIOTxDV2MMPx1+IYcRI2OC6EhYJFTaitSadTvP+hg384x8jqBF+Ofa8CLm8QVRNF6eFLwMzLZ3pNmNoDWaKU0KXyA6rIuXwBFAj+jj8pH42bdxIKiUnBNuFhAobMbQmm83yxuuv860WP6o5IKGiWHnDVFafyaNLHpPhPDaSHy73yKNLqBh+pvV7KvS1Ij43hyeAGhngW6MCvPXmm2SzWQkVNiGhwkbyW9yefeYZDm3uoswdlLJskXLlpmwOPr2T5N5dJJLySarQtNYkkikSez/iyNN7ZHpmEXO4A5S5g3zd3c2K52QLt51IqLCRfKh45JHFuBraqPCEJVQUq2Y/rpZ+1DHjuXjezbmpf1KtKKRorkpx4dybUMdOxNUSobJZdnwUI4c7QIUnRFVDG0sefVRChY1IqLCRfGn2rrvupHz4ZCp9cphYMXO4/SjfDL5bP5l3XnkRE4jJOOGC3Vsm8PbKF/hO3STKfDNkC2kRc7gDVHojlFdPYdHdd8sSo41IqLCRfKi4ceFC1JAJOHz9Bb95xZdjTf7rpLb1LNLxKIlkUpZBDjKtNfFEkrSOUn3mDFRdpzRnlgCHrx81ZAI33XSjhAobkVBhI9FoFIDrrrsONXgczhYJFUWv2Y9rVD/q2Emcd/FlsgxSiPsqd2jYrEuuQB03BVdLP3Lyb/FztvSjBo9j7ty5cl/ZiIQKG8mHissvvRj1h9NwybHnJSG//ntI3Zk8/tSz8gA8mPdUrvq3ZOlyqmomU+GRmRSlwY9r1AzUUadzxRWXW/dUNFrw601IqLCVfKg49/JrUEeOpWrUDCRUlAaXJ4ByR/iRZxpb1q+Wcu1BkB9ytWnj+/zgeD+qOSRn6ZQMP67jZ6J+fyqzL7xQQoWNSKiwkb25Mm3oliWoodMZ5JPRwaXDj8sXRg1tpWlcB/G9H5FIp9FaGje/CtowSKYzGB/toH58V24Ut/RRlJJBLWHUcVOJLLgPQEbi24SEChvJh4rwLY9KqChF+W2mw9sZHTgfkgY6npDGzQNMa42OJzETBif3zkINa7O2j0rVr6QM8oVQQ6cTuvWxXKiQgG4HEipsRELFANCcq1jUdRK55lYggxGPS7A4QLTWGPE4kCZ89c2o2k6qfJHC/97FAWeFijbCNz8qocJGJFTYiISKgcHhDuD0hFD13cy+6X4gjaElWHxZWmsMbQWKcxfeg6rvxumRqbSlKl+pCN8iocJOJFTYiISKgcN6owuiajq44LYHgQwxCRZfmNaamI4DGS649UFUTQeVMua+pEmosCcJFTYioWLgcbqDqLouZi28FzIpYjou44Y/p1gsZgWKbJJzFt6LquvC6ZamzFInocKeJFTYiISKgcfhCeD0WFM3Zy24G7JpEqm0BIvPyDAMEqk0ZFOcNe8OVF2nteQhW0dL3r6eCgkVtiKhwkb2bSm99TEJFQNI/g1Q1XVx5qwrie/eQTqTkXNCPkUsZpDOZInt2sb4/otQdd37/TxFaRvkC6GGtRO69XEJFTYiocJG9uam/0UW3Ic6biqDWsIFv3HFweP0hlDV7Yyc3MPundutB2U0Jn0Wf0Zrzd6oda/s2bmdxjM6UcOn4/RICB9Iqkb1o44+g7PmLMgNv5I5FXYgocJG8hM1L7pYxnQPRA53gEEtEVRtJz8fcxZPP/8iADohsyzytNboRAKAp557nl+cPhNV28mgUf3SlDmgfDxR85KLZKKmnUiosJF8qJgz50rUUafjlDHdA5LTG0KNCPDNhlbmLLwdM520lkMGeJ9FzDBIZzKYmRRXLrydb9SfiRph/bzkPhlo/DhHzUAdPYarr75KQoWNSKiwkfzR59fPn486djwOOaV0wLL6AoKoIa14+i7iw3WrcgeR6dyZIQOlcmG93mhMA/DBulW4ey9CDW2j0i0NmQOZo6UfddwZLFhwvZylYyMSKmwkHypuueVm1NCJOGQS4IDm9OTON6jv4fu1pzP/tkWQTmACxoBYDtEYWmMCZirO3Fvu4vu1Y1D1PQxqCeOUQDFgOdwBHL4Iatgkbrv1VgkVNiKhwkbyoeL+++6jsnYqld6wrBMLnN4g5Z5+1HGT8Ezq4rVXX4VsmmQqRcwwSq7fQmtN1DBIplKQSfHKypdpntiJOnYi5Z5+nHIw2IDncAeo8IZx1E7lgQful1BhIxIqbMTIHdW89MknOaSpnXJPSEKFoNIdwOH24/CGUHU9HFo9gc5L5rF184dgZkkkU+yNxjCM4g4XhmHt6kgkU2Bm2br5Q9ovvJZBQ8eh6ntweMM4pHdCuK1QUe4OcciIDpYtWwogs11sQkKFjRiGgWmavPTii3zD00tZs4wZFh9zuANU+UJUevtRNZ18z9fNzLm3s33zhwBkstmirFxorYkZBplsFoCtH2xkxrW38r983aiaThy+fut12+B3IOzB4Q5Q1hzgm95eVr78MqZpSqiwCQkVNqK1JpPJsOrdd/nOCSHUSL80oom/4HD7cXqDlI0MoIa1ccQfA1xw4yI2vf8ekME0sZZGYvadcaG1JhazljhMEzAzbHr/PS5YuIjvn+BHDW2jbKS1s0OqE+LPOTwB1Eg/3z0xzJrVq8lkMra91gcaCRU2orUmmUyyfds2fnDa2aimPgkV4m9yuAO4vCHKmvpQw9s53NtJ+/lzeOXll0gZe6zqRSaDjieIGbqgIcMKETFihkbHE2QyGQBSxl5eefll2s+bw/e9najh7ZQ19eHyytKf+NscniCqqZcjRs9i544dJJNJCRU2IaHChhLxOD8adz6qsQenR5rSxN/n8gYZ1BKi3B1E1XfjOG4sw6dEuHTejbz12krIJMG03sTjySTRgzilU2ttTTpMJgGrIkE6yVuvvcIlcxcybEo/jqHjUfXdlLut1+GSRkzxKZyeIKqxl5+cfjbJROGf2eJjEipsRscTpOMxfusZg2ryy7Y58ZnlKxeVvghqRBA1eALf8vXSOKmPa+78Ey88vYzY7l3We7tpQjZNJpMlkUoR05pozCAWi2Hk+jI+LXjk/45hGLlZEgYxrUmkUmQyWchmrO8DxD7ayQtPLeWaO/5Ew6RevuXrQQ0+AzUiSKU3IpUJ8bk4PQFUk5//9pxOOh5DxxMFf3YLi4QKm9HxBNmEQeOYqajGPgkV4vNrtsKo0xex+i6a/Khh0zj02FP47+mXcnrPTObeeAuvrd3IpvfXE9u5FTIpPvnHNE3S6TSJxF9/WCcSCdLp9L7QsO9PJkVs51Y2vb+BV9ds5LqFNzO6eyb/Pf0SDh18CmrYNFST3+qX8EWs67tZeibE5+P0BFCNfYwY14aZ0GgbPLuFRUKFzRg6DqkEY/znoup7cMnyh/iSHG4/Ll+I8pYZqIYe1PA2yuo7KWsO8qOmCdRMCTP1qkXMuOF+rp83lyVLlvDyyy+zbt069uzZ8xfBIpFIsGfPHtauXcvLL7/MkiVLuH7eXGbccD9Tr1pE9ZQw/9Q0gbLmIGX1najh01ANvVS0zMTlk8ZL8eW5PEFUfQ/jgudBOoGhC//sFhYJFTZjaA3ZFOE5N6Jqu2R9WRwwjmY/Lm8Qly+MIxdWyzxhq5JR04kaMhU1ZAJVTe18w9vLd0+McMTps/jR2PP+whGjZ/HdEyN8w9tLVVM7asgE67+v6bQqER7rhF2Hx/p+Lm8Qh1QkxAHi8gZRtV30X30TZNPEpEnTNiRU2EzM0ECG6x58ClXbTZWECvEVcrj9ON3WQ7rKF8bhi1DuCaGaA6gRfajGnr9tRB+qOWANafNFqMqFB2fu6xb6tYnSVeUNomq7mbf4WSBLrMgHv5USCRU2kx/V/cCSJ1F/GI1LTioVQohP8OMaNQN15Gj+tORJGdFtMxIqbCYfKp5+bDFVR51IxaiZ8qlPCCFyHG4/FS0zOeSYk3j2iUclVNiMhAqbMQyDrAmr33qdH/raUc0h2QEihBA5Tk8A1Rzin1o6WPP2G2RNOffDTiRU2IzO7fPfvX0L/3fiLFRjrwzAEkKIHJcniGro5T8nn0905zYSyZRM07QRCRU2FDM0mGmODVyHqu20BhrZ4GYWQohCc3lDqJpOjgvOlSZNG5JQYUPRXF/FaR0hVPV0XHJCoxBCUOnOhYrq6Zze1Q9AVPopbEVChQ3FDAOA2ZdfhaptxymVCiGEoNJtnVyraju4aM61VpOm9FPYioQKGzIMDWaWB5Y+KyeVCiHEJzg8AVRTHw8/9TyYWQxZ/rAVCRU2ZE3VzPDW2vWU106lUioVQghh8YSoqG3lnXUbIJvBkCZNW5FQYUNaa9JZk83vreZntaegPP0yq0IIMeA53H6Up5+f15/GlvVrSGdN2flhMxIqbEhrTTyZJLFnJ7VdF6Ea/bhkCUQIMcC5PAFUQx/1PZeQ3PsR8URSQoXNSKiwqWjMatZsvWg+6ripVLWEC35DCyFEIVW1hFHHTaXt4utzOz+kSdNuJFTYVDQaBeCqOVeiBo/H2dJf8BtaCCEKydnSjzp2PNdePccKFdFowZ/VYn8SKmzKyG0rXfbU0wzy+Cl3B3HY4KYWJabZj6PZb51W6gng9ASt49H3CeHyhqjyfSz/v33y7zk9QZwea83b0eynUo45FweYwx2g3B3kEI+fp555BpDx3HYkocKmtNYkkyl2bN/G4e421MiAhArxJX0cHvJBwTWqn8qWmZR7Iyh3CDUygGrqRTX2ohp6LPXdqLquj9V3f/z/NfZaf39kAOUOUe6NUDlqJq5R/fsCSD5syGm74stwuAOokX6+75nOzh3bSSaln8KOJFTYmE4kyOgow/54BqopIAeLiU+Xqzq4PEGqfCGcvggVniBlI/tQzUHUiCCqrgc1vB01dDrqD2NQR55G+bCJDGqYxmHeHg4/KcIRp87kh6edxY/HzOKn487jFxMv3Oen487jx2Nm8cPTzuKIU2dy+EkRDvP2MKhhGuXDJqKOPNX6ukOnW9+nrsf6vs3Wv6PSE8Tpi1ihwxO0AodUNsSncHoCqCY/1SdPJKOj6ESi4M9o8ZckVNiYoeOQSdJ31a2ouh5cXjlYTOzP6Ql8YmkiiGvUDMq8/ajGPlRNB6p6GmUNXVR6I3ynYRK/HTUBd/dspl15GzPveJLZ1yxg/nXXsmjR3Tzx+GOsfOkl3lu3lg8/2MTWLZvZuWM70b17yKRTpFNJMukU0b172LljO1u3bObDDzbx3rq1rHzpJZ54/DEWLbqb+dddw+xrFjDzjieZduVtuLtn89tRE/hOwyQqvRHKGrpQ1dOsf19jH2XeflyjZlDlC+57LRKgxZ+r8lqBOHDt7ZBNEZMqhS1JqLCx/A6Q2x5+EjV4Iq6WSMFvbFF4ViUigKslQpkn/PHyRH0P6vcncXjdOP5n6mx8Z80jOHMWd9z7AG+t28DWLVuIbv+QrN4LZoa/9SeTyZBOp0mlUiSTSRJ/9okwkUiQTCZJpVKk02kymb/9tTAzZPVeots/ZOuWLby1dgN33Hs/gZnn4D1rHv8zdTaH141F/eFk69+fW14p84RxtURw7Vs6KfzPXRSWqyWCOnYidzyyTHZ+2JiEChvLN2u+uuJpvtM4BeWJSF/FQNTstxoifWHKmwOokUFUbQ9q8CQObWjlV2ecx8ltAebet4RnVjzP6ldfQu/eAZgfv7lnM5jZDKlMlkQyhaGt0BqNxYjlGIaB1no/f+/6/PO/axjGvq8VjcWIxgwMHSeRTJHKZDGzGch+MoCYGLt3sPrVl3hmxfPMvW8JJ7cF+NX4czm0YSpq8CTrdY4MUt4cwOULW9U6WSoZcBzuAMoT5nsjpvLGi89hSpOmbUmosDGtNToeJ6Vj/FfrRaj6blkCGQia/fstazhGnYVq6EMNa6WiuY9fuCcy8fy5XH33Yp5b+jjaiAEmpmnm3qohmUoTy73J2+3huy98GAbJdHpf9DHNLGCijSjPLX2Mq+9ezMTz5/IL90Qqmq3Xrxr6cIw6a/9lEgkZJc/lDaLquvnttIvJJAy0Da5j8ddJqLC5WG4JZEx7AFXTjkvOASlpDrffWtZwh6ylgNpOBh39R46adgFdly3gmRXPs2vnDtLammOSNc1PVB0+rjwUS1e81nq/yka+upHNBaS0jrJr5w6eWfE8XZfdwJHTZlN19MmoWmsnSpk7hKslIkskJc7lDaFq2hnfHbZOJpWlD9uSUGFzMUMDWRbe+zCqoRenRyoVpcbh9n+8tDEiiDpmAt/xdjFkTAdX3ngHr7yyEmPX9lyLQoZkMoWOx4nmlyxscJ0eSDpuVTOisRg6HieZTGHm+jZiu7bxyisrufLGOxgypoPveDtRx5yBGvHxEokEjNLj9ARRDb3c8sASIEtMTia1LQkVNmf1VZi8/c47HDp8LBVe+VRWChxuq6Rb1RKhwtOPqm5jkMfPUWfO4rL5N/HmyhcxzQyQxQQSyRSxmFE0FYgDzapoGCSSqdxySRbTzPDmyhe5bP5NHDnlHAZ5/KiaNiq8/VSNiuDyBnHILpKi53D7KfdG+Ifq8bz77iowTdst6YmPSaiwOa01iVSa2PYPOWpiP6opIIeLFbPm3LwRTwjV0IsaPIGfuifTfflCXn75JVLJOJgZMqZJ1LCWA4ppOeNg3A/7lkoMg4xpgpkhlYzz8ssv0XX5Qn7aPAl1zARUQy+VOe4bVQAAIABJREFUnnzfhQ1+9+ILcXkCqEY/g888G2PHFhKptNwPNiahogjkt5ZOvewm1JBWqnxyuFixcbj9OL1hq1eipptBde0cM2UG82++jW0b37OWNrJZEskkMUPLJ7HPyDAMYoYmmUxiZrMAbNv4HvNvvJVjJs9gUF07qqbb6r3wytJIMaryhVFDWmm9/JbcVtJYwa878bdJqCgCsVgMgEX33INq7KLSI82axcLpCeDyhSj3RFDD2zh0yGhO7p3F8pdeIxu3fq/pTHZAL20cKPklknTGChfZeIzlL73Gyb2zOHTIaNSwNso9EVwyXKu4eEKUNXZx3/33W301ErhtTUJFEdA6TiqVYuuWLXy/aRKqWQ4Xsz8/Tm+IiuYgqqaD7zVOYfrZF/P2669CJkXWJLdrw35bPotdvsnT2kUCZFK8/fqr/7+9+46Pqz7zPf6TNEVOyM2m7N7Npuze3U1yk929N3dTNrmXUFzUJcuaIgOmGWNjS7ZsdclT5Yrp2HRMhwRIANvEEBJ6tU0N7mCKDRh3rDnnTD+f+8eZkU3oMCozevx6vf/Ji9jSzJwz3/P7Pb/noW3RRfxtbTOqsoOShgAOTxCZRzKyWfM+/Hy7vpm9e/cQTyQKrjC50EioyBNGNEba6KexNYyq80ldxQjm8IYododQ5W38XX0LvedfzmuvbMdMxqxVCd2QI3FDRNOs7ZFkKo2ZiPHa9m30nHcZf1ffgipvo9gdwiHbiSNWtp7i5K5FmNEIRlTmfYx0EiryRLau4upVD6LGNVMqLbtHGB9Ojx+7x9rm+Gb1LLqXreDNV7dlGjuZ6J+iS6UYHIZhoBvGQIOwN1/ZSvey5XyjeiaqfB52Twinx3ofh/+zJAauqckLUL+exvV3rJJ6ijwhoSJPZFt2/+X5DXzd1YlyBWULZISwN/iwe0Oomh7sdZ2cEzyPTS8+B5gkkkk0uRGOKJqmkUgmAZONzz/LjOB52Ot7rPfPG8YuHTpHBLvLj3IF+Yark43PPyutufOEhIo8ohsGJOMcO3sxqroLh7TsHuabng+HJzNOfHwT4+Yu5qkNz0EqSTKVklMcI1j21EgqnYZUkqc2PM/YlsWocU2o+gAOT0BOigwzhyeAqu7iuDlLIZVAl4ZXeUFCRR7RMo2wLr7uVlSNjEIfTqWeADZPCFXdw49dM/nt3atJZVpn67qBIWEiLxi6jq4bAKT0fm6/azU/ds1EVfdg84TkGhtGTk8AVdPD8ht/C5hy6iNPSKjII9ktkBc3bWFMZRM2TxjZAx5aDref0sYQaqKfL1U1037RSvbvfhsAIxqVmok8ZQ3viwGwb/dbtF5wLV+qbEbVW++3HEEdWnaXD5snzJcqm3lp8zZroq2EirwgoSKPGIZBNJ4g/t4+xs9bhqrplSepIeTwBCh2hVBlczlu7vmsf/5FMJPEk0mrgEwCRX7LdOuMJ5NgJln//IscO2cZakILxa6QzN0ZQtYqRS8T2s4ncfgARiwugT1PSKjIM5GI1TBp2dU3ocrnyXG4IWB3WcdEVZ2Pvxl3OhdddR1Rrd/a6pATHQUne1IEwIgc5sIrruVvxp2OqpuPwysF0kPB4Q2hyudxwbW3WKc+IlLsnC8kVOQZwzBIp1Jsf+VVvuTupVhmGgwqpyeA0xtGjW/h180LefmlFzJbHTFZji1wuq5jxKwtkZdeeJZfzTkXVd6G05s9fioGS3GDny+5e3nl1R2kUjLrI59IqMhHsTgJvZ+quQulEdYgcniCqHofzpoOfBdeTkyLkEym6I/IgK/RwjAM+iMayWQSQ9eYf8HlOGs6UPW+TEfO4f+cFhqr4dV8aloXkzAiRGPS8CqfSKjIQ5HMLJArb7kDdeJMnI19SMFm7gxsd9T08MP66fz50cchnSIai8vqxCil6zrRWAzMFPc/+Aj/WnsWqqYHhzck2yE5lWl4dfw0rr3pVml4lYckVOQhwzBIplK8/cZr/OMpvdZTkxSR5YS13WHt53r9l/LOmzuOGmIkqxOjm5E51g1vv/Eqbt8lqPJWnN6wFEzniMPtR9X7+KcpPnbvfINEMiWrgnlGQkWesm5uaaZ2L5SeFTm8oRU3BLCPO4e+8y4inbAGufVLkZg4Sn9EI5FIkIpHCZ97ASVjp1PcEMAxAj7D+c7pCaCqe5jWuxhIS2+KPCShIk9lG2H98ckNqAo5BfLF+KzViZr5/IO3l9Vr7wfSst0hPpK1HRIH0qy6dy3fapyPqvVnrkPZivy8HN4QqnIef376OWl4lackVOQpwzCIJZJE9r/LL6f5ULXSs+LzcjZaQ8D+t2sGm7a/OrDdIcuu4uMYhoGW6cb58rZX+N+uGdZ2SGPfsH+m85HTE0DV9vJ/pwfQD+whlpBTH/lIQkUeyxZsnrfiSlR5q6xWfA4OTxBV2cnEpvkcevct0ib090eQ+gnx6Rj0RyKkMTnwzi6qZ3SiKjvkZMjnuRa9IVR5KxdcfrUUaOYxCRV5zDAMUskkb+56i697eihyBaQS/VOyu/zY3QFUZQdzz7uaeP9BEikTTZPlVvHZaZpOIm0SPbSfWYuWoyo7sMv1+JmuxyJXgG94e9j11tukkglZpchTEirynG5EIR1n5sLlqMpOSr3yhPRJHC4/dm8YVdXJwut/D4kosURS6ifEF6LrOvFkChJRFlz3O1R1F3ZvnxRwfgqlXmvFcNbiFZCKoxvD/36Kz0dCRZ7TMlsgjz3yMM7KZoo9cm7+49hdfko8fdh/PYXL7/iDVQxmRCVQiJzQdR3NiAFpLrtzLfZjp2Dz9MkY9U+4JovdIUqrZvP4Y49YNU2y9ZG3JFQUAN2Iko4blJ3RYs0nkA6bH8rh9lPs6cN53BTuvOO3UpApBsXRBZy33nITzuOmUOzpk+vyY65LVdtL5VnzMBNRWaXIcxIqCkD2eOnt9z+CqmjDKVsgH+B0+yny9HHM+KmsWXVPphBMVifE4IlkGmWtuedujhl3JkXePmmp/2HXpjeIqmzjzgcek2OkBUBCRQEwDIN4Msl7e3fzk7OCqInSYfN9Ny23n2LPAr46/iweuP8+qSwXQyZ7QuuB+9by1fFTKfYukGBxFIc7gJo4n/88O0T/vneJyzHSvCehokBkb16X3fgbVEWbHGnLsLv8FLn7+MrYM/jT/WsBpEOmGFL9Eeva/NP9a/nyCadR5O6TuqcMhyeIqmjjiptul7BfICRUFAjDMEgkU+zf/Rb/4pmLagjhGOXFYQ63nyLvQsYcewpr16ySm5YYNtnQf++quxlz7CkUexeO+hoLh8uHagjy/cZWDrz7NomkrFIUAgkVBSQ77GjRpVejyubhHMXNsBxuPw5vGNuvGrnzdqsoMxKJDPt7JEavSGbF4vbf3IbtV404vOFRvWLh9IZQZfNYvOLazIkPqaUoBBIqCog1vTTNG69s5R/qZqFcoVF5lM3u8mPzhFATZnP9dSutLY9+CRRi+PVHIgBcdd0NqLIWbKP0CLjd5Ue5gny3vomdO7aTTKVllaJASKgoMNnViuD5y1ETWkblaoXDE0RVd7HkplVHjS0f/vdGiGj0yDW68Ia7UVWdo7L+yekNoSbMpe/iK+QaLTASKgqMruukTHhz+xa+M7EJ5QqOnr3bBh+ljWFUZQdNi1dAKoYRjRKVJyAxghiGgRGNQSLKOX0Xo6o6KW0MY2sYHauKDre1SvG9hjnsenUrKdOU5nMFREJFAcru3fqWXoQqmztq+lY4MwOJ6mZ2E+8/SDSekJuVGJF0XScaTxDvP0T19A5UWeuoWVV0eoOosnkEz18uxdMFSEJFAcrWVrz1+qt8t27mqKitcLr9qDo//+WZyXvv7iKRkqcfMbLpuk4ybXJo905+7joHVecv+B4WdpcP5Qrxj/VNvP3mayRTKamlKDASKgqUpln7tktWXFPwJ0Gs5dQQX/P0snHbK1JJLvJG9jp9ecs2vubpQblCBb1dmT3xsezKG+Q6LVASKgqUYRjEE0n2vL2Tf5nchpoUKNhpiXZPiJJxM/jd6nuluZXIO9nmWHfcs5qSsTOwewrzAcDh8qMmBfj+SR3sfWeXdM8sUBIqClgk8xR02U13WKsVBVhl7vCGUONbOPeCi639WV2XwkyRXwxjYE7IkvMvQo1vsXqsjIDrK5ecHquW4spbfyezdwqYhIoCZhgGsXiC6KF9/PSchaj6QEHt2ZZ6g6jqHhqDKyCdxIjG5MlH5CXDMIjGYpBK4PZdgqrpobSACqydbj9qYoCfzVpM7PABovGEXKsFSkJFgdMy7YHvXr0GdfxU7JMXFsTRNYfbj5ro48cN57DnrTeIJ5NSmCnymq7rJJJJdu98jR/WT88MBhz+a+0La/Bhn7wQdfxUVt37h0wthWxRFioJFQXOMAyMWIyU0U/ljE5UdVdBbIPY3UFstR388eFH5ViaKBjZGSFr//QQtpp263M+Aq63L8KZaUZXO6uHtBGRFcUCJ6FiFNAz+7VPP/E4X6ppweYO5nVrYKcniCpvI3TRFYAp3fhEQdF0AzDxn7cCVd6W1w8BdpefEneQL9fOZf0zTwHIimKBk1AxSlg3qhQt512FqplPqScw7DeczxcoAqiJPn7dch5xQycWj8tTjygo2VqouKFx7JxlqIk+nHl6vZZ6gqjqXtouWgmk0HS5VgudhIpRQtcNUqkUO3e+yXcmzrKOmObZfq3d5afIHeIrY8/guQ3rrVUKqSAXBShbC/Xc+mc4ZtxUitzhvGtg53D7UfU+vlvfxFu7dpFMptDlAaDgSagYRbKNdq668VZUWUvete8u9YZQ4+ewZMXVMoRIFLzs4LEFl1yFmjAn7xrYOb0hVEUr19x8m9Q9jSISKkYR69hanJR+mLFzz0VNDFDqGf6bz6e6QWWOpP2yaZF1JC0m2x6isBmGQTQeJ3Z4P/81c1FeHQm3tj26qTi7g3RMx4hJceZoIaFilLGKNk3WPfs8X6qYSbE7NOKLNu0uHyXuEPaymTz8xNPS3leMGtnVxQcfexLbhBmUeEb+Noi1TRnkmMpZmW1KKc4cTSRUjEJW0WaS3ouvRVV1jfgmO6WeAKqqm9bzrwGSUuwlRhVNN8BMMnfZlajqnhFfZF3qDaKqugisuF6KM0chCRWjUHYuSP/+Pfz8pNmo+pE7HdHh8qEaQvywfgb739lFIilTDcXoYhgGiWSKfW+/yb/WTbOGjo3Q1Qqn2zqd9V+ntBA5uI94QjpnjjYSKkapbHX5Q489gb1q7gjtXeHD0RhGjWvmhtvukGIvMWplm2Jdd8tvUOOacDSGsY2wYGF3+bG5Aziq5/Lw409J58xRSkLFKJatLu8ILUaVt+NsHFlDjJzuAKqmh7HNfaS09zCkOFOMUlZn3DiJyCGOnxVC1fbidI+sbRBnYxhV3kZX31IZGDaKSagYxaxl1SSH9u/lp2f0oOp6cIyY/Vofdk+I4vpenly3QY6QilEvW7T5+NPrKKrvzYxIHxmrFQ5PAFXXzc+m9nLowD4SMtZ81JJQMcplt0GeePjPOKtaKPb2jYjqcqc3hCpv5czuhUBaAoUQ0ezqYprTOvtQ5a0joneF3eWjyNNHafVcnnrkIdn2GOUkVIiBJ6DgiutRY5uH/UZl3aTCfKV8Oi8/twFTjqQJQTR6ZI7PSxvWcUzZ2RSPgCOmTm8INa6ZvstvlG0PIaFCZGYNJBJED+3juObFqIn+YZ014PQGURVtzAmeK0fShPgr2Tk+swOLURVtw9oZ1+kJoOp8nNiylNjh/UTjctpjtJNQIYhGrdWKtGmycfMW/nv9XIom+bAPwzHT7HyPr1fPYtNLL8gqhRB/Rdd1TGDji8/ztaqZFLmGp4Gd3e1HTfLzrYZWNm3ZStpMS1M6IaFCHJGtr7j5lltRZXOwD8PSqtMTQFV2MG/BBdI5U4iPkN2ynB1chqroGPKVRbvLh80bRk1o4bbf/FbqKMQACRXifXTDAEyall2NquqkdAjrK+wuH0XeBXyzZhavbNlE2jRlqqEQH0LXDUzTZNvmjXy9aiZF3gVD+gBQ6g2hqrqYff61gFyn4ggJFeJ9rG6bCSIH9nDcqS2omh5KvUPzFOT0hlET5jA7uNQaay61FEJ8JKu2wqTJvxg1oQWnd2j6zJR6A6iabk48sxXt0F7pmineR0KF+IDsNshLL7/MN73zUQ2BQd+ztbv8lLgCfKm2g2fXyxAiIT5J9iTIs+vXMaa2g2LX4F+nDpcfNSnA3zb62bhpE5imbHuI95FQIT5Uti3wnavuRU1owjbI/SucngCqupvGwApIJ2Q5VYhPQTcMSCXw+C5FVfcMam2FVUfRh5rQxF1r7pO2+eJDSagQH8mqr4C+pctQx02ndHIftobcBwu7y4/dE0JVzuPBJ5+RAk0hPqVsweafn3gaVTkPuzc8OKsVDT5KJ/ehjp/BwvMutK5RCf7iQ0ioEB/JMAz0aIyU0U+j/1JUde+gnIl3eqw92gnNfcS1w+gj4HcXIj8Y6NEo8chhxjWFUTXdg7Ja4fQGUdW9NAaWkzIi6NGY1FGIDyWhQnwsXddJpFIc2PMOP5nSjqrz5TxYODxBVFUnoYuvBKBfVimE+NT6M6sVgQsvR1V14vTk9vp0eoOoOh//eVoHB/e8QyKZknon8ZEkVIhPlF1i/cvz6/nOhFMpnuTL6eAxu9tPcYOPL3v83PPIM4BpBQt5EhLioxlGJlCkufvhp/myx0dxQ26b1jk8AYom+fhu2WlsfGGDbE2KTyShQnwqkYhVuPmntWsoLZ9FkTuMI4dPQ3Z3gOJ6H876Xu780+OZs+9RCRZCfBjDQDOigMntf3wUR30PxfU+7Dkch+5w+SlyhxlTPos/r11jFWZGIsP/u4sRTUKF+NQimRWLq+78A6qyFbs3lNMTIQ53gOJJfsbU93DT6j+CmUIzorJ3K8RRDMNAN6Jgprhx1R8pre+huMG6fnIW8l0+q3i6qo1r77pfBoWJT01Chfj0DAMjGoV0nMCFV6AqWnE25vZEiMPtp6TBj622k2vuWAWkiOgGhiE3NCEMQyeiG2AmueK2u7DVdlLSYF03uboGbQ0+nI19qMpWQpdcZR3xjkaJRiXci08moUJ8JtkTISRjzOpdgJowB+fkBbkNFh4/dneQ4toullx+HSRjxOIJKQ4To5qu68TiCUjGWHTZSopqOrG7gzg8uQ0UjsYFqAktzPEvglRcTnqIz0RChfjMrJtbkrh2GPfUZtSJTZRODuc0WNhdfuzuEGr8HGb1hEnHdBLptHTvE6OSpmkk0mnSMY1Z3SHU+NnYPTmeTprtRXFiE+6pTST0fmLxBIaEefEZSKgQn4uu66TSaQ7vfYdjp3ajKrspzfFRU7sr89R04kxqzunk0MEDmGaaSESChRg9IpqGaaY5dHA/lS1h1Ann4GjM/QCxUm8IVdHJCVOaiezbTSqdltVB8ZlJqBCfm6ZpJJMp9rz7Lj9rPg9Vk/s2wXaXjzEn9aGquvhZ07m8un2rtAcWo0a2Xf6r27bys1lLUdU9jJmc+5b5Vpv8Hn4++zz2vLubRDIpq4Lic5FQIb4QTddJp1K88cbr/NvUMKqmN/cd/Rp8lHqDqLr5/HBKL089/pg1cMwwZK9XFCQj89kGePzRR/j+lB5U3XxKPcGct8q3Otr28L+mLWDXzjdJp5JoskIhPicJFeIL03Qd00yzfdtW/m1aX+bml/tWwQ5PANUQ5KvjzuTq62+GdJJoLC43QFFQNF0nGo9DKsmV19/MMSeejmoI5vTI6MCWhyeAqpvPv09bwKvbt2GaabmexBcioULkhJYZw7xl8yZ+cLp1oxrjzf1N0O4OUNIQQFW207z0coyDe0mZJv1SZyEKQH9EI2Wa6Af2MHPRClRVOzZXIKdNrbLGeK3r9IenB9i6ZbPVLVMChfiCJFSInBlo5/3Si3z/lF5U7fyctvM+Eiz8OL1hVEUbx57Rxiuvv5G5Icp2iMhPhmGg6dZ2x/bX3uD/nd6KKm/D6Q3ntO32+7c85vP9U+bz8l9ekuZWImckVIicyq5YbN60ke+f6kPVzs/5gKOB7RBvCFUzn++eHGDtA38GTGKJhDxtibyiaRqxRAKANffdz3dO8qNq5g/KRGArUARRNb384DQ/mzdtlBUKkVMSKkTOZVcstm3dzP88M5jZChmkYOH2UzQpQGl5M+FzL0Tvf49kKkV/RJNVCzGiGYZhbXek0kTeO0j38ptwljdRPCmQ2w6ZWQ0+xniDqLpe/n1aH9u3bZEBYSLnJFSIQZE9CvfK1s38x1l9qOru3J8KyQYLTwC7O4gaN4djz57Plsw0RV3mhogRamB+B7Dx2Wf4f9N6UWXt2D2hQSnItDX4cHpDqOoe/te0PjmaLQaNhAoxaPTMHvHbu97k57PORVX1UDo5t7NCsqxGWX2oynb+pm4uV99+D8QNktKFU4wwEU0jmU5D3OCq397NV6tnoyraceZ4QN/7AsVJC1AT5vGLWUt4+61dYJqy5SEGhYQKMag0XSedTrPvwEHKprWjxs6i9ORFg3PzdGUmnbrCqHFNnOy7gHfe2mU9kemG3ETFsNK0zDAw4O233uIk/8WocU2UuMODUtCcDdulJy1EjWum6tRzOLjvXdIm0ilTDBoJFWLQaZpGPJWmf/9uPGfPQU1owe4ND2Kw8OGcHEZVdfPDKd2suecuSCdJplJyMxXDwmprnyKdinPXPav4wZRuVFU3zslhHIN0HdhdPmyeEKpsLpNnzqN//x7iyZSs3IlBJaFCDAlN14mn0sS1w7SEzkVVtWH3BHM7EOl9fDi9QYom9mIbN4NT/Rfy2ps7IZ2ShlliyGi6TjQWBzPFa2/uZIrvAkrGzaRoYvZ0x2AFCj82dxBV1c68BeeR0PuJJ9PougQKMbgkVIghYxgG8UQCUnEWXnYdRdWd2BsXDloBp81l9bRwePtQVd38vaeLq264hWTMIJFM0h/RZOVCDApd1+mPaCSSSRJRnStvuJm/93ShqrtxDFLviSynJ4Ddu5Cimk6WXHkjpBPWtFEpWhZDQEKFGFK6rqMZUTCT3Lr2IasF8cT5OAapl0X2qW1MYxB7gw9V0U5Fy0I2v/gsAIlkUoKFyCld10kkkwBsen4DE5pDqIo27JkjnfaGwQsUDk8QNXE+x4w9nVvXPgxmEs2IymdcDBkJFWLIGYaBlhmW9Nif7uMfq6aian1WsdognAw5etXC7g2jKjv4am0LgctuZP++vQDE4gm58YovRNd1YnErTOzd8y7+y27kv9W0oCo7rBqiQVydsDf4rC6ZtfP5p5ppPPnwA9axaukyK4aYhAoxbLLdN1/Z/DK/mNqLqp6Pc/KCQStcO/ppzpof0s0PvPO4+dZbiRsRTEx03ZBwIT4TXdfRdQMTk5jezw033cT33S2oym5KGgKDugpnc/lxZI9TV/Xyy2nzeWXLy9IlUwwbCRViWEUiEVKpNP0H93Oq/0LUsWdia1wwaCdDBm7Ebj9jGkMU1/tQZS2cMDPIY089A6RIptISLMSnYp3qSAMpHnn8KY4/J4Aqm0PxJB9jGkOD0xnz6BUKlw+bdwHq11M5PXQJ/QcPWB06I5Fhf23E6CShQgw7XdeJJRKYMY1F51+MvayZooZg5glv8MOFwxtCTQoyZsJ0ZvmXsOWl58FMW+f5DVk+Fu9ndcM0SJuAmWbj8xs4J7AM54QZqPogDu/ghwmby4fDE6RoUhBHeTNLLroU4rps44lhJ6FCjAiGYRCNJ4A0ax54iG+f7ENVtlPaOHj9LP46XJS4Q6iyVr5afjazg0vZumkjJOMkkik0TZeb9Sin6zqappNIpiAZZ9uml2kOLOG/jZ+KKptHiXsowoS1OuH0hlCV7XznFD/3/ulhwCQaj0sAFsNOQoUYUbKtvV/duony6V2oqi7rCN4g36htLj+2Bh8OdxCbO4yqaOcbVTPoXHoJO7ZtAUwSyaQ0DhqlNE3LnOgw2bFtCx1LLuHrVTNQle3YPGHrczOIRcZHAoUfhyeMquqifHoXO7ZtHijIHO7XSIhoVEKFGIGysxEiB/Yy96LrKR43g6J6a5tiqG7cTk+QEk8fqqKVb02aTfiSq3l35+sAmKaJLsf0Cp6u6+hGFNM0Adj95g5Cl1zNt+pnoypaKfH04fQEh2Qlzdbgw+ENUVTvp3jcDOZdfAPagb3WdSJBV4wgEirEiKTremY7xOT++9byLyd3oyracDYOXlvjD4SLBh8OT4giVxBV3sb3vB3MDS9j68a/QDJOKp1GN6yZDrLsXBgMw7C2uowoqXQaMxlny8a/MDd0Lt/1tKPK2yhyBXF4QtiHIODaXNbpDmdjGFXRyr+e0s39963NbHdI/YQYeSRUiBFNz/SzeHPHdmrPbs0sN/dR6g0O2U09WxRXPMmPqmjnm+Vncday63js6XWk4waYaaKxOP0RTQJGHsoGif6IlmmpnSYdN3js6fWctew6vlk+FVXRTvEk/5AUDx8daku9QWyeMKqynYYZ83j79Vet46LyGRMjlIQKMeJpmkYybZIy+rnyd3/gq9VNqJpuHI19Q7P0nH1idPuteSKePlRZOyU1HYxvDnPXmrVEDu7PbI2k0aPW6sVwv27i03y2dIxoFNNMW9NsD+7nrjVrGd8cpqSmA1XWTrGnD6c3OCRFmAOBItt7oqabr1Y3c9Xv1pI2+kmk0lLXI0Y0CRUiL+i6TjQWs1ofv/AsJ85ehDrhHGzu0KCNjf64J0inJ0iJy+pgaBs3kx9NX0zPpdezfctmzLgx0AJc0w35EhhhNE1D042BVtpm3GDblk30XHo9P5q+mJJxM1G18ylxBaw5GkO2IpYJr56ANQzshJmcOGcRmzIt5aOxGIZsd4gRTkKFyCu6rmMCxuEDLL3kcr4yqRNV3c2YyWGc7qENFzaXtd9t84ZRNT2oyk6+UdOEt+8qblu1lv4DeyGdxAR0I0p/RCOi6RhGiLokAAAQ1ElEQVSGfDEMJcPQiWS2N3QjigmQTtK/fy+3rVqLJ3wVX6+eharsRNX2YPcOXd3OgAYfTrefMZPDqOouvjKpk3MvuRzj8EFM6Y4p8oiECpF3NE1Dj0YBk/Xr1nHcmW2oqi5KJvkGdeLpR65cuKx/d4w3iM3bh6rupqSui/84aS4Lrvsdjz/+BDEjApiASTyROZoq++KDy7BWieKJ5MBrHzM0Hn30MfpW/o7/mDyXkjprcqjN28cYb9BamRiGQOHwhChuCKCqujh+agfr168DzEwhsKx0ifwhoULkJcMw0HQd0zSJHD7ExStv5h8aWlHVPdg9IRzDsGqRDRil3gB2TxDVEEBVdDCmag4/bVrGuVffxIaXt3Joz9sApFNJ4onEwBeHFHjm4DOhWasR8XiCdMra3ji05202vLyVJVfeyH82LaO0shlV0UFRg/U+lQ5HkMhwZIfclc3j2xNnc8n1txE5/B6maaLpUvQr8o+ECpHXrKOncQC2v7qDU4OXYKuaS/HEXmv2wjB8Ufz1CkaJJ4yq6UbV9GAvn83PZy7Af8WtPPfiXzi4fx+pmDVYLRqPE9H0DA1dvlQ+kmFYg9+Ofr2yn4NUVOfggX08++JL+K+4hZ/PXIC9fLa1RVXTjc0bHp4ViaPDhMvPmMYwxRN7sNW0cUb3Ql7bummgdkKOiop8JaFC5D3DMOiPaFb75FSCu+76PT85cz6qvDNTyDk03Q4/OlxYzbTGeAM4GsOoiT5U2TxsLj//093E3AtXsvqeu9m7++2BEyQAqXR6oNBTwsWR9zpbaGkN8gLTTFnjxt95i1V338XcC1byI3cTNpcfVTYXNdGHozHMGG8g06xq+IKmtdURxOYKocra+T9n9HDP3XdDKkEimaI/Iu+1yG8SKkTB0HXreCDAewcPsOTa2/ha1SxUWRslnjDOITwS+LFPqZkhZkWTfKhJQVR5O7YTz+J7087lxGld9C2/hsefeoZ9O3dA2vrCxExjplNWPYZhFPxKxpGVCA3NMIgnkpjpFGQCF+kk+3bu4NENL9G3/BpOnNbF985aiu2Es1Bl7ahJQYoyXSiH8ijox3G6/daqVVkrX69uYuk1t3H4gHUU2YhKh1ZRGCRUiIJjFeclANj8lxeZ2hXGOXYaqtZ6SrSKOYdv5eJoA1sk3j5UXS+qugtV3YXtuDP4t9O6mbjgBhZfeiVPrn+OPXv2EHtv35EvViCVSmFEoxjRKJpuENF0q64gDwJHNjhomnUqRtONgd8llUoN/I6YaWKH9rFnz7s8sf45Fl1yBRMXXM+PT+2iZPwsVHW39brV9VLi7Rv2rY33s95fhyeIqvVROv5szu5ZyNaNLwEQTySkEFMUFAkVoiDphkG/ppNMpSAZ48l1G6juupCiqlZUbS92b2gEffEcCRel3iCl3iCOxgXWKkZVJ6qylSJXgL+ta6JsejftK1dz2a2/54E/rGHnzp2YiThmIgZmKnPKAdKmaX1hZbZPdF0f1qCRDRDZEKHp1upD2hxIDmAmMRMxzEScnbt2ct/qe7j0pjtpu3Y1E6Z3883aZopcAVRlq/W6NARxNIYHXrORFSas99TuDaFqeymqaqW660KefvZ5SMVJplL0azr6CA9+QnxWEipEQdN16wnYNE3iUZ07Vv2B/zrbT3H5XFS9H3tjeMQsj79Pgw+H20+pN4DTG8LuDlDsDqHqA6jKLtS4JsZUz+FbZy7hV2d2MqM7zMW3rWbNUy+x7olHeW3rRrSDezNB4+g/prWlkkqSNk2S6TSJZJJ4Ikk0FseIxqxhaUYU7X2FkB+kZQZu6UYUIxojGosTTyRJJFMk02nSpgmpZGYLx/yrHyNF5MBeXtuykXVPPMrqp17k4ttWM70rxC/P6ORbZy6htGo2auws6/edZP3+drf1epR6AyPzfXMddaKj3vqc/fJsP79bvZZEVCdtmmi6IVsdomBJqBCjwtGnROL9h/jt3Wv4P1NaUeOaUZMCOLyhTPOskfOk+0E+HC4/pR6r4LPIHUJN7M0s/3dbzZvGz8Nx3Cl8xz2PnzYtpTy0ktPmdOJbuJSrbr6dNQ8+zoZN29m+611e376V3W/s4MA7u4gc2Esi8h5mTINEFNKJDwaBD/wxrf8uEcWMaSQi7xE5sJcD7+xi9xs7eH37VrbvepcNm15hzYOPcdXNv8W3cCmnze6kPLSSn85aynfc83D8+hTUhHnWz5/9Xep6KfKEcTRa2xmOzO8//O/BR783Trf1OVKTAqjxzfznlFZuv2cN8f5DmVMdcQkTouBJqBCjilXMabX7PvDu26y45np+ckorqqzFGq/eGB5RS+ifht3ly5wwCVDqDWFrXIhyhVB1861tgrJ5qIpWVE0namIPJQ0+bA0+vnm8lx/WTeUXp7VRNrsPb2A5Zy65lukX3kzzitvpvm4NgVsf+Ejd162hecXtTL/wZs5cuhKv/1LKZvfxi9Pa+GHtVL55nAdbw3xKGnyoiT3Wv1/Rav08VZ3Wz+eyft5SbyizfeHPy9ff0RimqN6PKmvhJ1PauGzljRzc806mCFOOiIrRQ0KFGHWMzOmJWMJ6Gj+0ZzdX3nALP5rcYi23Z+c+jNDl9U/8kstsnTg9AUo9QZxe61itwxPEflRTsCLvApQ7bNVuTPShajOrHlVd1qpBeQeqrO2jlXdY/12V1ZVS1fZaf8+kIModpsi74MjP5A4M/AxOb8j6uTzWFsZQz9bIFafbPzD/RY1t4seT53LlDbdyaM9uwCQWTxCR48BilJFQIUY1TdeJZwZLHXhnF7+5azXHN4Wx13Sg6uZbe/jD3dtgsDT4rKdsV2YCq9saoJVV6gkOFEF+qEwwGOC2QoLDlVltyNOw8HGyPUfs7oD1+ajp4PimML+5ew0Hdu+ytteSSZnVIUYtCRVCRKPoevYYqklcO8yqPz7I+LlLKa7rQlVafS6yX6QFGTDExwaJbMAq8YRRlW0U13UxYd5SVj/wEAn9sPW5SSTQdTkeKkY3CRVCZBiGjqbpRGNxwCQR1dnw/Auc3dPHN2qbURXtqLpebJ4RemJE5JzD7cfmCVs9RCra+UZtM2f39LHh+RdIRHXAJBqLo8n0WSGIRiVUCPFBmWFl8XjmBEQywfZNL3Putb/hR2cvxjahCVXTS1GDH4cn07GxAJf6R6VMPYrDE6KowY+q6cU2oYkfnb2Yc6/9Da9s3gipzIpWPG5tc0jNhBADJFQI8TGspk2G1XMBE+29g9y1ajXV8xZSOqkbVT4PNdGP46SFlGbqCvLt9MJoZ88cBy31BHCctBBV50OVz6N0Ujc1rYu4a9VqtPcOAiZp00TXDSm+FOIjSKgQ4lPQdN0a9pQ5jpowImzd/gqLll/Dz84OUvzr0zKnH3qxe0J5e3JktHG6/dg9mX4ftb2UHHc6v5zZx+IV17B1+yskjMjAsdD+iCYFmEJ8AgkVQnxGmmb1ukilrFMj7+15m7X33c8ZgQv457MWYS+fg6rxUdTgxzZwekRWL0YCqx16EJs7gGrwo2p82Mvn8M9TF3Fm4ELuu/9++vfvtuaqJJMY0ZhVZzMCPndC5AMJFUJ8AdbwsiRmpvvkgXd2ccfaBzmlZxl/52qluLYLVdFOkXvkzqgoZH89U6XIHUZVtFNc28XfudqY0ruMO+97iAPv7Mr0CDWJyZAvIT43CRVCfEHZEd39mk4sbk1HTRkR9uzdy92r7+XURdfwT+65qKpOiqo6UNVdFLnDOL3BzCkSCRi5lWn+5Q1arcyru6zXvbKDf3LP5dTF13D36nvZu3cv6ai1vWE1qtKlWZUQX5CECiFyyMicHDFiMZKZplpmMs47b77Goy9sIbD0Qn42PcSXa1pQ41pQVT2ouvnWSRJvmFIp9PzM7G6fVWTpDVsnNurmW6/ruBaOqW3hZ9NDBJZeyKMvbGH3ztcxU1bwSyaTGLGY9X5JkBAiJyRUCDGI9Mwkz5RpAtbE0LgeYf2Tj3PtfU8ya8El/I+Tuiiu70GdOBNV0YVqCGFzBwdaW5d6gnJs1eU/Mrn16Jbj7iCqIWS9bifOpLi+h/9xUhezFlzCtfc9yYanniCu92cGoKVImaY1WVUKLoUYFBIqhBgC2lEjw41oNHNEFdIxnUMHD/LwI4+yZPlVeBeu5Pv1MyiqakXV9qAq26zZGpMC2CZbg7fyeV7GZ16FGBgBH8I2eaE1AbTK6nKqansoqmrlB5Nm4F10HUuXX80jjz7GoUMHScd06/U1TfRo9Mi4dim6FGJQSagQYhhommYFjFiMZDIBmZBhxqPs27mDF7ft4LbV99MeWMCv513A907uxX7sKajxc1E1mcFddb2oSX5K3CGcjeHMikbgyOyNERAKPjE0DMweyQw/awxT4g6hJvmt32+iz/p9x8/FfuwpfO/kXo5rvYB2/wJ+e+8DvPzqG+zduQMzEc1MYzdJJhIYsVgmREjBpRBDSUKFECOA1SJcw4jFBhptkTlRkoobvL51Ew//cS3Xrn6I2UtWcMLJM/juGQv42kkBbFVzUGObUBWdqJoe1KQARZ4F2NxB64s7s43i9IasCaHeI4PAHH81BCzrU2+1NPje9//LDidzHDWcrNR75N9+36RUd5AizwJr9aGmx/r5xzZhq5rD104K8N0zFnLiyecwZ8llrFz9IA8/sJbXt20iFTcy2xnWa5ROm1ZthKZJq2whhpmECiFGEMMwBlYxsnQjRiqdznyRpjETMZKGRn//YV7euJFVd/2eC1beSuvKe2kMLOeXZ3Tw7bGN2KvnWYWLtV2o6g5URavVAbSy0xpVXteLqvehGoIod4hibx8ljQuxTV6E/aTF1uqHN/ARU0oDOBvD2E9ajG3yIkoaF1Ls7UO5Q9bfV59ZSanuzoxRn2f9+9UdqNouihr82Kvn8e1xk/nVGR00BpbTet29XLDyVlbd9Xte3riJ/v5+koaGmYgB1u+fSls1EUe/Ppqc2BBixJBQIUQe0HXryzOSKfw0ojFisRjpgbABmGmS2nsc2P0WO1/dxpYdb/DI+he55ferOXf5VbTPDzKlNUDlgps4ofsyfj57Gf9+Vph/PqmLv6+fzdcqpvPlcWfgOO4Uin7RgBo7M1O/0I6q7DhKu/W/j51J0S8acBx3CseMO5OvVUzn7+tn888nd/HvZ4X5xexlnNh9GVULbmJKW4B2X4hzl1/FLXet5pENL7Jlx5vsfHUbB3a/RVI7DGZq4FdJp9PEYjGMaMwKEZnfXwoshRjZJFQIkces2SRWfwVNN4jG4sST1ikH0ikwjwodR/1Jx3QiB/ayd9cbvLF9M5tffI7nn3mSdY8/whMPPcBDa1ez9rF1rF6/hTXrNrJm3aajbGT1+i2sfWwdD61dzRMPPcC6xx/h+WeeZPOLz/HG9i3s3fUGkQN7BwomP/DHTEM6RSptEk+mrEmfukEkExxk5UGI/CShQogCZhjGQPDQNO3Iakc0SiyeIJEJIOaHf/V/5j8mkDJNEskUsXjCOnlx1L+dDQwSGoQoTBIqhBiFsl/s2cBxdOgYCB9H1S18lL/+/2T/rqP//uH+XYUQQ0dChRBCCCFyQkKFEEIIIXJCQoUQQgghckJChRBCCCFyQkKFEEIIIXJCQoUQQgghckJChRBCCCFyQkKFEEIIIXJCQoUQQgghckJChRBCCCFyQkKFEEIIIXJCQoUQQgghckJChRBCCCFyQkKFEEIIIXJCQoUQQgghckJChRBCCCFyQkKFEEIIIXJCQoUQQgghcuL/A+7KbEkQ1DJbAAAAAElFTkSuQmCC;" vertex="1" parent="1">
          <mxGeometry x="139.99999999999994" y="765.1700000000001" width="28.58" height="20" as="geometry" />
        </mxCell>
        <mxCell id="rF6UAwLea4RSJ0UKlpxq-61" value="7." style="text;html=1;strokeColor=none;fillColor=none;align=center;verticalAlign=middle;whiteSpace=wrap;rounded=0;" vertex="1" parent="1">
          <mxGeometry x="120" y="767.8000000000001" width="20" height="14.74" as="geometry" />
        </mxCell>
        <mxCell id="rF6UAwLea4RSJ0UKlpxq-17" value="" style="shape=image;verticalLabelPosition=bottom;labelBackgroundColor=#ffffff;verticalAlign=top;aspect=fixed;imageAspect=0;image=data:image/png,iVBORw0KGgoAAAANSUhEUgAAAIQAAAAyCAYAAACd13PPAAACyUlEQVR4nO2cLY7jMBTHfYugHCEgMEeJVGi6UrUXqJYFFgwvMxuytNCswMoFcpa3IE1jP3/uVNNkt39LPzKu46+f33M6UgWhoFhFbD0AlH0VR4jj8QjejKwQ4zjSNE3gP2ccxzIhth4oeB0QAkAIACEAhAAQAkAIACEAhAAQAkAIsD0QAkAIACEAhAAQAuxVCE1DV1F/ub1sIkZJqpsTXbOfNaRkTaLq6XIrnYug5nT98tj00JEoGtv2vJ8QRpFsW2rr8Pj857xeCD10VPUXukGI7xfCKEltf6HfkUWHEJsIcQ/bQtzxP6uHLllvlKR6qa96On+UCGFIyXZ+lh6oEw2drrExifumLEJ8OvWeIHqgzmpr1/tCsL4e6WvuSwSfE2sTWi97XrsXYp60cwL0QJ2z6ZqGw7qARkmqrQWYZbAmbRTJWuRPoR6oY4vPNzYWIWwpvf65XEaRtFKSK8S8sfb8uTB+hEi38dfnF53/FSH44G3Do2HSKJL1suClG+nD+wiF8pgQ7tjsMcybxcdj9+X040gZml9gLTJtyi/UOxQilk+9SS2nnodBdvrKhQiMyUsbpXcI+29+mH9wf453mkOfFW5EsYXItnms1fP3tk2EyF3m5gWw2tsniJ2mYiFYjg/n6a8Lkbp0psJ7SSQraePMsfiVegdC5FNGIAQXpIzcTT4pIr+f/JUQfn5PCRGKStmxFrRZCaew3QoRv1S6OZRfwgSvt6VaTkZMiEiaCdX5wuaEmAKX4omM+kk/EpdKwaU7uJfK4FtJpI0eDpYsz70mf6MQfmheJeD13H67vqL+/OGlCec1qznRZyJlpEMuP+Fr3+5rZ0KIKZDnm9QG8/kzWa3709pHvA3v+5nvTPC/DAAhAIQAEAJACAAhAIQAEAJACAAhwPZACAAhAIQAEAJACPAaIfDTxu9B8U8bg/ciKQQKCoRAccofr7lhmt6vXYoAAAAASUVORK5CYII=;direction=east;" vertex="1" parent="1">
          <mxGeometry x="198.84" y="758.1700000000001" width="79.2" height="30" as="geometry" />
        </mxCell>
        <mxCell id="rF6UAwLea4RSJ0UKlpxq-58" value="press &lt;br&gt;" style="html=1;verticalAlign=top;endArrow=block;rounded=0;fontFamily=Times New Roman;startSize=9;endSize=6;edgeStyle=orthogonalEdgeStyle;jumpSize=5;" edge="1" parent="1">
          <mxGeometry y="5" as="geometry">
            <mxPoint x="350.0344827586209" y="721.9841269841268" as="sourcePoint" />
            <mxPoint x="93" y="792" as="targetPoint" />
            <Array as="points">
              <mxPoint x="350" y="792" />
            </Array>
            <mxPoint x="-41" y="2" as="offset" />
          </mxGeometry>
        </mxCell>
        <mxCell id="rF6UAwLea4RSJ0UKlpxq-72" value="" style="html=1;points=[];perimeter=orthogonalPerimeter;fontFamily=Times New Roman;" vertex="1" parent="1">
          <mxGeometry x="610" y="591.74" width="10" height="138.26" as="geometry" />
        </mxCell>
        <mxCell id="rF6UAwLea4RSJ0UKlpxq-73" value="" style="shape=mxgraph.bpmn.data;labelPosition=center;verticalLabelPosition=bottom;align=center;verticalAlign=top;whiteSpace=wrap;size=15;html=1;bpmnTransferType=none;isCollection=1;" vertex="1" parent="1">
          <mxGeometry x="40" y="580" width="40" height="60" as="geometry" />
        </mxCell>
        <mxCell id="rF6UAwLea4RSJ0UKlpxq-76" value="Create atheleteID.ci&lt;br&gt;&amp;amp; write URL of each activity" style="text;html=1;strokeColor=none;fillColor=none;align=center;verticalAlign=middle;whiteSpace=wrap;rounded=0;fontSize=11;" vertex="1" parent="1">
          <mxGeometry x="440" y="618.21" width="110" height="30" as="geometry" />
        </mxCell>
        <mxCell id="sfCNAD6d5CcduHhw_1o2-95" value="" style="shape=mxgraph.bpmn.data;labelPosition=center;verticalLabelPosition=bottom;align=center;verticalAlign=top;whiteSpace=wrap;size=15;html=1;bpmnTransferType=none;isCollection=1;" parent="1" vertex="1">
          <mxGeometry x="550" y="600" width="40" height="60" as="geometry" />
        </mxCell>
        <mxCell id="rF6UAwLea4RSJ0UKlpxq-77" value="" style="aspect=fixed;html=1;points=[];align=center;image;fontSize=12;image=img/lib/azure2/general/Folder_Blank.svg;" vertex="1" parent="1">
          <mxGeometry x="620" y="618.21" width="42.04" height="34.12" as="geometry" />
        </mxCell>
        <mxCell id="rF6UAwLea4RSJ0UKlpxq-78" value="5. Enter Log-In credentials&lt;br&gt;&amp;amp;&lt;br&gt;Press &quot;Log-In&quot; Button" style="text;html=1;strokeColor=none;fillColor=none;align=center;verticalAlign=middle;whiteSpace=wrap;rounded=0;fontSize=11;" vertex="1" parent="1">
          <mxGeometry x="106.71" y="580" width="60" height="30" as="geometry" />
        </mxCell>
      </root>
    </mxGraphModel>
  </diagram>
</mxfile>
